<mxfile modified="2021-07-15T08:55:24.077Z" host="app.diagrams.net" agent="5.0 (Macintosh; Intel Mac OS X 10_15_7) AppleWebKit/537.36 (KHTML, like Gecko) Chrome/91.0.4472.114 Safari/537.36" etag="OEK7oZ6TXKNHOrdouOiR" version="14.8.0" type="github" pages="7">
  <diagram name="Page-1" id="97a40813-6b03-0c74-37c1-0168de264b11">
    <mxGraphModel dx="815" dy="1581" grid="1" gridSize="10" guides="1" tooltips="1" connect="1" arrows="1" fold="1" page="1" pageScale="1" pageWidth="827" pageHeight="1169" background="#ffffff" math="0" shadow="0">
      <root>
        <mxCell id="0" />
        <mxCell id="1" parent="0" />
        <mxCell id="ck9DmpGgdGvUJI5c-7sb-9" value="" style="whiteSpace=wrap;html=1;fillColor=none;sketch=1;" parent="1" vertex="1">
          <mxGeometry x="80" y="-970" width="140" height="220" as="geometry" />
        </mxCell>
        <mxCell id="ck9DmpGgdGvUJI5c-7sb-10" value="Model M1" style="whiteSpace=wrap;html=1;fillColor=#f8cecc;strokeColor=#b85450;fillStyle=zigzag;fontColor=#990000;fontStyle=1;sketch=1;" parent="1" vertex="1">
          <mxGeometry x="90" y="-950" width="120" height="60" as="geometry" />
        </mxCell>
        <mxCell id="ck9DmpGgdGvUJI5c-7sb-11" value="Client C1" style="text;html=1;strokeColor=none;fillColor=none;align=center;verticalAlign=middle;whiteSpace=wrap;fontStyle=1;sketch=1;" parent="1" vertex="1">
          <mxGeometry x="115" y="-750" width="70" height="20" as="geometry" />
        </mxCell>
        <mxCell id="ck9DmpGgdGvUJI5c-7sb-12" value="Session XYZ" style="text;html=1;align=center;verticalAlign=middle;whiteSpace=wrap;fontSize=14;fillColor=#ffffff;fontStyle=1;sketch=0;" parent="1" vertex="1">
          <mxGeometry x="120" y="-980" width="90" height="20" as="geometry" />
        </mxCell>
        <mxCell id="ck9DmpGgdGvUJI5c-7sb-13" value="" style="outlineConnect=0;dashed=0;verticalLabelPosition=bottom;verticalAlign=top;align=center;html=1;fontSize=12;fontStyle=0;aspect=fixed;pointerEvents=1;shape=mxgraph.aws4.user;fillColor=#333333;strokeWidth=1;sketch=1;" parent="1" vertex="1">
          <mxGeometry x="131" y="-730" width="38" height="38" as="geometry" />
        </mxCell>
        <mxCell id="ck9DmpGgdGvUJI5c-7sb-14" value="Reflector" style="ellipse;shape=cloud;whiteSpace=wrap;html=1;fontSize=21;strokeColor=#6c8ebf;fillColor=#CCFFFF;fontColor=#0066CC;sketch=1;" parent="1" vertex="1">
          <mxGeometry x="310" y="-920" width="326" height="130" as="geometry" />
        </mxCell>
        <mxCell id="ck9DmpGgdGvUJI5c-7sb-15" style="orthogonalLoop=1;jettySize=auto;html=1;entryX=0.101;entryY=0.664;entryDx=0;entryDy=0;entryPerimeter=0;fontColor=#990000;startArrow=none;startFill=0;sketch=1;" parent="1" edge="1" target="ck9DmpGgdGvUJI5c-7sb-14">
          <mxGeometry relative="1" as="geometry">
            <mxPoint x="210" y="-805.8997924696117" as="sourcePoint" />
            <mxPoint x="352.3800000000001" y="-819.9" as="targetPoint" />
          </mxGeometry>
        </mxCell>
        <mxCell id="ck9DmpGgdGvUJI5c-7sb-16" style="edgeStyle=none;orthogonalLoop=1;jettySize=auto;html=1;entryX=1;entryY=0.5;entryDx=0;entryDy=0;fontSize=12;fontColor=#000000;exitX=0.07;exitY=0.4;exitDx=0;exitDy=0;exitPerimeter=0;startArrow=none;startFill=0;sketch=1;" parent="1" edge="1" target="ck9DmpGgdGvUJI5c-7sb-10">
          <mxGeometry relative="1" as="geometry">
            <mxPoint x="332.81999999999994" y="-868" as="sourcePoint" />
            <mxPoint x="210" y="-880" as="targetPoint" />
          </mxGeometry>
        </mxCell>
        <mxCell id="ck9DmpGgdGvUJI5c-7sb-17" value="publish(&quot;rollDice&quot;)" style="text;html=1;strokeColor=none;fillColor=none;align=center;verticalAlign=middle;whiteSpace=wrap;fontSize=12;rotation=348;sketch=1;" parent="1" vertex="1">
          <mxGeometry x="230" y="-821" width="106" height="20" as="geometry" />
        </mxCell>
        <mxCell id="ck9DmpGgdGvUJI5c-7sb-18" value="subscribe(&quot;rollDice&quot;)" style="text;html=1;strokeColor=none;fillColor=none;align=center;verticalAlign=middle;whiteSpace=wrap;fontSize=12;rotation=23;sketch=1;" parent="1" vertex="1">
          <mxGeometry x="225" y="-912" width="106" height="20" as="geometry" />
        </mxCell>
        <mxCell id="ck9DmpGgdGvUJI5c-7sb-21" value="View V1" style="whiteSpace=wrap;html=1;fontColor=#333333;fillStyle=solid;fontStyle=1;fillColor=#B3FF66;strokeColor=#66FF66;sketch=1;" parent="1" vertex="1">
          <mxGeometry x="90" y="-833" width="120" height="60" as="geometry" />
        </mxCell>
        <mxCell id="ck9DmpGgdGvUJI5c-7sb-22" value="" style="shape=image;verticalLabelPosition=bottom;labelBackgroundColor=#ffffff;verticalAlign=top;aspect=fixed;imageAspect=0;image=data:image/png,iVBORw0KGgoAAAANSUhEUgAAAPwAAAD8CAYAAABTq8lnAAAN8UlEQVR4Ae2dwW4URxRF+RYsdkj5Fb6A3yALpLDPB0RykCKhZJ0NK/YOyoIVii2BvEEmQrZiWUk2YUFHF1R4aKbtGk931Zt3D9KoPU1PV3W9e+q+ma6uunWLf7QALeDVAi9/uP2Il18bHP14+zvi7hX3jz2bgn64vzfwog3QQG4NADwdHR29kQYA3ijYuHdu966JL8ADPA5vpAGANwp2jQNwTO4sAOABHoc30gDAGwUb987t3jXxBXiAx+GNNADwRsGucQCOyZ0FADzA4/BGGgB4o2Dj3rnduya+NwL+9ODbgRdtgAbiaKAGdh1zY+CHi5OBF22ABvprQB0vwNMh0SGbaADgTQKNu/Z31wgxAHiAx92NNADwRsGO4DDUoW+mAfAAj8MbaQDgjYKNu/Z11wjtD/AAj8MbaQDgjYIdwWGoQ98sA+ABHoc30gDAGwUbd+3rrhHaH+ABHoc30gDAGwU7gsNQh75ZBsADPA5vpAGANwo27trXXSO0P8ADPA5vpAGANwp2BIehDn2zDIAHeBzeSAMAbxRs3LWvu0Zof4AHeBzeSAMAbxTsCA5DHfpmGQAP8Di8kQYA3ijYuGtfd43Q/gAP8Di8kQYA3ijYERyGOvTNMgAe4HF4Iw0AvFGwcde+7hqh/QEe4HF4Iw0AvFGwIzgMdeibZQA8wOPwRhoAeKNg46593TVC+wM8wOPwRhoAeKNgR3AY6tA3ywB4gMfhjTQA8EbBxl37umuE9gf4SuD/+/P34Z+jX4bzF98PZ88fDqcHDz5u9V779f8RAkodloM6gwYA/grg//7jp+Hts/vD65+/GQ7396596Tgdr88B3nLgtWzbbBoA+BHwH/46Hs5+e1gN+VRHIPh1ng/nx8A/auOWwN6krMwaAPgVMSo9f/Xk7rVOPgX5uv06n857E+HxmfZZQnYNAPzFyfD+3YvhzdN7s4I+hl/nVzlA3B7imjZ30YA98P++/nXr9H0M99R7pfkqr0aAHNOuY3DSgDXw+nX96PGdRZ19DL/KU7kA3Q7oq9raTQO2wKtXbw17gV/l4vT9gXfUgCXw+r5We6utQDr3VuXznb4f9K4asAR+6R/oajsH1eOqdJP/W65DcNWAHfC67VILZIvjuGW3HNRTHaazBqyA1yCYue+zb9spqD4a6DElTvbP2yG4a8AKeI182xbQJT6vegH2vGBPtae7BqyA7/1D3VRnoXpNCZT983YE7hqwAV4PQUwBF2E/D9zMC/a6jhINnAw2wOsptghgT9VB9VsnUvbN1xGgASPgo6ZypQMgrZ8P7KlOEg2YAK+JCwpYkbdMorEc9GjgU9tapPQaLx0Z9FI3xtgvBzwaMAI+2kCLAvh4yyCc5YBHA0bAaw66MVwR36ueU98/2b9dZ4AGjIDXhJMRAR/XSfUE7O3Anmo/NGAEPL37MhBNwRVxPxowAp7vbwCPBoyA5xdagEcDRsBzDxbg0YAR8PpOySgroEcDJiPtBDzjqAEeDRgBz5NSAI8GjICPnNbz4Ey7zihqWt9KAxZj6ct9YffZTko7OG/dNWAFvOaOCzmnHQtONhth6K4BK+DlbNEGYKg+zo7b49qdNWAHvATmOid5D7iilumqAUvgXVcdiQpfj3q5asASeAnMcV2xHmBFLtNRA7bAS4gaX916QUlWj213C66ms3HTgDXwEoR6+Vb3ZlWOyqsRIse06xicNGAPvMDS97mlf8TR+VUOILcDeZO2dtEAwF9cClC3a+a+T6/zcevtso03gbDHsdk1APArwEtgWmxQo7G2TfP1eZ2HhSJ3B/bSwWTWAMCPgC9B11YPW+gJq1r4dZyO1+dWz8Pfuwd9iVk2DQD8FcCXoGurCRT0i65SPs2PpkkRtdV77df/rx7P37sL+VTsMmgA4CuBnxIB+/OBnTmmAA/wZCZGGgB4o2Bndi6urS7TAniAx+GNNADwRsHGBetcMHM7ATzA4/BGGgB4o2Bndi6urS57AXiAx+GNNADwRsHGBetcMHM7ATzA4/BGGgB4o2Bndi6urS57AXiAx+GNNADwRsHGBetcMHM7ATzA4/BGGgB4o2Bv4lwZHgXd5HpdjgV4gP/s8Nkme3CBeJPrBHhz4DUF16xTerFO3ucOdBMQWx0L8MbAZ5+wsRVEu1QOwBsC7zIl8y6B2KquAG8GvNOiC60g2qVyAN4IeLdllXYJxFZ1BXgT4OXsrdfRO9zfG/RSuSyxFWPQD8AbAK/v7LVz6xdI596qfJba6g89wBsAv/S6ebWdg+rRKnWlnPWdC8AnB1633mqBbHGc6gOM62Fs0S4Anxh4rZE29+KY23YKqg/r7QE8vf4CHY9G0G0L6BKfV71auBllfN2x4PALgBZFaL1/qJvqLFSvKG3kVg+ATwq8HoSZAi7CflbY/dp9W3Q+AJ8UeC1bHQHsqTqofi0EThlfdiwAnxT4qOl86QBI678EsVXHBPAJgdfkFQWsyFvVs5XQKedTBwPwCYHXmPnIoJe6qZ6A2NbpAT4h8NEG2xTAx1sG4bSFXZ0rwCcE/ux5zPvvY+BVTxy+LfQAnxD404MHO5HSq54AD/CIYMtOCIdvC9EudVo4/JZwRQw23+EBfkqXAJ8QeH6lB3iATwj2VFC5Dw/wU9rA4ZN2BIy0A/p10AN8UuAZSw/wAJ8U7nWB5Wk5gF+nCxw+cScQNa3nwZl+nRHAJwaeGW/6gbXOXSPsA/jEwGvuuJBz2rHgZLfBZQCfGHg5SrRBODww0zfrAPjkwAt65qXvC1mEVL7UAeANgGflGYAHeAPQS5C1ZW05oJcOcHgj8Fk9FugB3gj44vSt7s+rHFaNjdXJALwZ8IJe3+mX/iFP52e12Fiwk9Ibwq6gl5dukc19n17n49bbZRuXto6yxeFXAIgSlJb10IKTGpG3bZqvz+s8LBQZF3bpCuDNgV/tXPTAjZ6yq4Vfx+l4lo2KDflqjAEe4D+n+KvC0CQa+lVf6bnmyNOEk9rqvfaziMTuQL4aV4AH+LXAr4qEv3cT7nVxA3iAB3gjDQC8UbDX9fjsy+PeNbEEeIDH4Y00APBGwa5xAI7J7fgAD/A4vJEGAN4o2Lh3bveuiS/AAzwOb6QBgDcKdo0DcEzuLADgAR6HN9IAwBsFG/fO7d418QV4gMfhjTQA8EbBrnEAjsmdBQA8wOPwRhoAeKNg49653bsmvgAP8Di8kQYA3ijYNQ7AMbmzAIAHeBzeSAMAbxRs3Du3e9fEF+ABHoc30gDAVwabSR1xxwwaAPgrgGfaZiDPpgGAHwGvhRRmXZjh/JiUedTGNd81ex6TWQMAvyJGll7C0bNrAOBZXJEMxEgD9sBrOePapZUO9/eGbV4qh+WT42URThqwBl5LJh09vrMVxJt2ACpP5fb8jkrZl52OmwZsgVev3hr20jmoXJz+ErpeHZCjBiyBf//uRbM0vkA+3iq9Vz16id29XFcNWAL/5um9pmn8GPbyXvVwB6/X9btqwA543XYpwEXYqj69RO9arrMGrID/cH48vHpyNxTwqo8GerjC1/q63TVgBbxG0EVw9XEdVK/Wwnctz10DVsC3ut8+Bvq696qXK4Ctr9tdAzbA6yGI68Dr+f+qX2vxu5WHBk4GG+DfPrsfGnjVzw3A1teLBoyAj5rKlayCtH75gThowAR4TVxQwIq8VT1bu55LeWjgU4dqkdJrvHRk0EvdGGO/nMujASPgow20KICPtwzCWQ54NGAE/NnzmPffx8Crni4pduvrRANGwJ8ePNiJlF71bA2CS3lowAh4evflUuVd6TDQgBHwfH8DeDRgBDy/0AI8GjACnnuwAI8GjIDX90xGWQE9GjAZaSfgGUcN8GjACHielAJ4NGAEfOS0ngdn2nVGUdP6VhqwGEtf7hW7z3ZS2sF5664BK+A1d1zIOe1YcLLZCEN3DVgBL2eLNgBD9XF23B7X7qwBO+AlMNc5yXvAFbVMVw1YAu+66khU+HrUy1UDlsBLYI7rivUAK3KZjhqwBV5C1Pjq1gtKsnpsu1twNZ2NmwasgZcg1Mu3ujerclRejRA5pl3H4KQBe+AFlr7PLf0jjs6vcgC5HcibtLWLBgD+4lKAul0z9316nY9bb5dtvAmEPY7NrgGAXwFeAtNigxqNtW2ar8/rPCwUuTuwlw4mswYAfgR8Cbq2ethCT1jVwq/jdLw+t3oe/t496EvMsmkA4K8AvgRdW02goF90lfJpfjRNiqit3mu//n/1eP7eXcinYpdBAwBfCfyUCNifD+zMMQV4gCczMdIAwBsFO7NzcW11mRbAAzwOb6QBgDcKNi5Y54KZ2wngAR6HN9IAwBsFO7NzcW112QvAAzwOb6QBgDcKNi5Y54KZ2wngAR6HN9IAwBsFO7NzcW112QvAAzwOb6QBgDcKNi5Y54KZ2wngAR6HN9IAwBsFO7NzcW112QvAAzwOb6QBgDcKNi5Y54KZ2wngAR6HN9IAwBsFO7NzcW112QvAAzwOb6QBgDcKNi5Y54KZ2wngAR6HN9IAwBsFO7NzcW112QvAAzwOb6QBgDcKNi5Y54KZ2wngAR6HN9IAwBsFO7NzcW112QvAAzwOb6QBgDcKNi5Y54KZ26kJ8CqEF22ABmJo4HB/b6h53dK/lz/cflRzMMfUNSrtRDtF1QDAV/aMUQNIvehcNtEAwAN8VSq4iag4Nm4nBPAAD/BGGgB4o2DjvHGdt1VsAB7gcXgjDQC8UbBbuQjlxM0kAB7gcXgjDQC8UbBx3rjO2yo2AA/wOLyRBv4H/fhzYZDvMk0AAAAASUVORK5CYII=;sketch=1;" parent="1" vertex="1">
          <mxGeometry x="183" y="-799" width="27" height="27" as="geometry" />
        </mxCell>
        <mxCell id="ck9DmpGgdGvUJI5c-7sb-23" value="init()" style="text;html=1;strokeColor=none;fillColor=none;align=center;verticalAlign=middle;whiteSpace=wrap;rounded=0;sketch=1;fontSize=12;fontColor=#000000;fontStyle=1" parent="1" vertex="1">
          <mxGeometry x="170" y="-910" width="40" height="20" as="geometry" />
        </mxCell>
        <mxCell id="L462oA6qf34D7Li0D84t-3" style="orthogonalLoop=1;jettySize=auto;html=1;fontColor=#990000;startArrow=classic;startFill=1;sketch=1;entryX=0.5;entryY=1;entryDx=0;entryDy=0;exitX=0.5;exitY=0;exitDx=0;exitDy=0;" edge="1" parent="1" source="ck9DmpGgdGvUJI5c-7sb-21" target="ck9DmpGgdGvUJI5c-7sb-10">
          <mxGeometry relative="1" as="geometry">
            <mxPoint x="220" y="-795.8997924696117" as="sourcePoint" />
            <mxPoint x="353" y="-740" as="targetPoint" />
          </mxGeometry>
        </mxCell>
        <mxCell id="ck9DmpGgdGvUJI5c-7sb-20" value="publish&lt;br&gt;(&quot;show&quot;)" style="text;html=1;strokeColor=none;fillColor=none;align=center;verticalAlign=middle;whiteSpace=wrap;fontSize=9;rotation=-90;sketch=1;" parent="1" vertex="1">
          <mxGeometry x="115" y="-870" width="40" height="20" as="geometry" />
        </mxCell>
        <mxCell id="ck9DmpGgdGvUJI5c-7sb-19" value="subscribe&lt;br&gt;(&quot;show&quot;)" style="text;html=1;strokeColor=none;fillColor=none;align=center;verticalAlign=middle;whiteSpace=wrap;fontSize=9;rotation=90;sketch=1;" parent="1" vertex="1">
          <mxGeometry x="140" y="-870" width="50" height="22" as="geometry" />
        </mxCell>
      </root>
    </mxGraphModel>
  </diagram>
  <diagram id="AdpoNtu1L8BSBnRiO_Xw" name="Page-2">
    <mxGraphModel dx="815" dy="1581" grid="1" gridSize="10" guides="1" tooltips="1" connect="1" arrows="1" fold="1" page="1" pageScale="1" pageWidth="827" pageHeight="1169" math="0" shadow="0">
      <root>
        <mxCell id="F6cBWDgfHgXO3scEinzD-0" />
        <mxCell id="F6cBWDgfHgXO3scEinzD-1" parent="F6cBWDgfHgXO3scEinzD-0" />
        <mxCell id="F6cBWDgfHgXO3scEinzD-2" value="" style="whiteSpace=wrap;html=1;fillColor=none;sketch=1;" parent="F6cBWDgfHgXO3scEinzD-1" vertex="1">
          <mxGeometry x="80" y="-930" width="140" height="180" as="geometry" />
        </mxCell>
        <mxCell id="F6cBWDgfHgXO3scEinzD-3" value="Reflector" style="ellipse;shape=cloud;whiteSpace=wrap;html=1;fontSize=21;strokeColor=#6c8ebf;fillColor=#CCFFFF;fontColor=#0066CC;sketch=1;" parent="F6cBWDgfHgXO3scEinzD-1" vertex="1">
          <mxGeometry x="310" y="-920" width="326" height="130" as="geometry" />
        </mxCell>
        <mxCell id="F6cBWDgfHgXO3scEinzD-4" value="Model M1" style="whiteSpace=wrap;html=1;fillColor=#f8cecc;strokeColor=#b85450;fillStyle=zigzag;fontColor=#990000;fontStyle=1;sketch=1;" parent="F6cBWDgfHgXO3scEinzD-1" vertex="1">
          <mxGeometry x="90" y="-910" width="120" height="60" as="geometry" />
        </mxCell>
        <mxCell id="F6cBWDgfHgXO3scEinzD-5" value="Client C1" style="text;html=1;strokeColor=none;fillColor=none;align=center;verticalAlign=middle;whiteSpace=wrap;fontStyle=1;sketch=1;" parent="F6cBWDgfHgXO3scEinzD-1" vertex="1">
          <mxGeometry x="115" y="-750" width="70" height="20" as="geometry" />
        </mxCell>
        <mxCell id="F6cBWDgfHgXO3scEinzD-6" value="Session XYZ" style="text;html=1;align=center;verticalAlign=middle;whiteSpace=wrap;fontSize=14;fillColor=#ffffff;fontStyle=1;sketch=0;" parent="F6cBWDgfHgXO3scEinzD-1" vertex="1">
          <mxGeometry x="120" y="-940" width="90" height="20" as="geometry" />
        </mxCell>
        <mxCell id="F6cBWDgfHgXO3scEinzD-7" value="" style="outlineConnect=0;dashed=0;verticalLabelPosition=bottom;verticalAlign=top;align=center;html=1;fontSize=12;fontStyle=0;aspect=fixed;pointerEvents=1;shape=mxgraph.aws4.user;fillColor=#333333;strokeWidth=1;sketch=1;" parent="F6cBWDgfHgXO3scEinzD-1" vertex="1">
          <mxGeometry x="131" y="-730" width="38" height="38" as="geometry" />
        </mxCell>
        <mxCell id="F6cBWDgfHgXO3scEinzD-8" style="orthogonalLoop=1;jettySize=auto;html=1;entryX=0.13;entryY=0.77;entryDx=0;entryDy=0;entryPerimeter=0;fontColor=#990000;startArrow=classic;startFill=1;sketch=1;" parent="F6cBWDgfHgXO3scEinzD-1" edge="1">
          <mxGeometry relative="1" as="geometry">
            <mxPoint x="210" y="-805.8997924696117" as="sourcePoint" />
            <mxPoint x="352.3800000000001" y="-819.9" as="targetPoint" />
          </mxGeometry>
        </mxCell>
        <mxCell id="F6cBWDgfHgXO3scEinzD-9" style="edgeStyle=none;orthogonalLoop=1;jettySize=auto;html=1;entryX=1;entryY=0.5;entryDx=0;entryDy=0;fontSize=12;fontColor=#000000;exitX=0.07;exitY=0.4;exitDx=0;exitDy=0;exitPerimeter=0;startArrow=classic;startFill=1;sketch=1;" parent="F6cBWDgfHgXO3scEinzD-1" edge="1">
          <mxGeometry relative="1" as="geometry">
            <mxPoint x="332.81999999999994" y="-868" as="sourcePoint" />
            <mxPoint x="210" y="-880" as="targetPoint" />
          </mxGeometry>
        </mxCell>
        <mxCell id="F6cBWDgfHgXO3scEinzD-10" value="publish(&quot;rollDice&quot;)" style="text;html=1;strokeColor=none;fillColor=none;align=center;verticalAlign=middle;whiteSpace=wrap;fontSize=12;rotation=354.5;sketch=1;" parent="F6cBWDgfHgXO3scEinzD-1" vertex="1">
          <mxGeometry x="230" y="-814" width="106" height="20" as="geometry" />
        </mxCell>
        <mxCell id="F6cBWDgfHgXO3scEinzD-11" value="subscribe(&quot;rollDice&quot;)" style="text;html=1;strokeColor=none;fillColor=none;align=center;verticalAlign=middle;whiteSpace=wrap;fontSize=12;rotation=6;sketch=1;" parent="F6cBWDgfHgXO3scEinzD-1" vertex="1">
          <mxGeometry x="230" y="-893" width="106" height="20" as="geometry" />
        </mxCell>
        <mxCell id="F6cBWDgfHgXO3scEinzD-12" value="subscribe(&quot;showDice&quot;)" style="text;html=1;strokeColor=none;fillColor=none;align=center;verticalAlign=middle;whiteSpace=wrap;fontSize=12;rotation=354.5;sketch=1;" parent="F6cBWDgfHgXO3scEinzD-1" vertex="1">
          <mxGeometry x="230" y="-833" width="106" height="20" as="geometry" />
        </mxCell>
        <mxCell id="F6cBWDgfHgXO3scEinzD-13" value="publish(&quot;showDice&quot;)" style="text;html=1;strokeColor=none;fillColor=none;align=center;verticalAlign=middle;whiteSpace=wrap;fontSize=12;rotation=5.5;sketch=1;" parent="F6cBWDgfHgXO3scEinzD-1" vertex="1">
          <mxGeometry x="225" y="-873" width="106" height="20" as="geometry" />
        </mxCell>
        <mxCell id="F6cBWDgfHgXO3scEinzD-14" value="" style="whiteSpace=wrap;html=1;fillColor=none;sketch=1;" parent="F6cBWDgfHgXO3scEinzD-1" vertex="1">
          <mxGeometry x="670" y="-750" width="140" height="180" as="geometry" />
        </mxCell>
        <mxCell id="F6cBWDgfHgXO3scEinzD-15" value="View V2" style="whiteSpace=wrap;html=1;fontColor=#333333;fillStyle=solid;fontStyle=1;strokeColor=#6666FF;fillColor=#CCCCFF;sketch=1;" parent="F6cBWDgfHgXO3scEinzD-1" vertex="1">
          <mxGeometry x="680" y="-650" width="120" height="60" as="geometry" />
        </mxCell>
        <mxCell id="F6cBWDgfHgXO3scEinzD-16" style="edgeStyle=none;orthogonalLoop=1;jettySize=auto;html=1;entryX=0;entryY=0.5;entryDx=0;entryDy=0;fontSize=12;fontColor=#000000;exitX=0.8;exitY=0.8;exitDx=0;exitDy=0;exitPerimeter=0;startArrow=classic;startFill=1;sketch=1;" parent="F6cBWDgfHgXO3scEinzD-1" target="F6cBWDgfHgXO3scEinzD-17" edge="1">
          <mxGeometry relative="1" as="geometry">
            <mxPoint x="570.8" y="-816" as="sourcePoint" />
          </mxGeometry>
        </mxCell>
        <mxCell id="F6cBWDgfHgXO3scEinzD-17" value="Model M1" style="whiteSpace=wrap;html=1;fillColor=#f8cecc;strokeColor=#b85450;fillStyle=zigzag;fontColor=#990000;fontStyle=1;sketch=1;" parent="F6cBWDgfHgXO3scEinzD-1" vertex="1">
          <mxGeometry x="680" y="-730" width="120" height="60" as="geometry" />
        </mxCell>
        <mxCell id="F6cBWDgfHgXO3scEinzD-18" style="edgeStyle=none;orthogonalLoop=1;jettySize=auto;html=1;fontSize=12;fontColor=#000000;exitX=0;exitY=0.5;exitDx=0;exitDy=0;entryX=0.55;entryY=0.95;entryDx=0;entryDy=0;entryPerimeter=0;startArrow=classic;startFill=1;sketch=1;" parent="F6cBWDgfHgXO3scEinzD-1" source="F6cBWDgfHgXO3scEinzD-15" edge="1">
          <mxGeometry relative="1" as="geometry">
            <mxPoint x="600" y="-610" as="sourcePoint" />
            <mxPoint x="489.29999999999995" y="-796.5" as="targetPoint" />
          </mxGeometry>
        </mxCell>
        <mxCell id="F6cBWDgfHgXO3scEinzD-19" value="Client C2" style="text;html=1;strokeColor=none;fillColor=none;align=center;verticalAlign=middle;whiteSpace=wrap;fontStyle=1;sketch=1;" parent="F6cBWDgfHgXO3scEinzD-1" vertex="1">
          <mxGeometry x="705" y="-570" width="70" height="20" as="geometry" />
        </mxCell>
        <mxCell id="F6cBWDgfHgXO3scEinzD-20" value="Session XYZ" style="text;html=1;align=center;verticalAlign=middle;whiteSpace=wrap;fontSize=14;fillColor=#ffffff;fontStyle=1;sketch=0;" parent="F6cBWDgfHgXO3scEinzD-1" vertex="1">
          <mxGeometry x="710" y="-760" width="90" height="20" as="geometry" />
        </mxCell>
        <mxCell id="F6cBWDgfHgXO3scEinzD-21" value="" style="outlineConnect=0;dashed=0;verticalLabelPosition=bottom;verticalAlign=top;align=center;html=1;fontSize=12;fontStyle=0;aspect=fixed;pointerEvents=1;shape=mxgraph.aws4.user;fillColor=#333333;strokeWidth=1;sketch=1;" parent="F6cBWDgfHgXO3scEinzD-1" vertex="1">
          <mxGeometry x="721" y="-550" width="38" height="38" as="geometry" />
        </mxCell>
        <mxCell id="F6cBWDgfHgXO3scEinzD-22" value="publish(&quot;rollDice&quot;)" style="text;html=1;strokeColor=none;fillColor=none;align=center;verticalAlign=middle;whiteSpace=wrap;fontSize=12;rotation=43;sketch=1;" parent="F6cBWDgfHgXO3scEinzD-1" vertex="1">
          <mxGeometry x="514" y="-721" width="106" height="20" as="geometry" />
        </mxCell>
        <mxCell id="F6cBWDgfHgXO3scEinzD-23" value="subscribe(&quot;rollDice&quot;)" style="text;html=1;strokeColor=none;fillColor=none;align=center;verticalAlign=middle;whiteSpace=wrap;fontSize=12;rotation=46.5;sketch=1;" parent="F6cBWDgfHgXO3scEinzD-1" vertex="1">
          <mxGeometry x="580" y="-775" width="106" height="20" as="geometry" />
        </mxCell>
        <mxCell id="F6cBWDgfHgXO3scEinzD-24" value="publish(&quot;showDice&quot;)" style="text;html=1;strokeColor=none;fillColor=none;align=center;verticalAlign=middle;whiteSpace=wrap;fontSize=12;rotation=46.5;sketch=1;" parent="F6cBWDgfHgXO3scEinzD-1" vertex="1">
          <mxGeometry x="563" y="-763" width="106" height="20" as="geometry" />
        </mxCell>
        <mxCell id="F6cBWDgfHgXO3scEinzD-25" style="edgeStyle=none;orthogonalLoop=1;jettySize=auto;html=1;exitX=0.5;exitY=1;exitDx=0;exitDy=0;fontSize=12;fontColor=#000000;sketch=1;" parent="F6cBWDgfHgXO3scEinzD-1" source="F6cBWDgfHgXO3scEinzD-24" target="F6cBWDgfHgXO3scEinzD-24" edge="1">
          <mxGeometry relative="1" as="geometry" />
        </mxCell>
        <mxCell id="F6cBWDgfHgXO3scEinzD-26" value="subscribe(&quot;showDice&quot;)" style="text;html=1;strokeColor=none;fillColor=none;align=center;verticalAlign=middle;whiteSpace=wrap;fontSize=12;rotation=43;sketch=1;" parent="F6cBWDgfHgXO3scEinzD-1" vertex="1">
          <mxGeometry x="525" y="-738" width="106" height="20" as="geometry" />
        </mxCell>
        <mxCell id="F6cBWDgfHgXO3scEinzD-27" value="View V1" style="whiteSpace=wrap;html=1;fontColor=#333333;fillStyle=solid;fontStyle=1;fillColor=#B3FF66;strokeColor=#66FF66;sketch=1;" parent="F6cBWDgfHgXO3scEinzD-1" vertex="1">
          <mxGeometry x="90" y="-830" width="120" height="60" as="geometry" />
        </mxCell>
        <mxCell id="F6cBWDgfHgXO3scEinzD-28" value="" style="shape=image;verticalLabelPosition=bottom;labelBackgroundColor=#ffffff;verticalAlign=top;aspect=fixed;imageAspect=0;image=data:image/png,iVBORw0KGgoAAAANSUhEUgAAAPwAAAD8CAYAAABTq8lnAAAN8UlEQVR4Ae2dwW4URxRF+RYsdkj5Fb6A3yALpLDPB0RykCKhZJ0NK/YOyoIVii2BvEEmQrZiWUk2YUFHF1R4aKbtGk931Zt3D9KoPU1PV3W9e+q+ma6uunWLf7QALeDVAi9/uP2Il18bHP14+zvi7hX3jz2bgn64vzfwog3QQG4NADwdHR29kQYA3ijYuHdu966JL8ADPA5vpAGANwp2jQNwTO4sAOABHoc30gDAGwUb987t3jXxBXiAx+GNNADwRsGucQCOyZ0FADzA4/BGGgB4o2Dj3rnduya+NwL+9ODbgRdtgAbiaKAGdh1zY+CHi5OBF22ABvprQB0vwNMh0SGbaADgTQKNu/Z31wgxAHiAx92NNADwRsGO4DDUoW+mAfAAj8MbaQDgjYKNu/Z11wjtD/AAj8MbaQDgjYIdwWGoQ98sA+ABHoc30gDAGwUbd+3rrhHaH+ABHoc30gDAGwU7gsNQh75ZBsADPA5vpAGANwo27trXXSO0P8ADPA5vpAGANwp2BIehDn2zDIAHeBzeSAMAbxRs3LWvu0Zof4AHeBzeSAMAbxTsCA5DHfpmGQAP8Di8kQYA3ijYuGtfd43Q/gAP8Di8kQYA3ijYERyGOvTNMgAe4HF4Iw0AvFGwcde+7hqh/QEe4HF4Iw0AvFGwIzgMdeibZQA8wOPwRhoAeKNg46593TVC+wM8wOPwRhoAeKNgR3AY6tA3ywB4gMfhjTQA8EbBxl37umuE9gf4SuD/+/P34Z+jX4bzF98PZ88fDqcHDz5u9V779f8RAkodloM6gwYA/grg//7jp+Hts/vD65+/GQ7396596Tgdr88B3nLgtWzbbBoA+BHwH/46Hs5+e1gN+VRHIPh1ng/nx8A/auOWwN6krMwaAPgVMSo9f/Xk7rVOPgX5uv06n857E+HxmfZZQnYNAPzFyfD+3YvhzdN7s4I+hl/nVzlA3B7imjZ30YA98P++/nXr9H0M99R7pfkqr0aAHNOuY3DSgDXw+nX96PGdRZ19DL/KU7kA3Q7oq9raTQO2wKtXbw17gV/l4vT9gXfUgCXw+r5We6utQDr3VuXznb4f9K4asAR+6R/oajsH1eOqdJP/W65DcNWAHfC67VILZIvjuGW3HNRTHaazBqyA1yCYue+zb9spqD4a6DElTvbP2yG4a8AKeI182xbQJT6vegH2vGBPtae7BqyA7/1D3VRnoXpNCZT983YE7hqwAV4PQUwBF2E/D9zMC/a6jhINnAw2wOsptghgT9VB9VsnUvbN1xGgASPgo6ZypQMgrZ8P7KlOEg2YAK+JCwpYkbdMorEc9GjgU9tapPQaLx0Z9FI3xtgvBzwaMAI+2kCLAvh4yyCc5YBHA0bAaw66MVwR36ueU98/2b9dZ4AGjIDXhJMRAR/XSfUE7O3Anmo/NGAEPL37MhBNwRVxPxowAp7vbwCPBoyA5xdagEcDRsBzDxbg0YAR8PpOySgroEcDJiPtBDzjqAEeDRgBz5NSAI8GjICPnNbz4Ey7zihqWt9KAxZj6ct9YffZTko7OG/dNWAFvOaOCzmnHQtONhth6K4BK+DlbNEGYKg+zo7b49qdNWAHvATmOid5D7iilumqAUvgXVcdiQpfj3q5asASeAnMcV2xHmBFLtNRA7bAS4gaX916QUlWj213C66ms3HTgDXwEoR6+Vb3ZlWOyqsRIse06xicNGAPvMDS97mlf8TR+VUOILcDeZO2dtEAwF9cClC3a+a+T6/zcevtso03gbDHsdk1APArwEtgWmxQo7G2TfP1eZ2HhSJ3B/bSwWTWAMCPgC9B11YPW+gJq1r4dZyO1+dWz8Pfuwd9iVk2DQD8FcCXoGurCRT0i65SPs2PpkkRtdV77df/rx7P37sL+VTsMmgA4CuBnxIB+/OBnTmmAA/wZCZGGgB4o2Bndi6urS7TAniAx+GNNADwRsHGBetcMHM7ATzA4/BGGgB4o2Bndi6urS57AXiAx+GNNADwRsHGBetcMHM7ATzA4/BGGgB4o2Bndi6urS57AXiAx+GNNADwRsHGBetcMHM7ATzA4/BGGgB4o2Bv4lwZHgXd5HpdjgV4gP/s8Nkme3CBeJPrBHhz4DUF16xTerFO3ucOdBMQWx0L8MbAZ5+wsRVEu1QOwBsC7zIl8y6B2KquAG8GvNOiC60g2qVyAN4IeLdllXYJxFZ1BXgT4OXsrdfRO9zfG/RSuSyxFWPQD8AbAK/v7LVz6xdI596qfJba6g89wBsAv/S6ebWdg+rRKnWlnPWdC8AnB1633mqBbHGc6gOM62Fs0S4Anxh4rZE29+KY23YKqg/r7QE8vf4CHY9G0G0L6BKfV71auBllfN2x4PALgBZFaL1/qJvqLFSvKG3kVg+ATwq8HoSZAi7CflbY/dp9W3Q+AJ8UeC1bHQHsqTqofi0EThlfdiwAnxT4qOl86QBI678EsVXHBPAJgdfkFQWsyFvVs5XQKedTBwPwCYHXmPnIoJe6qZ6A2NbpAT4h8NEG2xTAx1sG4bSFXZ0rwCcE/ux5zPvvY+BVTxy+LfQAnxD404MHO5HSq54AD/CIYMtOCIdvC9EudVo4/JZwRQw23+EBfkqXAJ8QeH6lB3iATwj2VFC5Dw/wU9rA4ZN2BIy0A/p10AN8UuAZSw/wAJ8U7nWB5Wk5gF+nCxw+cScQNa3nwZl+nRHAJwaeGW/6gbXOXSPsA/jEwGvuuJBz2rHgZLfBZQCfGHg5SrRBODww0zfrAPjkwAt65qXvC1mEVL7UAeANgGflGYAHeAPQS5C1ZW05oJcOcHgj8Fk9FugB3gj44vSt7s+rHFaNjdXJALwZ8IJe3+mX/iFP52e12Fiwk9Ibwq6gl5dukc19n17n49bbZRuXto6yxeFXAIgSlJb10IKTGpG3bZqvz+s8LBQZF3bpCuDNgV/tXPTAjZ6yq4Vfx+l4lo2KDflqjAEe4D+n+KvC0CQa+lVf6bnmyNOEk9rqvfaziMTuQL4aV4AH+LXAr4qEv3cT7nVxA3iAB3gjDQC8UbDX9fjsy+PeNbEEeIDH4Y00APBGwa5xAI7J7fgAD/A4vJEGAN4o2Lh3bveuiS/AAzwOb6QBgDcKdo0DcEzuLADgAR6HN9IAwBsFG/fO7d418QV4gMfhjTQA8EbBrnEAjsmdBQA8wOPwRhoAeKNg49653bsmvgAP8Di8kQYA3ijYNQ7AMbmzAIAHeBzeSAMAbxRs3Du3e9fEF+ABHoc30gDAVwabSR1xxwwaAPgrgGfaZiDPpgGAHwGvhRRmXZjh/JiUedTGNd81ex6TWQMAvyJGll7C0bNrAOBZXJEMxEgD9sBrOePapZUO9/eGbV4qh+WT42URThqwBl5LJh09vrMVxJt2ACpP5fb8jkrZl52OmwZsgVev3hr20jmoXJz+ErpeHZCjBiyBf//uRbM0vkA+3iq9Vz16id29XFcNWAL/5um9pmn8GPbyXvVwB6/X9btqwA543XYpwEXYqj69RO9arrMGrID/cH48vHpyNxTwqo8GerjC1/q63TVgBbxG0EVw9XEdVK/Wwnctz10DVsC3ut8+Bvq696qXK4Ctr9tdAzbA6yGI68Dr+f+qX2vxu5WHBk4GG+DfPrsfGnjVzw3A1teLBoyAj5rKlayCtH75gThowAR4TVxQwIq8VT1bu55LeWjgU4dqkdJrvHRk0EvdGGO/nMujASPgow20KICPtwzCWQ54NGAE/NnzmPffx8Crni4pduvrRANGwJ8ePNiJlF71bA2CS3lowAh4evflUuVd6TDQgBHwfH8DeDRgBDy/0AI8GjACnnuwAI8GjIDX90xGWQE9GjAZaSfgGUcN8GjACHielAJ4NGAEfOS0ngdn2nVGUdP6VhqwGEtf7hW7z3ZS2sF5664BK+A1d1zIOe1YcLLZCEN3DVgBL2eLNgBD9XF23B7X7qwBO+AlMNc5yXvAFbVMVw1YAu+66khU+HrUy1UDlsBLYI7rivUAK3KZjhqwBV5C1Pjq1gtKsnpsu1twNZ2NmwasgZcg1Mu3ujerclRejRA5pl3H4KQBe+AFlr7PLf0jjs6vcgC5HcibtLWLBgD+4lKAul0z9316nY9bb5dtvAmEPY7NrgGAXwFeAtNigxqNtW2ar8/rPCwUuTuwlw4mswYAfgR8Cbq2ethCT1jVwq/jdLw+t3oe/t496EvMsmkA4K8AvgRdW02goF90lfJpfjRNiqit3mu//n/1eP7eXcinYpdBAwBfCfyUCNifD+zMMQV4gCczMdIAwBsFO7NzcW11mRbAAzwOb6QBgDcKNi5Y54KZ2wngAR6HN9IAwBsFO7NzcW112QvAAzwOb6QBgDcKNi5Y54KZ2wngAR6HN9IAwBsFO7NzcW112QvAAzwOb6QBgDcKNi5Y54KZ2wngAR6HN9IAwBsFO7NzcW112QvAAzwOb6QBgDcKNi5Y54KZ2wngAR6HN9IAwBsFO7NzcW112QvAAzwOb6QBgDcKNi5Y54KZ2wngAR6HN9IAwBsFO7NzcW112QvAAzwOb6QBgDcKNi5Y54KZ2wngAR6HN9IAwBsFO7NzcW112QvAAzwOb6QBgDcKNi5Y54KZ26kJ8CqEF22ABmJo4HB/b6h53dK/lz/cflRzMMfUNSrtRDtF1QDAV/aMUQNIvehcNtEAwAN8VSq4iag4Nm4nBPAAD/BGGgB4o2DjvHGdt1VsAB7gcXgjDQC8UbBbuQjlxM0kAB7gcXgjDQC8UbBx3rjO2yo2AA/wOLyRBv4H/fhzYZDvMk0AAAAASUVORK5CYII=;sketch=1;" parent="F6cBWDgfHgXO3scEinzD-1" vertex="1">
          <mxGeometry x="183" y="-796" width="27" height="27" as="geometry" />
        </mxCell>
        <mxCell id="F6cBWDgfHgXO3scEinzD-29" value="" style="shape=image;verticalLabelPosition=bottom;labelBackgroundColor=#ffffff;verticalAlign=top;aspect=fixed;imageAspect=0;image=data:image/png,iVBORw0KGgoAAAANSUhEUgAAAPwAAAD8CAYAAABTq8lnAAAN8UlEQVR4Ae2dwW4URxRF+RYsdkj5Fb6A3yALpLDPB0RykCKhZJ0NK/YOyoIVii2BvEEmQrZiWUk2YUFHF1R4aKbtGk931Zt3D9KoPU1PV3W9e+q+ma6uunWLf7QALeDVAi9/uP2Il18bHP14+zvi7hX3jz2bgn64vzfwog3QQG4NADwdHR29kQYA3ijYuHdu966JL8ADPA5vpAGANwp2jQNwTO4sAOABHoc30gDAGwUb987t3jXxBXiAx+GNNADwRsGucQCOyZ0FADzA4/BGGgB4o2Dj3rnduya+NwL+9ODbgRdtgAbiaKAGdh1zY+CHi5OBF22ABvprQB0vwNMh0SGbaADgTQKNu/Z31wgxAHiAx92NNADwRsGO4DDUoW+mAfAAj8MbaQDgjYKNu/Z11wjtD/AAj8MbaQDgjYIdwWGoQ98sA+ABHoc30gDAGwUbd+3rrhHaH+ABHoc30gDAGwU7gsNQh75ZBsADPA5vpAGANwo27trXXSO0P8ADPA5vpAGANwp2BIehDn2zDIAHeBzeSAMAbxRs3LWvu0Zof4AHeBzeSAMAbxTsCA5DHfpmGQAP8Di8kQYA3ijYuGtfd43Q/gAP8Di8kQYA3ijYERyGOvTNMgAe4HF4Iw0AvFGwcde+7hqh/QEe4HF4Iw0AvFGwIzgMdeibZQA8wOPwRhoAeKNg46593TVC+wM8wOPwRhoAeKNgR3AY6tA3ywB4gMfhjTQA8EbBxl37umuE9gf4SuD/+/P34Z+jX4bzF98PZ88fDqcHDz5u9V779f8RAkodloM6gwYA/grg//7jp+Hts/vD65+/GQ7396596Tgdr88B3nLgtWzbbBoA+BHwH/46Hs5+e1gN+VRHIPh1ng/nx8A/auOWwN6krMwaAPgVMSo9f/Xk7rVOPgX5uv06n857E+HxmfZZQnYNAPzFyfD+3YvhzdN7s4I+hl/nVzlA3B7imjZ30YA98P++/nXr9H0M99R7pfkqr0aAHNOuY3DSgDXw+nX96PGdRZ19DL/KU7kA3Q7oq9raTQO2wKtXbw17gV/l4vT9gXfUgCXw+r5We6utQDr3VuXznb4f9K4asAR+6R/oajsH1eOqdJP/W65DcNWAHfC67VILZIvjuGW3HNRTHaazBqyA1yCYue+zb9spqD4a6DElTvbP2yG4a8AKeI182xbQJT6vegH2vGBPtae7BqyA7/1D3VRnoXpNCZT983YE7hqwAV4PQUwBF2E/D9zMC/a6jhINnAw2wOsptghgT9VB9VsnUvbN1xGgASPgo6ZypQMgrZ8P7KlOEg2YAK+JCwpYkbdMorEc9GjgU9tapPQaLx0Z9FI3xtgvBzwaMAI+2kCLAvh4yyCc5YBHA0bAaw66MVwR36ueU98/2b9dZ4AGjIDXhJMRAR/XSfUE7O3Anmo/NGAEPL37MhBNwRVxPxowAp7vbwCPBoyA5xdagEcDRsBzDxbg0YAR8PpOySgroEcDJiPtBDzjqAEeDRgBz5NSAI8GjICPnNbz4Ey7zihqWt9KAxZj6ct9YffZTko7OG/dNWAFvOaOCzmnHQtONhth6K4BK+DlbNEGYKg+zo7b49qdNWAHvATmOid5D7iilumqAUvgXVcdiQpfj3q5asASeAnMcV2xHmBFLtNRA7bAS4gaX916QUlWj213C66ms3HTgDXwEoR6+Vb3ZlWOyqsRIse06xicNGAPvMDS97mlf8TR+VUOILcDeZO2dtEAwF9cClC3a+a+T6/zcevtso03gbDHsdk1APArwEtgWmxQo7G2TfP1eZ2HhSJ3B/bSwWTWAMCPgC9B11YPW+gJq1r4dZyO1+dWz8Pfuwd9iVk2DQD8FcCXoGurCRT0i65SPs2PpkkRtdV77df/rx7P37sL+VTsMmgA4CuBnxIB+/OBnTmmAA/wZCZGGgB4o2Bndi6urS7TAniAx+GNNADwRsHGBetcMHM7ATzA4/BGGgB4o2Bndi6urS57AXiAx+GNNADwRsHGBetcMHM7ATzA4/BGGgB4o2Bndi6urS57AXiAx+GNNADwRsHGBetcMHM7ATzA4/BGGgB4o2Bv4lwZHgXd5HpdjgV4gP/s8Nkme3CBeJPrBHhz4DUF16xTerFO3ucOdBMQWx0L8MbAZ5+wsRVEu1QOwBsC7zIl8y6B2KquAG8GvNOiC60g2qVyAN4IeLdllXYJxFZ1BXgT4OXsrdfRO9zfG/RSuSyxFWPQD8AbAK/v7LVz6xdI596qfJba6g89wBsAv/S6ebWdg+rRKnWlnPWdC8AnB1633mqBbHGc6gOM62Fs0S4Anxh4rZE29+KY23YKqg/r7QE8vf4CHY9G0G0L6BKfV71auBllfN2x4PALgBZFaL1/qJvqLFSvKG3kVg+ATwq8HoSZAi7CflbY/dp9W3Q+AJ8UeC1bHQHsqTqofi0EThlfdiwAnxT4qOl86QBI678EsVXHBPAJgdfkFQWsyFvVs5XQKedTBwPwCYHXmPnIoJe6qZ6A2NbpAT4h8NEG2xTAx1sG4bSFXZ0rwCcE/ux5zPvvY+BVTxy+LfQAnxD404MHO5HSq54AD/CIYMtOCIdvC9EudVo4/JZwRQw23+EBfkqXAJ8QeH6lB3iATwj2VFC5Dw/wU9rA4ZN2BIy0A/p10AN8UuAZSw/wAJ8U7nWB5Wk5gF+nCxw+cScQNa3nwZl+nRHAJwaeGW/6gbXOXSPsA/jEwGvuuJBz2rHgZLfBZQCfGHg5SrRBODww0zfrAPjkwAt65qXvC1mEVL7UAeANgGflGYAHeAPQS5C1ZW05oJcOcHgj8Fk9FugB3gj44vSt7s+rHFaNjdXJALwZ8IJe3+mX/iFP52e12Fiwk9Ibwq6gl5dukc19n17n49bbZRuXto6yxeFXAIgSlJb10IKTGpG3bZqvz+s8LBQZF3bpCuDNgV/tXPTAjZ6yq4Vfx+l4lo2KDflqjAEe4D+n+KvC0CQa+lVf6bnmyNOEk9rqvfaziMTuQL4aV4AH+LXAr4qEv3cT7nVxA3iAB3gjDQC8UbDX9fjsy+PeNbEEeIDH4Y00APBGwa5xAI7J7fgAD/A4vJEGAN4o2Lh3bveuiS/AAzwOb6QBgDcKdo0DcEzuLADgAR6HN9IAwBsFG/fO7d418QV4gMfhjTQA8EbBrnEAjsmdBQA8wOPwRhoAeKNg49653bsmvgAP8Di8kQYA3ijYNQ7AMbmzAIAHeBzeSAMAbxRs3Du3e9fEF+ABHoc30gDAVwabSR1xxwwaAPgrgGfaZiDPpgGAHwGvhRRmXZjh/JiUedTGNd81ex6TWQMAvyJGll7C0bNrAOBZXJEMxEgD9sBrOePapZUO9/eGbV4qh+WT42URThqwBl5LJh09vrMVxJt2ACpP5fb8jkrZl52OmwZsgVev3hr20jmoXJz+ErpeHZCjBiyBf//uRbM0vkA+3iq9Vz16id29XFcNWAL/5um9pmn8GPbyXvVwB6/X9btqwA543XYpwEXYqj69RO9arrMGrID/cH48vHpyNxTwqo8GerjC1/q63TVgBbxG0EVw9XEdVK/Wwnctz10DVsC3ut8+Bvq696qXK4Ctr9tdAzbA6yGI68Dr+f+qX2vxu5WHBk4GG+DfPrsfGnjVzw3A1teLBoyAj5rKlayCtH75gThowAR4TVxQwIq8VT1bu55LeWjgU4dqkdJrvHRk0EvdGGO/nMujASPgow20KICPtwzCWQ54NGAE/NnzmPffx8Crni4pduvrRANGwJ8ePNiJlF71bA2CS3lowAh4evflUuVd6TDQgBHwfH8DeDRgBDy/0AI8GjACnnuwAI8GjIDX90xGWQE9GjAZaSfgGUcN8GjACHielAJ4NGAEfOS0ngdn2nVGUdP6VhqwGEtf7hW7z3ZS2sF5664BK+A1d1zIOe1YcLLZCEN3DVgBL2eLNgBD9XF23B7X7qwBO+AlMNc5yXvAFbVMVw1YAu+66khU+HrUy1UDlsBLYI7rivUAK3KZjhqwBV5C1Pjq1gtKsnpsu1twNZ2NmwasgZcg1Mu3ujerclRejRA5pl3H4KQBe+AFlr7PLf0jjs6vcgC5HcibtLWLBgD+4lKAul0z9316nY9bb5dtvAmEPY7NrgGAXwFeAtNigxqNtW2ar8/rPCwUuTuwlw4mswYAfgR8Cbq2ethCT1jVwq/jdLw+t3oe/t496EvMsmkA4K8AvgRdW02goF90lfJpfjRNiqit3mu//n/1eP7eXcinYpdBAwBfCfyUCNifD+zMMQV4gCczMdIAwBsFO7NzcW11mRbAAzwOb6QBgDcKNi5Y54KZ2wngAR6HN9IAwBsFO7NzcW112QvAAzwOb6QBgDcKNi5Y54KZ2wngAR6HN9IAwBsFO7NzcW112QvAAzwOb6QBgDcKNi5Y54KZ2wngAR6HN9IAwBsFO7NzcW112QvAAzwOb6QBgDcKNi5Y54KZ2wngAR6HN9IAwBsFO7NzcW112QvAAzwOb6QBgDcKNi5Y54KZ2wngAR6HN9IAwBsFO7NzcW112QvAAzwOb6QBgDcKNi5Y54KZ2wngAR6HN9IAwBsFO7NzcW112QvAAzwOb6QBgDcKNi5Y54KZ26kJ8CqEF22ABmJo4HB/b6h53dK/lz/cflRzMMfUNSrtRDtF1QDAV/aMUQNIvehcNtEAwAN8VSq4iag4Nm4nBPAAD/BGGgB4o2DjvHGdt1VsAB7gcXgjDQC8UbBbuQjlxM0kAB7gcXgjDQC8UbBx3rjO2yo2AA/wOLyRBv4H/fhzYZDvMk0AAAAASUVORK5CYII=;sketch=1;" parent="F6cBWDgfHgXO3scEinzD-1" vertex="1">
          <mxGeometry x="775" y="-617" width="27" height="27" as="geometry" />
        </mxCell>
        <mxCell id="F6cBWDgfHgXO3scEinzD-30" value="init()" style="text;html=1;strokeColor=none;fillColor=none;align=center;verticalAlign=middle;whiteSpace=wrap;rounded=0;sketch=1;fontSize=12;fontColor=#000000;" parent="F6cBWDgfHgXO3scEinzD-1" vertex="1">
          <mxGeometry x="760" y="-690" width="40" height="20" as="geometry" />
        </mxCell>
      </root>
    </mxGraphModel>
  </diagram>
  <diagram id="ijaekLdhGV641WOJHftD" name="Page-3">
    <mxGraphModel dx="815" dy="1581" grid="1" gridSize="10" guides="1" tooltips="1" connect="1" arrows="1" fold="1" page="1" pageScale="1" pageWidth="827" pageHeight="1169" math="0" shadow="0">
      <root>
        <mxCell id="WB1cm0UR35racSHaQFcc-0" />
        <mxCell id="WB1cm0UR35racSHaQFcc-1" parent="WB1cm0UR35racSHaQFcc-0" />
        <mxCell id="UYcf_hGyEguwvLY7xlVi-33" value="" style="whiteSpace=wrap;html=1;fillColor=none;sketch=1;" vertex="1" parent="WB1cm0UR35racSHaQFcc-1">
          <mxGeometry x="570" y="-1127.5" width="140" height="205" as="geometry" />
        </mxCell>
        <mxCell id="UYcf_hGyEguwvLY7xlVi-42" value="View V3" style="whiteSpace=wrap;html=1;fontColor=#333333;fillStyle=solid;fontStyle=1;strokeColor=#CC0066;fillColor=#FFCCE6;sketch=1;" vertex="1" parent="WB1cm0UR35racSHaQFcc-1">
          <mxGeometry x="580" y="-992.5" width="120" height="60" as="geometry" />
        </mxCell>
        <mxCell id="UYcf_hGyEguwvLY7xlVi-15" value="" style="whiteSpace=wrap;html=1;fillColor=none;sketch=1;" vertex="1" parent="WB1cm0UR35racSHaQFcc-1">
          <mxGeometry x="630" y="-800.5" width="140" height="205" as="geometry" />
        </mxCell>
        <mxCell id="UYcf_hGyEguwvLY7xlVi-28" value="Model M1" style="whiteSpace=wrap;html=1;fillColor=#f8cecc;strokeColor=#b85450;fillStyle=zigzag;fontColor=#990000;fontStyle=1;sketch=1;" vertex="1" parent="WB1cm0UR35racSHaQFcc-1">
          <mxGeometry x="640" y="-783" width="120" height="60" as="geometry" />
        </mxCell>
        <mxCell id="WB1cm0UR35racSHaQFcc-11" style="edgeStyle=none;orthogonalLoop=1;jettySize=auto;html=1;fontSize=12;fontColor=#000000;exitX=0.734;exitY=0.884;exitDx=0;exitDy=0;exitPerimeter=0;startArrow=none;startFill=0;sketch=1;entryX=0;entryY=0.5;entryDx=0;entryDy=0;" parent="WB1cm0UR35racSHaQFcc-1" source="WB1cm0UR35racSHaQFcc-13" target="UYcf_hGyEguwvLY7xlVi-28" edge="1">
          <mxGeometry relative="1" as="geometry">
            <mxPoint x="690" y="-816" as="targetPoint" />
          </mxGeometry>
        </mxCell>
        <mxCell id="WB1cm0UR35racSHaQFcc-12" style="edgeStyle=none;orthogonalLoop=1;jettySize=auto;html=1;entryX=0;entryY=0.5;entryDx=0;entryDy=0;fontSize=12;fontColor=#000000;startArrow=none;startFill=0;sketch=1;exitX=0.473;exitY=0.094;exitDx=0;exitDy=0;exitPerimeter=0;" parent="WB1cm0UR35racSHaQFcc-1" target="UYcf_hGyEguwvLY7xlVi-34" edge="1" source="WB1cm0UR35racSHaQFcc-13">
          <mxGeometry relative="1" as="geometry">
            <mxPoint x="370" y="-960" as="sourcePoint" />
            <mxPoint x="590" y="-1089" as="targetPoint" />
          </mxGeometry>
        </mxCell>
        <mxCell id="WB1cm0UR35racSHaQFcc-13" value="Reflector" style="ellipse;shape=cloud;whiteSpace=wrap;html=1;fontSize=21;strokeColor=#6c8ebf;fillColor=#CCFFFF;fontColor=#0066CC;sketch=1;" parent="WB1cm0UR35racSHaQFcc-1" vertex="1">
          <mxGeometry x="310" y="-920" width="326" height="130" as="geometry" />
        </mxCell>
        <mxCell id="WB1cm0UR35racSHaQFcc-17" style="edgeStyle=none;orthogonalLoop=1;jettySize=auto;html=1;fontSize=12;fontColor=#000000;exitX=0;exitY=0.5;exitDx=0;exitDy=0;startArrow=none;startFill=0;sketch=1;entryX=0.626;entryY=0.953;entryDx=0;entryDy=0;entryPerimeter=0;" parent="WB1cm0UR35racSHaQFcc-1" source="UYcf_hGyEguwvLY7xlVi-30" target="WB1cm0UR35racSHaQFcc-13" edge="1">
          <mxGeometry relative="1" as="geometry">
            <mxPoint x="680" y="-620" as="sourcePoint" />
          </mxGeometry>
        </mxCell>
        <mxCell id="WB1cm0UR35racSHaQFcc-18" value="Client C2" style="text;html=1;strokeColor=none;fillColor=none;align=center;verticalAlign=middle;whiteSpace=wrap;fontStyle=1;sketch=1;" parent="WB1cm0UR35racSHaQFcc-1" vertex="1">
          <mxGeometry x="665" y="-595.5" width="70" height="20" as="geometry" />
        </mxCell>
        <mxCell id="WB1cm0UR35racSHaQFcc-20" value="" style="outlineConnect=0;dashed=0;verticalLabelPosition=bottom;verticalAlign=top;align=center;html=1;fontSize=12;fontStyle=0;aspect=fixed;pointerEvents=1;shape=mxgraph.aws4.user;fillColor=#333333;strokeWidth=1;sketch=1;" parent="WB1cm0UR35racSHaQFcc-1" vertex="1">
          <mxGeometry x="681" y="-575.5" width="38" height="38" as="geometry" />
        </mxCell>
        <mxCell id="WB1cm0UR35racSHaQFcc-22" value="publish(&quot;rollDice&quot;)" style="text;html=1;strokeColor=none;fillColor=none;align=center;verticalAlign=middle;whiteSpace=wrap;fontSize=12;rotation=52;sketch=1;" parent="WB1cm0UR35racSHaQFcc-1" vertex="1">
          <mxGeometry x="515" y="-723" width="106" height="20" as="geometry" />
        </mxCell>
        <mxCell id="WB1cm0UR35racSHaQFcc-23" value="subscribe&lt;br&gt;(&quot;rollDice&quot;)" style="text;html=1;strokeColor=none;fillColor=none;align=center;verticalAlign=middle;whiteSpace=wrap;fontSize=12;rotation=29;sketch=1;" parent="WB1cm0UR35racSHaQFcc-1" vertex="1">
          <mxGeometry x="571.69" y="-806.83" width="64.31" height="30.83" as="geometry" />
        </mxCell>
        <mxCell id="WB1cm0UR35racSHaQFcc-26" style="edgeStyle=none;orthogonalLoop=1;jettySize=auto;html=1;entryX=0.516;entryY=0.118;entryDx=0;entryDy=0;entryPerimeter=0;fontSize=12;fontColor=#000000;exitX=0;exitY=0.5;exitDx=0;exitDy=0;startArrow=none;startFill=0;sketch=1;" parent="WB1cm0UR35racSHaQFcc-1" source="UYcf_hGyEguwvLY7xlVi-42" target="WB1cm0UR35racSHaQFcc-13" edge="1">
          <mxGeometry relative="1" as="geometry">
            <mxPoint x="533.75" y="-893" as="targetPoint" />
            <mxPoint x="590" y="-1009" as="sourcePoint" />
          </mxGeometry>
        </mxCell>
        <mxCell id="WB1cm0UR35racSHaQFcc-28" value="Client C3" style="text;html=1;strokeColor=none;fillColor=none;align=center;verticalAlign=middle;whiteSpace=wrap;fontStyle=1;sketch=1;" parent="WB1cm0UR35racSHaQFcc-1" vertex="1">
          <mxGeometry x="605" y="-922.5" width="70" height="20" as="geometry" />
        </mxCell>
        <mxCell id="WB1cm0UR35racSHaQFcc-30" value="" style="outlineConnect=0;dashed=0;verticalLabelPosition=bottom;verticalAlign=top;align=center;html=1;fontSize=12;fontStyle=0;aspect=fixed;pointerEvents=1;shape=mxgraph.aws4.user;fillColor=#333333;strokeWidth=1;sketch=1;" parent="WB1cm0UR35racSHaQFcc-1" vertex="1">
          <mxGeometry x="621" y="-902.5" width="38" height="38" as="geometry" />
        </mxCell>
        <mxCell id="WB1cm0UR35racSHaQFcc-31" value="publish&lt;br&gt;(&quot;rollDice&quot;)" style="text;html=1;strokeColor=none;fillColor=none;align=center;verticalAlign=middle;whiteSpace=wrap;fontSize=12;rotation=331;sketch=1;" parent="WB1cm0UR35racSHaQFcc-1" vertex="1">
          <mxGeometry x="507.92" y="-936.7800000000001" width="63.77" height="33.56" as="geometry" />
        </mxCell>
        <mxCell id="WB1cm0UR35racSHaQFcc-32" value="subscribe(&quot;rollDice&quot;)" style="text;html=1;strokeColor=none;fillColor=none;align=center;verticalAlign=middle;whiteSpace=wrap;fontSize=12;rotation=304;sketch=1;" parent="WB1cm0UR35racSHaQFcc-1" vertex="1">
          <mxGeometry x="450" y="-994" width="106" height="20" as="geometry" />
        </mxCell>
        <mxCell id="WB1cm0UR35racSHaQFcc-37" style="edgeStyle=none;orthogonalLoop=1;jettySize=auto;html=1;exitX=0.5;exitY=1;exitDx=0;exitDy=0;fontSize=12;fontColor=#000000;sketch=1;" parent="WB1cm0UR35racSHaQFcc-1" edge="1">
          <mxGeometry relative="1" as="geometry">
            <mxPoint x="608.7462562898772" y="-746.1164542430624" as="sourcePoint" />
            <mxPoint x="608.7462562898772" y="-746.1164542430624" as="targetPoint" />
          </mxGeometry>
        </mxCell>
        <mxCell id="UYcf_hGyEguwvLY7xlVi-0" value="" style="whiteSpace=wrap;html=1;fillColor=none;sketch=1;" vertex="1" parent="WB1cm0UR35racSHaQFcc-1">
          <mxGeometry x="80" y="-966" width="140" height="205" as="geometry" />
        </mxCell>
        <mxCell id="UYcf_hGyEguwvLY7xlVi-1" value="Model M1" style="whiteSpace=wrap;html=1;fillColor=#f8cecc;strokeColor=#b85450;fillStyle=zigzag;fontColor=#990000;fontStyle=1;sketch=1;" vertex="1" parent="WB1cm0UR35racSHaQFcc-1">
          <mxGeometry x="90" y="-950" width="120" height="60" as="geometry" />
        </mxCell>
        <mxCell id="UYcf_hGyEguwvLY7xlVi-2" value="Client C1" style="text;html=1;strokeColor=none;fillColor=none;align=center;verticalAlign=middle;whiteSpace=wrap;fontStyle=1;sketch=1;" vertex="1" parent="WB1cm0UR35racSHaQFcc-1">
          <mxGeometry x="115" y="-760" width="70" height="20" as="geometry" />
        </mxCell>
        <mxCell id="UYcf_hGyEguwvLY7xlVi-3" value="Session XYZ" style="text;html=1;align=center;verticalAlign=middle;whiteSpace=wrap;fontSize=14;fillColor=#ffffff;fontStyle=1;sketch=0;" vertex="1" parent="WB1cm0UR35racSHaQFcc-1">
          <mxGeometry x="120" y="-976" width="90" height="20" as="geometry" />
        </mxCell>
        <mxCell id="UYcf_hGyEguwvLY7xlVi-4" value="" style="outlineConnect=0;dashed=0;verticalLabelPosition=bottom;verticalAlign=top;align=center;html=1;fontSize=12;fontStyle=0;aspect=fixed;pointerEvents=1;shape=mxgraph.aws4.user;fillColor=#333333;strokeWidth=1;sketch=1;" vertex="1" parent="WB1cm0UR35racSHaQFcc-1">
          <mxGeometry x="131" y="-740" width="38" height="38" as="geometry" />
        </mxCell>
        <mxCell id="UYcf_hGyEguwvLY7xlVi-5" style="orthogonalLoop=1;jettySize=auto;html=1;entryX=0.101;entryY=0.664;entryDx=0;entryDy=0;entryPerimeter=0;fontColor=#990000;startArrow=none;startFill=0;sketch=1;" edge="1" parent="WB1cm0UR35racSHaQFcc-1">
          <mxGeometry relative="1" as="geometry">
            <mxPoint x="210" y="-805.8997924696117" as="sourcePoint" />
            <mxPoint x="342.92599999999993" y="-833.68" as="targetPoint" />
          </mxGeometry>
        </mxCell>
        <mxCell id="UYcf_hGyEguwvLY7xlVi-6" style="edgeStyle=none;orthogonalLoop=1;jettySize=auto;html=1;entryX=1;entryY=0.5;entryDx=0;entryDy=0;fontSize=12;fontColor=#000000;exitX=0.07;exitY=0.4;exitDx=0;exitDy=0;exitPerimeter=0;startArrow=none;startFill=0;sketch=1;" edge="1" parent="WB1cm0UR35racSHaQFcc-1" target="UYcf_hGyEguwvLY7xlVi-1">
          <mxGeometry relative="1" as="geometry">
            <mxPoint x="332.81999999999994" y="-868" as="sourcePoint" />
            <mxPoint x="210" y="-880" as="targetPoint" />
          </mxGeometry>
        </mxCell>
        <mxCell id="UYcf_hGyEguwvLY7xlVi-7" value="publish(&quot;rollDice&quot;)" style="text;html=1;strokeColor=none;fillColor=none;align=center;verticalAlign=middle;whiteSpace=wrap;fontSize=12;rotation=348;sketch=1;" vertex="1" parent="WB1cm0UR35racSHaQFcc-1">
          <mxGeometry x="230" y="-821" width="106" height="20" as="geometry" />
        </mxCell>
        <mxCell id="UYcf_hGyEguwvLY7xlVi-8" value="subscribe(&quot;rollDice&quot;)" style="text;html=1;strokeColor=none;fillColor=none;align=center;verticalAlign=middle;whiteSpace=wrap;fontSize=12;rotation=23;sketch=1;" vertex="1" parent="WB1cm0UR35racSHaQFcc-1">
          <mxGeometry x="225" y="-912" width="106" height="20" as="geometry" />
        </mxCell>
        <mxCell id="UYcf_hGyEguwvLY7xlVi-9" value="View V1" style="whiteSpace=wrap;html=1;fontColor=#333333;fillStyle=solid;fontStyle=1;fillColor=#B3FF66;strokeColor=#66FF66;sketch=1;" vertex="1" parent="WB1cm0UR35racSHaQFcc-1">
          <mxGeometry x="90" y="-833" width="120" height="60" as="geometry" />
        </mxCell>
        <mxCell id="UYcf_hGyEguwvLY7xlVi-10" value="" style="shape=image;verticalLabelPosition=bottom;labelBackgroundColor=#ffffff;verticalAlign=top;aspect=fixed;imageAspect=0;image=data:image/png,iVBORw0KGgoAAAANSUhEUgAAAPwAAAD8CAYAAABTq8lnAAAN8UlEQVR4Ae2dwW4URxRF+RYsdkj5Fb6A3yALpLDPB0RykCKhZJ0NK/YOyoIVii2BvEEmQrZiWUk2YUFHF1R4aKbtGk931Zt3D9KoPU1PV3W9e+q+ma6uunWLf7QALeDVAi9/uP2Il18bHP14+zvi7hX3jz2bgn64vzfwog3QQG4NADwdHR29kQYA3ijYuHdu966JL8ADPA5vpAGANwp2jQNwTO4sAOABHoc30gDAGwUb987t3jXxBXiAx+GNNADwRsGucQCOyZ0FADzA4/BGGgB4o2Dj3rnduya+NwL+9ODbgRdtgAbiaKAGdh1zY+CHi5OBF22ABvprQB0vwNMh0SGbaADgTQKNu/Z31wgxAHiAx92NNADwRsGO4DDUoW+mAfAAj8MbaQDgjYKNu/Z11wjtD/AAj8MbaQDgjYIdwWGoQ98sA+ABHoc30gDAGwUbd+3rrhHaH+ABHoc30gDAGwU7gsNQh75ZBsADPA5vpAGANwo27trXXSO0P8ADPA5vpAGANwp2BIehDn2zDIAHeBzeSAMAbxRs3LWvu0Zof4AHeBzeSAMAbxTsCA5DHfpmGQAP8Di8kQYA3ijYuGtfd43Q/gAP8Di8kQYA3ijYERyGOvTNMgAe4HF4Iw0AvFGwcde+7hqh/QEe4HF4Iw0AvFGwIzgMdeibZQA8wOPwRhoAeKNg46593TVC+wM8wOPwRhoAeKNgR3AY6tA3ywB4gMfhjTQA8EbBxl37umuE9gf4SuD/+/P34Z+jX4bzF98PZ88fDqcHDz5u9V779f8RAkodloM6gwYA/grg//7jp+Hts/vD65+/GQ7396596Tgdr88B3nLgtWzbbBoA+BHwH/46Hs5+e1gN+VRHIPh1ng/nx8A/auOWwN6krMwaAPgVMSo9f/Xk7rVOPgX5uv06n857E+HxmfZZQnYNAPzFyfD+3YvhzdN7s4I+hl/nVzlA3B7imjZ30YA98P++/nXr9H0M99R7pfkqr0aAHNOuY3DSgDXw+nX96PGdRZ19DL/KU7kA3Q7oq9raTQO2wKtXbw17gV/l4vT9gXfUgCXw+r5We6utQDr3VuXznb4f9K4asAR+6R/oajsH1eOqdJP/W65DcNWAHfC67VILZIvjuGW3HNRTHaazBqyA1yCYue+zb9spqD4a6DElTvbP2yG4a8AKeI182xbQJT6vegH2vGBPtae7BqyA7/1D3VRnoXpNCZT983YE7hqwAV4PQUwBF2E/D9zMC/a6jhINnAw2wOsptghgT9VB9VsnUvbN1xGgASPgo6ZypQMgrZ8P7KlOEg2YAK+JCwpYkbdMorEc9GjgU9tapPQaLx0Z9FI3xtgvBzwaMAI+2kCLAvh4yyCc5YBHA0bAaw66MVwR36ueU98/2b9dZ4AGjIDXhJMRAR/XSfUE7O3Anmo/NGAEPL37MhBNwRVxPxowAp7vbwCPBoyA5xdagEcDRsBzDxbg0YAR8PpOySgroEcDJiPtBDzjqAEeDRgBz5NSAI8GjICPnNbz4Ey7zihqWt9KAxZj6ct9YffZTko7OG/dNWAFvOaOCzmnHQtONhth6K4BK+DlbNEGYKg+zo7b49qdNWAHvATmOid5D7iilumqAUvgXVcdiQpfj3q5asASeAnMcV2xHmBFLtNRA7bAS4gaX916QUlWj213C66ms3HTgDXwEoR6+Vb3ZlWOyqsRIse06xicNGAPvMDS97mlf8TR+VUOILcDeZO2dtEAwF9cClC3a+a+T6/zcevtso03gbDHsdk1APArwEtgWmxQo7G2TfP1eZ2HhSJ3B/bSwWTWAMCPgC9B11YPW+gJq1r4dZyO1+dWz8Pfuwd9iVk2DQD8FcCXoGurCRT0i65SPs2PpkkRtdV77df/rx7P37sL+VTsMmgA4CuBnxIB+/OBnTmmAA/wZCZGGgB4o2Bndi6urS7TAniAx+GNNADwRsHGBetcMHM7ATzA4/BGGgB4o2Bndi6urS57AXiAx+GNNADwRsHGBetcMHM7ATzA4/BGGgB4o2Bndi6urS57AXiAx+GNNADwRsHGBetcMHM7ATzA4/BGGgB4o2Bv4lwZHgXd5HpdjgV4gP/s8Nkme3CBeJPrBHhz4DUF16xTerFO3ucOdBMQWx0L8MbAZ5+wsRVEu1QOwBsC7zIl8y6B2KquAG8GvNOiC60g2qVyAN4IeLdllXYJxFZ1BXgT4OXsrdfRO9zfG/RSuSyxFWPQD8AbAK/v7LVz6xdI596qfJba6g89wBsAv/S6ebWdg+rRKnWlnPWdC8AnB1633mqBbHGc6gOM62Fs0S4Anxh4rZE29+KY23YKqg/r7QE8vf4CHY9G0G0L6BKfV71auBllfN2x4PALgBZFaL1/qJvqLFSvKG3kVg+ATwq8HoSZAi7CflbY/dp9W3Q+AJ8UeC1bHQHsqTqofi0EThlfdiwAnxT4qOl86QBI678EsVXHBPAJgdfkFQWsyFvVs5XQKedTBwPwCYHXmPnIoJe6qZ6A2NbpAT4h8NEG2xTAx1sG4bSFXZ0rwCcE/ux5zPvvY+BVTxy+LfQAnxD404MHO5HSq54AD/CIYMtOCIdvC9EudVo4/JZwRQw23+EBfkqXAJ8QeH6lB3iATwj2VFC5Dw/wU9rA4ZN2BIy0A/p10AN8UuAZSw/wAJ8U7nWB5Wk5gF+nCxw+cScQNa3nwZl+nRHAJwaeGW/6gbXOXSPsA/jEwGvuuJBz2rHgZLfBZQCfGHg5SrRBODww0zfrAPjkwAt65qXvC1mEVL7UAeANgGflGYAHeAPQS5C1ZW05oJcOcHgj8Fk9FugB3gj44vSt7s+rHFaNjdXJALwZ8IJe3+mX/iFP52e12Fiwk9Ibwq6gl5dukc19n17n49bbZRuXto6yxeFXAIgSlJb10IKTGpG3bZqvz+s8LBQZF3bpCuDNgV/tXPTAjZ6yq4Vfx+l4lo2KDflqjAEe4D+n+KvC0CQa+lVf6bnmyNOEk9rqvfaziMTuQL4aV4AH+LXAr4qEv3cT7nVxA3iAB3gjDQC8UbDX9fjsy+PeNbEEeIDH4Y00APBGwa5xAI7J7fgAD/A4vJEGAN4o2Lh3bveuiS/AAzwOb6QBgDcKdo0DcEzuLADgAR6HN9IAwBsFG/fO7d418QV4gMfhjTQA8EbBrnEAjsmdBQA8wOPwRhoAeKNg49653bsmvgAP8Di8kQYA3ijYNQ7AMbmzAIAHeBzeSAMAbxRs3Du3e9fEF+ABHoc30gDAVwabSR1xxwwaAPgrgGfaZiDPpgGAHwGvhRRmXZjh/JiUedTGNd81ex6TWQMAvyJGll7C0bNrAOBZXJEMxEgD9sBrOePapZUO9/eGbV4qh+WT42URThqwBl5LJh09vrMVxJt2ACpP5fb8jkrZl52OmwZsgVev3hr20jmoXJz+ErpeHZCjBiyBf//uRbM0vkA+3iq9Vz16id29XFcNWAL/5um9pmn8GPbyXvVwB6/X9btqwA543XYpwEXYqj69RO9arrMGrID/cH48vHpyNxTwqo8GerjC1/q63TVgBbxG0EVw9XEdVK/Wwnctz10DVsC3ut8+Bvq696qXK4Ctr9tdAzbA6yGI68Dr+f+qX2vxu5WHBk4GG+DfPrsfGnjVzw3A1teLBoyAj5rKlayCtH75gThowAR4TVxQwIq8VT1bu55LeWjgU4dqkdJrvHRk0EvdGGO/nMujASPgow20KICPtwzCWQ54NGAE/NnzmPffx8Crni4pduvrRANGwJ8ePNiJlF71bA2CS3lowAh4evflUuVd6TDQgBHwfH8DeDRgBDy/0AI8GjACnnuwAI8GjIDX90xGWQE9GjAZaSfgGUcN8GjACHielAJ4NGAEfOS0ngdn2nVGUdP6VhqwGEtf7hW7z3ZS2sF5664BK+A1d1zIOe1YcLLZCEN3DVgBL2eLNgBD9XF23B7X7qwBO+AlMNc5yXvAFbVMVw1YAu+66khU+HrUy1UDlsBLYI7rivUAK3KZjhqwBV5C1Pjq1gtKsnpsu1twNZ2NmwasgZcg1Mu3ujerclRejRA5pl3H4KQBe+AFlr7PLf0jjs6vcgC5HcibtLWLBgD+4lKAul0z9316nY9bb5dtvAmEPY7NrgGAXwFeAtNigxqNtW2ar8/rPCwUuTuwlw4mswYAfgR8Cbq2ethCT1jVwq/jdLw+t3oe/t496EvMsmkA4K8AvgRdW02goF90lfJpfjRNiqit3mu//n/1eP7eXcinYpdBAwBfCfyUCNifD+zMMQV4gCczMdIAwBsFO7NzcW11mRbAAzwOb6QBgDcKNi5Y54KZ2wngAR6HN9IAwBsFO7NzcW112QvAAzwOb6QBgDcKNi5Y54KZ2wngAR6HN9IAwBsFO7NzcW112QvAAzwOb6QBgDcKNi5Y54KZ2wngAR6HN9IAwBsFO7NzcW112QvAAzwOb6QBgDcKNi5Y54KZ2wngAR6HN9IAwBsFO7NzcW112QvAAzwOb6QBgDcKNi5Y54KZ2wngAR6HN9IAwBsFO7NzcW112QvAAzwOb6QBgDcKNi5Y54KZ2wngAR6HN9IAwBsFO7NzcW112QvAAzwOb6QBgDcKNi5Y54KZ26kJ8CqEF22ABmJo4HB/b6h53dK/lz/cflRzMMfUNSrtRDtF1QDAV/aMUQNIvehcNtEAwAN8VSq4iag4Nm4nBPAAD/BGGgB4o2DjvHGdt1VsAB7gcXgjDQC8UbBbuQjlxM0kAB7gcXgjDQC8UbBx3rjO2yo2AA/wOLyRBv4H/fhzYZDvMk0AAAAASUVORK5CYII=;sketch=1;" vertex="1" parent="WB1cm0UR35racSHaQFcc-1">
          <mxGeometry x="183" y="-799" width="27" height="27" as="geometry" />
        </mxCell>
        <mxCell id="UYcf_hGyEguwvLY7xlVi-11" value="init()" style="text;html=1;strokeColor=none;fillColor=none;align=center;verticalAlign=middle;whiteSpace=wrap;rounded=0;sketch=1;fontSize=12;fontColor=#000000;fontStyle=1" vertex="1" parent="WB1cm0UR35racSHaQFcc-1">
          <mxGeometry x="170" y="-910" width="40" height="20" as="geometry" />
        </mxCell>
        <mxCell id="UYcf_hGyEguwvLY7xlVi-12" style="orthogonalLoop=1;jettySize=auto;html=1;fontColor=#990000;startArrow=classic;startFill=1;sketch=1;entryX=0.5;entryY=1;entryDx=0;entryDy=0;exitX=0.5;exitY=0;exitDx=0;exitDy=0;" edge="1" parent="WB1cm0UR35racSHaQFcc-1" source="UYcf_hGyEguwvLY7xlVi-9" target="UYcf_hGyEguwvLY7xlVi-1">
          <mxGeometry relative="1" as="geometry">
            <mxPoint x="220" y="-795.8997924696117" as="sourcePoint" />
            <mxPoint x="353" y="-740" as="targetPoint" />
          </mxGeometry>
        </mxCell>
        <mxCell id="UYcf_hGyEguwvLY7xlVi-13" value="publish&lt;br&gt;(&quot;show&quot;)" style="text;html=1;strokeColor=none;fillColor=none;align=center;verticalAlign=middle;whiteSpace=wrap;fontSize=9;rotation=-90;sketch=1;" vertex="1" parent="WB1cm0UR35racSHaQFcc-1">
          <mxGeometry x="115" y="-870" width="40" height="20" as="geometry" />
        </mxCell>
        <mxCell id="UYcf_hGyEguwvLY7xlVi-14" value="subscribe&lt;br&gt;(&quot;show&quot;)" style="text;html=1;strokeColor=none;fillColor=none;align=center;verticalAlign=middle;whiteSpace=wrap;fontSize=9;rotation=90;sketch=1;" vertex="1" parent="WB1cm0UR35racSHaQFcc-1">
          <mxGeometry x="140" y="-870" width="50" height="22" as="geometry" />
        </mxCell>
        <mxCell id="UYcf_hGyEguwvLY7xlVi-18" value="Session XYZ" style="text;html=1;align=center;verticalAlign=middle;whiteSpace=wrap;fontSize=14;fillColor=#ffffff;fontStyle=1;sketch=0;" vertex="1" parent="WB1cm0UR35racSHaQFcc-1">
          <mxGeometry x="670" y="-810" width="90" height="20" as="geometry" />
        </mxCell>
        <mxCell id="UYcf_hGyEguwvLY7xlVi-21" value="init()" style="text;html=1;strokeColor=none;fillColor=none;align=center;verticalAlign=middle;whiteSpace=wrap;rounded=0;sketch=1;fontSize=12;fontColor=#000000;fontStyle=1" vertex="1" parent="WB1cm0UR35racSHaQFcc-1">
          <mxGeometry x="720" y="-743" width="40" height="20" as="geometry" />
        </mxCell>
        <mxCell id="UYcf_hGyEguwvLY7xlVi-22" style="orthogonalLoop=1;jettySize=auto;html=1;fontColor=#990000;startArrow=classic;startFill=1;sketch=1;entryX=0.5;entryY=1;entryDx=0;entryDy=0;exitX=0.5;exitY=0;exitDx=0;exitDy=0;" edge="1" parent="WB1cm0UR35racSHaQFcc-1">
          <mxGeometry relative="1" as="geometry">
            <mxPoint x="700" y="-666" as="sourcePoint" />
            <mxPoint x="700" y="-723" as="targetPoint" />
          </mxGeometry>
        </mxCell>
        <mxCell id="UYcf_hGyEguwvLY7xlVi-23" value="publish&lt;br&gt;(&quot;show&quot;)" style="text;html=1;strokeColor=none;fillColor=none;align=center;verticalAlign=middle;whiteSpace=wrap;fontSize=9;rotation=-90;sketch=1;" vertex="1" parent="WB1cm0UR35racSHaQFcc-1">
          <mxGeometry x="665" y="-703" width="40" height="20" as="geometry" />
        </mxCell>
        <mxCell id="UYcf_hGyEguwvLY7xlVi-24" value="subscribe&lt;br&gt;(&quot;show&quot;)" style="text;html=1;strokeColor=none;fillColor=none;align=center;verticalAlign=middle;whiteSpace=wrap;fontSize=9;rotation=90;sketch=1;" vertex="1" parent="WB1cm0UR35racSHaQFcc-1">
          <mxGeometry x="690" y="-703" width="50" height="22" as="geometry" />
        </mxCell>
        <mxCell id="UYcf_hGyEguwvLY7xlVi-30" value="View V2" style="whiteSpace=wrap;html=1;fontColor=#333333;fillStyle=solid;fontStyle=1;strokeColor=#6666FF;fillColor=#CCCCFF;sketch=1;" vertex="1" parent="WB1cm0UR35racSHaQFcc-1">
          <mxGeometry x="640" y="-665.5" width="120" height="60" as="geometry" />
        </mxCell>
        <mxCell id="UYcf_hGyEguwvLY7xlVi-31" value="" style="shape=image;verticalLabelPosition=bottom;labelBackgroundColor=#ffffff;verticalAlign=top;aspect=fixed;imageAspect=0;image=data:image/png,iVBORw0KGgoAAAANSUhEUgAAAPwAAAD8CAYAAABTq8lnAAAN8UlEQVR4Ae2dwW4URxRF+RYsdkj5Fb6A3yALpLDPB0RykCKhZJ0NK/YOyoIVii2BvEEmQrZiWUk2YUFHF1R4aKbtGk931Zt3D9KoPU1PV3W9e+q+ma6uunWLf7QALeDVAi9/uP2Il18bHP14+zvi7hX3jz2bgn64vzfwog3QQG4NADwdHR29kQYA3ijYuHdu966JL8ADPA5vpAGANwp2jQNwTO4sAOABHoc30gDAGwUb987t3jXxBXiAx+GNNADwRsGucQCOyZ0FADzA4/BGGgB4o2Dj3rnduya+NwL+9ODbgRdtgAbiaKAGdh1zY+CHi5OBF22ABvprQB0vwNMh0SGbaADgTQKNu/Z31wgxAHiAx92NNADwRsGO4DDUoW+mAfAAj8MbaQDgjYKNu/Z11wjtD/AAj8MbaQDgjYIdwWGoQ98sA+ABHoc30gDAGwUbd+3rrhHaH+ABHoc30gDAGwU7gsNQh75ZBsADPA5vpAGANwo27trXXSO0P8ADPA5vpAGANwp2BIehDn2zDIAHeBzeSAMAbxRs3LWvu0Zof4AHeBzeSAMAbxTsCA5DHfpmGQAP8Di8kQYA3ijYuGtfd43Q/gAP8Di8kQYA3ijYERyGOvTNMgAe4HF4Iw0AvFGwcde+7hqh/QEe4HF4Iw0AvFGwIzgMdeibZQA8wOPwRhoAeKNg46593TVC+wM8wOPwRhoAeKNgR3AY6tA3ywB4gMfhjTQA8EbBxl37umuE9gf4SuD/+/P34Z+jX4bzF98PZ88fDqcHDz5u9V779f8RAkodloM6gwYA/grg//7jp+Hts/vD65+/GQ7396596Tgdr88B3nLgtWzbbBoA+BHwH/46Hs5+e1gN+VRHIPh1ng/nx8A/auOWwN6krMwaAPgVMSo9f/Xk7rVOPgX5uv06n857E+HxmfZZQnYNAPzFyfD+3YvhzdN7s4I+hl/nVzlA3B7imjZ30YA98P++/nXr9H0M99R7pfkqr0aAHNOuY3DSgDXw+nX96PGdRZ19DL/KU7kA3Q7oq9raTQO2wKtXbw17gV/l4vT9gXfUgCXw+r5We6utQDr3VuXznb4f9K4asAR+6R/oajsH1eOqdJP/W65DcNWAHfC67VILZIvjuGW3HNRTHaazBqyA1yCYue+zb9spqD4a6DElTvbP2yG4a8AKeI182xbQJT6vegH2vGBPtae7BqyA7/1D3VRnoXpNCZT983YE7hqwAV4PQUwBF2E/D9zMC/a6jhINnAw2wOsptghgT9VB9VsnUvbN1xGgASPgo6ZypQMgrZ8P7KlOEg2YAK+JCwpYkbdMorEc9GjgU9tapPQaLx0Z9FI3xtgvBzwaMAI+2kCLAvh4yyCc5YBHA0bAaw66MVwR36ueU98/2b9dZ4AGjIDXhJMRAR/XSfUE7O3Anmo/NGAEPL37MhBNwRVxPxowAp7vbwCPBoyA5xdagEcDRsBzDxbg0YAR8PpOySgroEcDJiPtBDzjqAEeDRgBz5NSAI8GjICPnNbz4Ey7zihqWt9KAxZj6ct9YffZTko7OG/dNWAFvOaOCzmnHQtONhth6K4BK+DlbNEGYKg+zo7b49qdNWAHvATmOid5D7iilumqAUvgXVcdiQpfj3q5asASeAnMcV2xHmBFLtNRA7bAS4gaX916QUlWj213C66ms3HTgDXwEoR6+Vb3ZlWOyqsRIse06xicNGAPvMDS97mlf8TR+VUOILcDeZO2dtEAwF9cClC3a+a+T6/zcevtso03gbDHsdk1APArwEtgWmxQo7G2TfP1eZ2HhSJ3B/bSwWTWAMCPgC9B11YPW+gJq1r4dZyO1+dWz8Pfuwd9iVk2DQD8FcCXoGurCRT0i65SPs2PpkkRtdV77df/rx7P37sL+VTsMmgA4CuBnxIB+/OBnTmmAA/wZCZGGgB4o2Bndi6urS7TAniAx+GNNADwRsHGBetcMHM7ATzA4/BGGgB4o2Bndi6urS57AXiAx+GNNADwRsHGBetcMHM7ATzA4/BGGgB4o2Bndi6urS57AXiAx+GNNADwRsHGBetcMHM7ATzA4/BGGgB4o2Bv4lwZHgXd5HpdjgV4gP/s8Nkme3CBeJPrBHhz4DUF16xTerFO3ucOdBMQWx0L8MbAZ5+wsRVEu1QOwBsC7zIl8y6B2KquAG8GvNOiC60g2qVyAN4IeLdllXYJxFZ1BXgT4OXsrdfRO9zfG/RSuSyxFWPQD8AbAK/v7LVz6xdI596qfJba6g89wBsAv/S6ebWdg+rRKnWlnPWdC8AnB1633mqBbHGc6gOM62Fs0S4Anxh4rZE29+KY23YKqg/r7QE8vf4CHY9G0G0L6BKfV71auBllfN2x4PALgBZFaL1/qJvqLFSvKG3kVg+ATwq8HoSZAi7CflbY/dp9W3Q+AJ8UeC1bHQHsqTqofi0EThlfdiwAnxT4qOl86QBI678EsVXHBPAJgdfkFQWsyFvVs5XQKedTBwPwCYHXmPnIoJe6qZ6A2NbpAT4h8NEG2xTAx1sG4bSFXZ0rwCcE/ux5zPvvY+BVTxy+LfQAnxD404MHO5HSq54AD/CIYMtOCIdvC9EudVo4/JZwRQw23+EBfkqXAJ8QeH6lB3iATwj2VFC5Dw/wU9rA4ZN2BIy0A/p10AN8UuAZSw/wAJ8U7nWB5Wk5gF+nCxw+cScQNa3nwZl+nRHAJwaeGW/6gbXOXSPsA/jEwGvuuJBz2rHgZLfBZQCfGHg5SrRBODww0zfrAPjkwAt65qXvC1mEVL7UAeANgGflGYAHeAPQS5C1ZW05oJcOcHgj8Fk9FugB3gj44vSt7s+rHFaNjdXJALwZ8IJe3+mX/iFP52e12Fiwk9Ibwq6gl5dukc19n17n49bbZRuXto6yxeFXAIgSlJb10IKTGpG3bZqvz+s8LBQZF3bpCuDNgV/tXPTAjZ6yq4Vfx+l4lo2KDflqjAEe4D+n+KvC0CQa+lVf6bnmyNOEk9rqvfaziMTuQL4aV4AH+LXAr4qEv3cT7nVxA3iAB3gjDQC8UbDX9fjsy+PeNbEEeIDH4Y00APBGwa5xAI7J7fgAD/A4vJEGAN4o2Lh3bveuiS/AAzwOb6QBgDcKdo0DcEzuLADgAR6HN9IAwBsFG/fO7d418QV4gMfhjTQA8EbBrnEAjsmdBQA8wOPwRhoAeKNg49653bsmvgAP8Di8kQYA3ijYNQ7AMbmzAIAHeBzeSAMAbxRs3Du3e9fEF+ABHoc30gDAVwabSR1xxwwaAPgrgGfaZiDPpgGAHwGvhRRmXZjh/JiUedTGNd81ex6TWQMAvyJGll7C0bNrAOBZXJEMxEgD9sBrOePapZUO9/eGbV4qh+WT42URThqwBl5LJh09vrMVxJt2ACpP5fb8jkrZl52OmwZsgVev3hr20jmoXJz+ErpeHZCjBiyBf//uRbM0vkA+3iq9Vz16id29XFcNWAL/5um9pmn8GPbyXvVwB6/X9btqwA543XYpwEXYqj69RO9arrMGrID/cH48vHpyNxTwqo8GerjC1/q63TVgBbxG0EVw9XEdVK/Wwnctz10DVsC3ut8+Bvq696qXK4Ctr9tdAzbA6yGI68Dr+f+qX2vxu5WHBk4GG+DfPrsfGnjVzw3A1teLBoyAj5rKlayCtH75gThowAR4TVxQwIq8VT1bu55LeWjgU4dqkdJrvHRk0EvdGGO/nMujASPgow20KICPtwzCWQ54NGAE/NnzmPffx8Crni4pduvrRANGwJ8ePNiJlF71bA2CS3lowAh4evflUuVd6TDQgBHwfH8DeDRgBDy/0AI8GjACnnuwAI8GjIDX90xGWQE9GjAZaSfgGUcN8GjACHielAJ4NGAEfOS0ngdn2nVGUdP6VhqwGEtf7hW7z3ZS2sF5664BK+A1d1zIOe1YcLLZCEN3DVgBL2eLNgBD9XF23B7X7qwBO+AlMNc5yXvAFbVMVw1YAu+66khU+HrUy1UDlsBLYI7rivUAK3KZjhqwBV5C1Pjq1gtKsnpsu1twNZ2NmwasgZcg1Mu3ujerclRejRA5pl3H4KQBe+AFlr7PLf0jjs6vcgC5HcibtLWLBgD+4lKAul0z9316nY9bb5dtvAmEPY7NrgGAXwFeAtNigxqNtW2ar8/rPCwUuTuwlw4mswYAfgR8Cbq2ethCT1jVwq/jdLw+t3oe/t496EvMsmkA4K8AvgRdW02goF90lfJpfjRNiqit3mu//n/1eP7eXcinYpdBAwBfCfyUCNifD+zMMQV4gCczMdIAwBsFO7NzcW11mRbAAzwOb6QBgDcKNi5Y54KZ2wngAR6HN9IAwBsFO7NzcW112QvAAzwOb6QBgDcKNi5Y54KZ2wngAR6HN9IAwBsFO7NzcW112QvAAzwOb6QBgDcKNi5Y54KZ2wngAR6HN9IAwBsFO7NzcW112QvAAzwOb6QBgDcKNi5Y54KZ2wngAR6HN9IAwBsFO7NzcW112QvAAzwOb6QBgDcKNi5Y54KZ2wngAR6HN9IAwBsFO7NzcW112QvAAzwOb6QBgDcKNi5Y54KZ2wngAR6HN9IAwBsFO7NzcW112QvAAzwOb6QBgDcKNi5Y54KZ26kJ8CqEF22ABmJo4HB/b6h53dK/lz/cflRzMMfUNSrtRDtF1QDAV/aMUQNIvehcNtEAwAN8VSq4iag4Nm4nBPAAD/BGGgB4o2DjvHGdt1VsAB7gcXgjDQC8UbBbuQjlxM0kAB7gcXgjDQC8UbBx3rjO2yo2AA/wOLyRBv4H/fhzYZDvMk0AAAAASUVORK5CYII=;sketch=1;" vertex="1" parent="WB1cm0UR35racSHaQFcc-1">
          <mxGeometry x="733" y="-632.5" width="27" height="27" as="geometry" />
        </mxCell>
        <mxCell id="UYcf_hGyEguwvLY7xlVi-34" value="Model M1" style="whiteSpace=wrap;html=1;fillColor=#f8cecc;strokeColor=#b85450;fillStyle=zigzag;fontColor=#990000;fontStyle=1;sketch=1;" vertex="1" parent="WB1cm0UR35racSHaQFcc-1">
          <mxGeometry x="580" y="-1110" width="120" height="60" as="geometry" />
        </mxCell>
        <mxCell id="UYcf_hGyEguwvLY7xlVi-35" value="Session XYZ" style="text;html=1;align=center;verticalAlign=middle;whiteSpace=wrap;fontSize=14;fillColor=#ffffff;fontStyle=1;sketch=0;" vertex="1" parent="WB1cm0UR35racSHaQFcc-1">
          <mxGeometry x="610" y="-1137" width="90" height="20" as="geometry" />
        </mxCell>
        <mxCell id="UYcf_hGyEguwvLY7xlVi-36" value="init()" style="text;html=1;strokeColor=none;fillColor=none;align=center;verticalAlign=middle;whiteSpace=wrap;rounded=0;sketch=1;fontSize=12;fontColor=#000000;fontStyle=1" vertex="1" parent="WB1cm0UR35racSHaQFcc-1">
          <mxGeometry x="660" y="-1070" width="40" height="20" as="geometry" />
        </mxCell>
        <mxCell id="UYcf_hGyEguwvLY7xlVi-37" style="orthogonalLoop=1;jettySize=auto;html=1;fontColor=#990000;startArrow=classic;startFill=1;sketch=1;entryX=0.5;entryY=1;entryDx=0;entryDy=0;exitX=0.5;exitY=0;exitDx=0;exitDy=0;" edge="1" parent="WB1cm0UR35racSHaQFcc-1">
          <mxGeometry relative="1" as="geometry">
            <mxPoint x="640" y="-993" as="sourcePoint" />
            <mxPoint x="640" y="-1050" as="targetPoint" />
          </mxGeometry>
        </mxCell>
        <mxCell id="UYcf_hGyEguwvLY7xlVi-38" value="publish&lt;br&gt;(&quot;show&quot;)" style="text;html=1;strokeColor=none;fillColor=none;align=center;verticalAlign=middle;whiteSpace=wrap;fontSize=9;rotation=-90;sketch=1;" vertex="1" parent="WB1cm0UR35racSHaQFcc-1">
          <mxGeometry x="605" y="-1030" width="40" height="20" as="geometry" />
        </mxCell>
        <mxCell id="UYcf_hGyEguwvLY7xlVi-39" value="subscribe&lt;br&gt;(&quot;show&quot;)" style="text;html=1;strokeColor=none;fillColor=none;align=center;verticalAlign=middle;whiteSpace=wrap;fontSize=9;rotation=90;sketch=1;" vertex="1" parent="WB1cm0UR35racSHaQFcc-1">
          <mxGeometry x="630" y="-1030" width="50" height="22" as="geometry" />
        </mxCell>
        <mxCell id="UYcf_hGyEguwvLY7xlVi-41" value="" style="shape=image;verticalLabelPosition=bottom;labelBackgroundColor=#ffffff;verticalAlign=top;aspect=fixed;imageAspect=0;image=data:image/png,iVBORw0KGgoAAAANSUhEUgAAAPwAAAD8CAYAAABTq8lnAAAN8UlEQVR4Ae2dwW4URxRF+RYsdkj5Fb6A3yALpLDPB0RykCKhZJ0NK/YOyoIVii2BvEEmQrZiWUk2YUFHF1R4aKbtGk931Zt3D9KoPU1PV3W9e+q+ma6uunWLf7QALeDVAi9/uP2Il18bHP14+zvi7hX3jz2bgn64vzfwog3QQG4NADwdHR29kQYA3ijYuHdu966JL8ADPA5vpAGANwp2jQNwTO4sAOABHoc30gDAGwUb987t3jXxBXiAx+GNNADwRsGucQCOyZ0FADzA4/BGGgB4o2Dj3rnduya+NwL+9ODbgRdtgAbiaKAGdh1zY+CHi5OBF22ABvprQB0vwNMh0SGbaADgTQKNu/Z31wgxAHiAx92NNADwRsGO4DDUoW+mAfAAj8MbaQDgjYKNu/Z11wjtD/AAj8MbaQDgjYIdwWGoQ98sA+ABHoc30gDAGwUbd+3rrhHaH+ABHoc30gDAGwU7gsNQh75ZBsADPA5vpAGANwo27trXXSO0P8ADPA5vpAGANwp2BIehDn2zDIAHeBzeSAMAbxRs3LWvu0Zof4AHeBzeSAMAbxTsCA5DHfpmGQAP8Di8kQYA3ijYuGtfd43Q/gAP8Di8kQYA3ijYERyGOvTNMgAe4HF4Iw0AvFGwcde+7hqh/QEe4HF4Iw0AvFGwIzgMdeibZQA8wOPwRhoAeKNg46593TVC+wM8wOPwRhoAeKNgR3AY6tA3ywB4gMfhjTQA8EbBxl37umuE9gf4SuD/+/P34Z+jX4bzF98PZ88fDqcHDz5u9V779f8RAkodloM6gwYA/grg//7jp+Hts/vD65+/GQ7396596Tgdr88B3nLgtWzbbBoA+BHwH/46Hs5+e1gN+VRHIPh1ng/nx8A/auOWwN6krMwaAPgVMSo9f/Xk7rVOPgX5uv06n857E+HxmfZZQnYNAPzFyfD+3YvhzdN7s4I+hl/nVzlA3B7imjZ30YA98P++/nXr9H0M99R7pfkqr0aAHNOuY3DSgDXw+nX96PGdRZ19DL/KU7kA3Q7oq9raTQO2wKtXbw17gV/l4vT9gXfUgCXw+r5We6utQDr3VuXznb4f9K4asAR+6R/oajsH1eOqdJP/W65DcNWAHfC67VILZIvjuGW3HNRTHaazBqyA1yCYue+zb9spqD4a6DElTvbP2yG4a8AKeI182xbQJT6vegH2vGBPtae7BqyA7/1D3VRnoXpNCZT983YE7hqwAV4PQUwBF2E/D9zMC/a6jhINnAw2wOsptghgT9VB9VsnUvbN1xGgASPgo6ZypQMgrZ8P7KlOEg2YAK+JCwpYkbdMorEc9GjgU9tapPQaLx0Z9FI3xtgvBzwaMAI+2kCLAvh4yyCc5YBHA0bAaw66MVwR36ueU98/2b9dZ4AGjIDXhJMRAR/XSfUE7O3Anmo/NGAEPL37MhBNwRVxPxowAp7vbwCPBoyA5xdagEcDRsBzDxbg0YAR8PpOySgroEcDJiPtBDzjqAEeDRgBz5NSAI8GjICPnNbz4Ey7zihqWt9KAxZj6ct9YffZTko7OG/dNWAFvOaOCzmnHQtONhth6K4BK+DlbNEGYKg+zo7b49qdNWAHvATmOid5D7iilumqAUvgXVcdiQpfj3q5asASeAnMcV2xHmBFLtNRA7bAS4gaX916QUlWj213C66ms3HTgDXwEoR6+Vb3ZlWOyqsRIse06xicNGAPvMDS97mlf8TR+VUOILcDeZO2dtEAwF9cClC3a+a+T6/zcevtso03gbDHsdk1APArwEtgWmxQo7G2TfP1eZ2HhSJ3B/bSwWTWAMCPgC9B11YPW+gJq1r4dZyO1+dWz8Pfuwd9iVk2DQD8FcCXoGurCRT0i65SPs2PpkkRtdV77df/rx7P37sL+VTsMmgA4CuBnxIB+/OBnTmmAA/wZCZGGgB4o2Bndi6urS7TAniAx+GNNADwRsHGBetcMHM7ATzA4/BGGgB4o2Bndi6urS57AXiAx+GNNADwRsHGBetcMHM7ATzA4/BGGgB4o2Bndi6urS57AXiAx+GNNADwRsHGBetcMHM7ATzA4/BGGgB4o2Bv4lwZHgXd5HpdjgV4gP/s8Nkme3CBeJPrBHhz4DUF16xTerFO3ucOdBMQWx0L8MbAZ5+wsRVEu1QOwBsC7zIl8y6B2KquAG8GvNOiC60g2qVyAN4IeLdllXYJxFZ1BXgT4OXsrdfRO9zfG/RSuSyxFWPQD8AbAK/v7LVz6xdI596qfJba6g89wBsAv/S6ebWdg+rRKnWlnPWdC8AnB1633mqBbHGc6gOM62Fs0S4Anxh4rZE29+KY23YKqg/r7QE8vf4CHY9G0G0L6BKfV71auBllfN2x4PALgBZFaL1/qJvqLFSvKG3kVg+ATwq8HoSZAi7CflbY/dp9W3Q+AJ8UeC1bHQHsqTqofi0EThlfdiwAnxT4qOl86QBI678EsVXHBPAJgdfkFQWsyFvVs5XQKedTBwPwCYHXmPnIoJe6qZ6A2NbpAT4h8NEG2xTAx1sG4bSFXZ0rwCcE/ux5zPvvY+BVTxy+LfQAnxD404MHO5HSq54AD/CIYMtOCIdvC9EudVo4/JZwRQw23+EBfkqXAJ8QeH6lB3iATwj2VFC5Dw/wU9rA4ZN2BIy0A/p10AN8UuAZSw/wAJ8U7nWB5Wk5gF+nCxw+cScQNa3nwZl+nRHAJwaeGW/6gbXOXSPsA/jEwGvuuJBz2rHgZLfBZQCfGHg5SrRBODww0zfrAPjkwAt65qXvC1mEVL7UAeANgGflGYAHeAPQS5C1ZW05oJcOcHgj8Fk9FugB3gj44vSt7s+rHFaNjdXJALwZ8IJe3+mX/iFP52e12Fiwk9Ibwq6gl5dukc19n17n49bbZRuXto6yxeFXAIgSlJb10IKTGpG3bZqvz+s8LBQZF3bpCuDNgV/tXPTAjZ6yq4Vfx+l4lo2KDflqjAEe4D+n+KvC0CQa+lVf6bnmyNOEk9rqvfaziMTuQL4aV4AH+LXAr4qEv3cT7nVxA3iAB3gjDQC8UbDX9fjsy+PeNbEEeIDH4Y00APBGwa5xAI7J7fgAD/A4vJEGAN4o2Lh3bveuiS/AAzwOb6QBgDcKdo0DcEzuLADgAR6HN9IAwBsFG/fO7d418QV4gMfhjTQA8EbBrnEAjsmdBQA8wOPwRhoAeKNg49653bsmvgAP8Di8kQYA3ijYNQ7AMbmzAIAHeBzeSAMAbxRs3Du3e9fEF+ABHoc30gDAVwabSR1xxwwaAPgrgGfaZiDPpgGAHwGvhRRmXZjh/JiUedTGNd81ex6TWQMAvyJGll7C0bNrAOBZXJEMxEgD9sBrOePapZUO9/eGbV4qh+WT42URThqwBl5LJh09vrMVxJt2ACpP5fb8jkrZl52OmwZsgVev3hr20jmoXJz+ErpeHZCjBiyBf//uRbM0vkA+3iq9Vz16id29XFcNWAL/5um9pmn8GPbyXvVwB6/X9btqwA543XYpwEXYqj69RO9arrMGrID/cH48vHpyNxTwqo8GerjC1/q63TVgBbxG0EVw9XEdVK/Wwnctz10DVsC3ut8+Bvq696qXK4Ctr9tdAzbA6yGI68Dr+f+qX2vxu5WHBk4GG+DfPrsfGnjVzw3A1teLBoyAj5rKlayCtH75gThowAR4TVxQwIq8VT1bu55LeWjgU4dqkdJrvHRk0EvdGGO/nMujASPgow20KICPtwzCWQ54NGAE/NnzmPffx8Crni4pduvrRANGwJ8ePNiJlF71bA2CS3lowAh4evflUuVd6TDQgBHwfH8DeDRgBDy/0AI8GjACnnuwAI8GjIDX90xGWQE9GjAZaSfgGUcN8GjACHielAJ4NGAEfOS0ngdn2nVGUdP6VhqwGEtf7hW7z3ZS2sF5664BK+A1d1zIOe1YcLLZCEN3DVgBL2eLNgBD9XF23B7X7qwBO+AlMNc5yXvAFbVMVw1YAu+66khU+HrUy1UDlsBLYI7rivUAK3KZjhqwBV5C1Pjq1gtKsnpsu1twNZ2NmwasgZcg1Mu3ujerclRejRA5pl3H4KQBe+AFlr7PLf0jjs6vcgC5HcibtLWLBgD+4lKAul0z9316nY9bb5dtvAmEPY7NrgGAXwFeAtNigxqNtW2ar8/rPCwUuTuwlw4mswYAfgR8Cbq2ethCT1jVwq/jdLw+t3oe/t496EvMsmkA4K8AvgRdW02goF90lfJpfjRNiqit3mu//n/1eP7eXcinYpdBAwBfCfyUCNifD+zMMQV4gCczMdIAwBsFO7NzcW11mRbAAzwOb6QBgDcKNi5Y54KZ2wngAR6HN9IAwBsFO7NzcW112QvAAzwOb6QBgDcKNi5Y54KZ2wngAR6HN9IAwBsFO7NzcW112QvAAzwOb6QBgDcKNi5Y54KZ2wngAR6HN9IAwBsFO7NzcW112QvAAzwOb6QBgDcKNi5Y54KZ2wngAR6HN9IAwBsFO7NzcW112QvAAzwOb6QBgDcKNi5Y54KZ2wngAR6HN9IAwBsFO7NzcW112QvAAzwOb6QBgDcKNi5Y54KZ2wngAR6HN9IAwBsFO7NzcW112QvAAzwOb6QBgDcKNi5Y54KZ26kJ8CqEF22ABmJo4HB/b6h53dK/lz/cflRzMMfUNSrtRDtF1QDAV/aMUQNIvehcNtEAwAN8VSq4iag4Nm4nBPAAD/BGGgB4o2DjvHGdt1VsAB7gcXgjDQC8UbBbuQjlxM0kAB7gcXgjDQC8UbBx3rjO2yo2AA/wOLyRBv4H/fhzYZDvMk0AAAAASUVORK5CYII=;sketch=1;" vertex="1" parent="WB1cm0UR35racSHaQFcc-1">
          <mxGeometry x="673" y="-959.5" width="27" height="27" as="geometry" />
        </mxCell>
      </root>
    </mxGraphModel>
  </diagram>
  <diagram id="ZiXUKT1-2LrXKxVw2yfl" name="Page-4">
    <mxGraphModel dx="815" dy="1581" grid="1" gridSize="10" guides="1" tooltips="1" connect="1" arrows="1" fold="1" page="1" pageScale="1" pageWidth="827" pageHeight="1169" math="0" shadow="0">
      <root>
        <mxCell id="2yQFaiDKGjFKa2G4Hm0Y-0" />
        <mxCell id="2yQFaiDKGjFKa2G4Hm0Y-1" parent="2yQFaiDKGjFKa2G4Hm0Y-0" />
        <mxCell id="WMFRrhG3XQZSGfJr9Rvr-0" value="" style="whiteSpace=wrap;html=1;fillColor=none;sketch=1;" vertex="1" parent="2yQFaiDKGjFKa2G4Hm0Y-1">
          <mxGeometry x="570" y="-1127.5" width="140" height="205" as="geometry" />
        </mxCell>
        <mxCell id="WMFRrhG3XQZSGfJr9Rvr-1" value="View V3" style="whiteSpace=wrap;html=1;fontColor=#333333;fillStyle=solid;fontStyle=1;strokeColor=#CC0066;fillColor=#FFCCE6;sketch=1;" vertex="1" parent="2yQFaiDKGjFKa2G4Hm0Y-1">
          <mxGeometry x="580" y="-992.5" width="120" height="60" as="geometry" />
        </mxCell>
        <mxCell id="WMFRrhG3XQZSGfJr9Rvr-2" value="" style="whiteSpace=wrap;html=1;fillColor=none;sketch=1;" vertex="1" parent="2yQFaiDKGjFKa2G4Hm0Y-1">
          <mxGeometry x="630" y="-800.5" width="140" height="205" as="geometry" />
        </mxCell>
        <mxCell id="WMFRrhG3XQZSGfJr9Rvr-3" value="Model M1" style="whiteSpace=wrap;html=1;fillColor=#f8cecc;strokeColor=#b85450;fillStyle=zigzag;fontColor=#990000;fontStyle=1;sketch=1;" vertex="1" parent="2yQFaiDKGjFKa2G4Hm0Y-1">
          <mxGeometry x="640" y="-783" width="120" height="60" as="geometry" />
        </mxCell>
        <mxCell id="WMFRrhG3XQZSGfJr9Rvr-4" style="edgeStyle=none;orthogonalLoop=1;jettySize=auto;html=1;fontSize=12;fontColor=#000000;exitX=0.734;exitY=0.884;exitDx=0;exitDy=0;exitPerimeter=0;startArrow=none;startFill=0;sketch=1;entryX=0;entryY=0.5;entryDx=0;entryDy=0;strokeColor=#E0E0E0;" edge="1" parent="2yQFaiDKGjFKa2G4Hm0Y-1" source="WMFRrhG3XQZSGfJr9Rvr-6" target="WMFRrhG3XQZSGfJr9Rvr-3">
          <mxGeometry relative="1" as="geometry">
            <mxPoint x="690" y="-816" as="targetPoint" />
          </mxGeometry>
        </mxCell>
        <mxCell id="WMFRrhG3XQZSGfJr9Rvr-5" style="edgeStyle=none;orthogonalLoop=1;jettySize=auto;html=1;entryX=0;entryY=0.5;entryDx=0;entryDy=0;fontSize=12;fontColor=#000000;startArrow=none;startFill=0;sketch=1;exitX=0.473;exitY=0.094;exitDx=0;exitDy=0;exitPerimeter=0;strokeColor=#E0E0E0;" edge="1" parent="2yQFaiDKGjFKa2G4Hm0Y-1" source="WMFRrhG3XQZSGfJr9Rvr-6" target="WMFRrhG3XQZSGfJr9Rvr-40">
          <mxGeometry relative="1" as="geometry">
            <mxPoint x="370" y="-960" as="sourcePoint" />
            <mxPoint x="590" y="-1089" as="targetPoint" />
          </mxGeometry>
        </mxCell>
        <mxCell id="WMFRrhG3XQZSGfJr9Rvr-6" value="Reflector" style="ellipse;shape=cloud;whiteSpace=wrap;html=1;fontSize=21;strokeColor=#6c8ebf;fillColor=#CCFFFF;fontColor=#0066CC;sketch=1;" vertex="1" parent="2yQFaiDKGjFKa2G4Hm0Y-1">
          <mxGeometry x="310" y="-920" width="326" height="130" as="geometry" />
        </mxCell>
        <mxCell id="WMFRrhG3XQZSGfJr9Rvr-7" style="edgeStyle=none;orthogonalLoop=1;jettySize=auto;html=1;fontSize=12;fontColor=#000000;exitX=0;exitY=0.5;exitDx=0;exitDy=0;startArrow=none;startFill=0;sketch=1;entryX=0.626;entryY=0.953;entryDx=0;entryDy=0;entryPerimeter=0;strokeColor=#E0E0E0;" edge="1" parent="2yQFaiDKGjFKa2G4Hm0Y-1" source="WMFRrhG3XQZSGfJr9Rvr-38" target="WMFRrhG3XQZSGfJr9Rvr-6">
          <mxGeometry relative="1" as="geometry">
            <mxPoint x="680" y="-620" as="sourcePoint" />
          </mxGeometry>
        </mxCell>
        <mxCell id="WMFRrhG3XQZSGfJr9Rvr-8" value="Client C2" style="text;html=1;strokeColor=none;fillColor=none;align=center;verticalAlign=middle;whiteSpace=wrap;fontStyle=1;sketch=1;" vertex="1" parent="2yQFaiDKGjFKa2G4Hm0Y-1">
          <mxGeometry x="665" y="-595.5" width="70" height="20" as="geometry" />
        </mxCell>
        <mxCell id="WMFRrhG3XQZSGfJr9Rvr-9" value="" style="outlineConnect=0;dashed=0;verticalLabelPosition=bottom;verticalAlign=top;align=center;html=1;fontSize=12;fontStyle=0;aspect=fixed;pointerEvents=1;shape=mxgraph.aws4.user;fillColor=#333333;strokeWidth=1;sketch=1;" vertex="1" parent="2yQFaiDKGjFKa2G4Hm0Y-1">
          <mxGeometry x="681" y="-575.5" width="38" height="38" as="geometry" />
        </mxCell>
        <mxCell id="WMFRrhG3XQZSGfJr9Rvr-10" value="publish(&quot;rollDice&quot;)" style="text;html=1;strokeColor=none;fillColor=none;align=center;verticalAlign=middle;whiteSpace=wrap;fontSize=12;rotation=52;sketch=1;fontColor=#E0E0E0;" vertex="1" parent="2yQFaiDKGjFKa2G4Hm0Y-1">
          <mxGeometry x="515" y="-723" width="106" height="20" as="geometry" />
        </mxCell>
        <mxCell id="WMFRrhG3XQZSGfJr9Rvr-11" value="subscribe&lt;br&gt;(&quot;rollDice&quot;)" style="text;html=1;strokeColor=none;fillColor=none;align=center;verticalAlign=middle;whiteSpace=wrap;fontSize=12;rotation=29;sketch=1;fontColor=#E0E0E0;" vertex="1" parent="2yQFaiDKGjFKa2G4Hm0Y-1">
          <mxGeometry x="571.69" y="-806.83" width="64.31" height="30.83" as="geometry" />
        </mxCell>
        <mxCell id="WMFRrhG3XQZSGfJr9Rvr-12" style="edgeStyle=none;orthogonalLoop=1;jettySize=auto;html=1;entryX=0.516;entryY=0.118;entryDx=0;entryDy=0;entryPerimeter=0;fontSize=12;fontColor=#000000;exitX=0;exitY=0.5;exitDx=0;exitDy=0;startArrow=none;startFill=0;sketch=1;" edge="1" parent="2yQFaiDKGjFKa2G4Hm0Y-1" source="WMFRrhG3XQZSGfJr9Rvr-1" target="WMFRrhG3XQZSGfJr9Rvr-6">
          <mxGeometry relative="1" as="geometry">
            <mxPoint x="533.75" y="-893" as="targetPoint" />
            <mxPoint x="590" y="-1009" as="sourcePoint" />
          </mxGeometry>
        </mxCell>
        <mxCell id="WMFRrhG3XQZSGfJr9Rvr-13" value="Client C3" style="text;html=1;strokeColor=none;fillColor=none;align=center;verticalAlign=middle;whiteSpace=wrap;fontStyle=1;sketch=1;" vertex="1" parent="2yQFaiDKGjFKa2G4Hm0Y-1">
          <mxGeometry x="605" y="-922.5" width="70" height="20" as="geometry" />
        </mxCell>
        <mxCell id="WMFRrhG3XQZSGfJr9Rvr-14" value="" style="outlineConnect=0;dashed=0;verticalLabelPosition=bottom;verticalAlign=top;align=center;html=1;fontSize=12;fontStyle=0;aspect=fixed;pointerEvents=1;shape=mxgraph.aws4.user;fillColor=#333333;strokeWidth=1;sketch=1;" vertex="1" parent="2yQFaiDKGjFKa2G4Hm0Y-1">
          <mxGeometry x="621" y="-902.5" width="38" height="38" as="geometry" />
        </mxCell>
        <mxCell id="WMFRrhG3XQZSGfJr9Rvr-15" value="publish&lt;br&gt;(&quot;rollDice&quot;)" style="text;html=1;strokeColor=none;fillColor=none;align=center;verticalAlign=middle;whiteSpace=wrap;fontSize=12;rotation=331;sketch=1;" vertex="1" parent="2yQFaiDKGjFKa2G4Hm0Y-1">
          <mxGeometry x="507.92" y="-936.7800000000001" width="63.77" height="33.56" as="geometry" />
        </mxCell>
        <mxCell id="WMFRrhG3XQZSGfJr9Rvr-16" value="subscribe(&quot;rollDice&quot;)" style="text;html=1;strokeColor=none;fillColor=none;align=center;verticalAlign=middle;whiteSpace=wrap;fontSize=12;rotation=304;sketch=1;fontColor=#E0E0E0;" vertex="1" parent="2yQFaiDKGjFKa2G4Hm0Y-1">
          <mxGeometry x="450" y="-994" width="106" height="20" as="geometry" />
        </mxCell>
        <mxCell id="WMFRrhG3XQZSGfJr9Rvr-17" style="edgeStyle=none;orthogonalLoop=1;jettySize=auto;html=1;exitX=0.5;exitY=1;exitDx=0;exitDy=0;fontSize=12;fontColor=#000000;sketch=1;" edge="1" parent="2yQFaiDKGjFKa2G4Hm0Y-1">
          <mxGeometry relative="1" as="geometry">
            <mxPoint x="608.7462562898772" y="-746.1164542430624" as="sourcePoint" />
            <mxPoint x="608.7462562898772" y="-746.1164542430624" as="targetPoint" />
          </mxGeometry>
        </mxCell>
        <mxCell id="WMFRrhG3XQZSGfJr9Rvr-18" value="" style="whiteSpace=wrap;html=1;fillColor=none;sketch=1;" vertex="1" parent="2yQFaiDKGjFKa2G4Hm0Y-1">
          <mxGeometry x="80" y="-966" width="140" height="205" as="geometry" />
        </mxCell>
        <mxCell id="WMFRrhG3XQZSGfJr9Rvr-19" value="Model M1" style="whiteSpace=wrap;html=1;fillColor=#f8cecc;strokeColor=#b85450;fillStyle=zigzag;fontColor=#990000;fontStyle=1;sketch=1;" vertex="1" parent="2yQFaiDKGjFKa2G4Hm0Y-1">
          <mxGeometry x="90" y="-950" width="120" height="60" as="geometry" />
        </mxCell>
        <mxCell id="WMFRrhG3XQZSGfJr9Rvr-20" value="Client C1" style="text;html=1;strokeColor=none;fillColor=none;align=center;verticalAlign=middle;whiteSpace=wrap;fontStyle=1;sketch=1;" vertex="1" parent="2yQFaiDKGjFKa2G4Hm0Y-1">
          <mxGeometry x="115" y="-760" width="70" height="20" as="geometry" />
        </mxCell>
        <mxCell id="WMFRrhG3XQZSGfJr9Rvr-21" value="Session XYZ" style="text;html=1;align=center;verticalAlign=middle;whiteSpace=wrap;fontSize=14;fillColor=#ffffff;fontStyle=1;sketch=0;" vertex="1" parent="2yQFaiDKGjFKa2G4Hm0Y-1">
          <mxGeometry x="120" y="-976" width="90" height="20" as="geometry" />
        </mxCell>
        <mxCell id="WMFRrhG3XQZSGfJr9Rvr-22" value="" style="outlineConnect=0;dashed=0;verticalLabelPosition=bottom;verticalAlign=top;align=center;html=1;fontSize=12;fontStyle=0;aspect=fixed;pointerEvents=1;shape=mxgraph.aws4.user;fillColor=#333333;strokeWidth=1;sketch=1;" vertex="1" parent="2yQFaiDKGjFKa2G4Hm0Y-1">
          <mxGeometry x="131" y="-740" width="38" height="38" as="geometry" />
        </mxCell>
        <mxCell id="WMFRrhG3XQZSGfJr9Rvr-23" style="orthogonalLoop=1;jettySize=auto;html=1;entryX=0.101;entryY=0.664;entryDx=0;entryDy=0;entryPerimeter=0;fontColor=#990000;startArrow=none;startFill=0;sketch=1;strokeColor=#E0E0E0;" edge="1" parent="2yQFaiDKGjFKa2G4Hm0Y-1">
          <mxGeometry relative="1" as="geometry">
            <mxPoint x="210" y="-805.8997924696117" as="sourcePoint" />
            <mxPoint x="342.92599999999993" y="-833.68" as="targetPoint" />
          </mxGeometry>
        </mxCell>
        <mxCell id="WMFRrhG3XQZSGfJr9Rvr-24" style="edgeStyle=none;orthogonalLoop=1;jettySize=auto;html=1;entryX=1;entryY=0.5;entryDx=0;entryDy=0;fontSize=12;fontColor=#000000;exitX=0.07;exitY=0.4;exitDx=0;exitDy=0;exitPerimeter=0;startArrow=none;startFill=0;sketch=1;strokeColor=#E0E0E0;" edge="1" parent="2yQFaiDKGjFKa2G4Hm0Y-1" target="WMFRrhG3XQZSGfJr9Rvr-19">
          <mxGeometry relative="1" as="geometry">
            <mxPoint x="332.81999999999994" y="-868" as="sourcePoint" />
            <mxPoint x="210" y="-880" as="targetPoint" />
          </mxGeometry>
        </mxCell>
        <mxCell id="WMFRrhG3XQZSGfJr9Rvr-25" value="publish(&quot;rollDice&quot;)" style="text;html=1;strokeColor=none;fillColor=none;align=center;verticalAlign=middle;whiteSpace=wrap;fontSize=12;rotation=348;sketch=1;fontColor=#E0E0E0;" vertex="1" parent="2yQFaiDKGjFKa2G4Hm0Y-1">
          <mxGeometry x="230.03" y="-821.42" width="110" height="20.75" as="geometry" />
        </mxCell>
        <mxCell id="WMFRrhG3XQZSGfJr9Rvr-26" value="subscribe(&quot;rollDice&quot;)" style="text;html=1;strokeColor=none;fillColor=none;align=center;verticalAlign=middle;whiteSpace=wrap;fontSize=12;rotation=23;sketch=1;fontColor=#E0E0E0;" vertex="1" parent="2yQFaiDKGjFKa2G4Hm0Y-1">
          <mxGeometry x="225" y="-912" width="106" height="20" as="geometry" />
        </mxCell>
        <mxCell id="WMFRrhG3XQZSGfJr9Rvr-27" value="View V1" style="whiteSpace=wrap;html=1;fontColor=#333333;fillStyle=solid;fontStyle=1;fillColor=#B3FF66;strokeColor=#66FF66;sketch=1;" vertex="1" parent="2yQFaiDKGjFKa2G4Hm0Y-1">
          <mxGeometry x="90" y="-833" width="120" height="60" as="geometry" />
        </mxCell>
        <mxCell id="WMFRrhG3XQZSGfJr9Rvr-28" value="" style="shape=image;verticalLabelPosition=bottom;labelBackgroundColor=#ffffff;verticalAlign=top;aspect=fixed;imageAspect=0;image=data:image/png,iVBORw0KGgoAAAANSUhEUgAAAPwAAAD8CAYAAABTq8lnAAAN8UlEQVR4Ae2dwW4URxRF+RYsdkj5Fb6A3yALpLDPB0RykCKhZJ0NK/YOyoIVii2BvEEmQrZiWUk2YUFHF1R4aKbtGk931Zt3D9KoPU1PV3W9e+q+ma6uunWLf7QALeDVAi9/uP2Il18bHP14+zvi7hX3jz2bgn64vzfwog3QQG4NADwdHR29kQYA3ijYuHdu966JL8ADPA5vpAGANwp2jQNwTO4sAOABHoc30gDAGwUb987t3jXxBXiAx+GNNADwRsGucQCOyZ0FADzA4/BGGgB4o2Dj3rnduya+NwL+9ODbgRdtgAbiaKAGdh1zY+CHi5OBF22ABvprQB0vwNMh0SGbaADgTQKNu/Z31wgxAHiAx92NNADwRsGO4DDUoW+mAfAAj8MbaQDgjYKNu/Z11wjtD/AAj8MbaQDgjYIdwWGoQ98sA+ABHoc30gDAGwUbd+3rrhHaH+ABHoc30gDAGwU7gsNQh75ZBsADPA5vpAGANwo27trXXSO0P8ADPA5vpAGANwp2BIehDn2zDIAHeBzeSAMAbxRs3LWvu0Zof4AHeBzeSAMAbxTsCA5DHfpmGQAP8Di8kQYA3ijYuGtfd43Q/gAP8Di8kQYA3ijYERyGOvTNMgAe4HF4Iw0AvFGwcde+7hqh/QEe4HF4Iw0AvFGwIzgMdeibZQA8wOPwRhoAeKNg46593TVC+wM8wOPwRhoAeKNgR3AY6tA3ywB4gMfhjTQA8EbBxl37umuE9gf4SuD/+/P34Z+jX4bzF98PZ88fDqcHDz5u9V779f8RAkodloM6gwYA/grg//7jp+Hts/vD65+/GQ7396596Tgdr88B3nLgtWzbbBoA+BHwH/46Hs5+e1gN+VRHIPh1ng/nx8A/auOWwN6krMwaAPgVMSo9f/Xk7rVOPgX5uv06n857E+HxmfZZQnYNAPzFyfD+3YvhzdN7s4I+hl/nVzlA3B7imjZ30YA98P++/nXr9H0M99R7pfkqr0aAHNOuY3DSgDXw+nX96PGdRZ19DL/KU7kA3Q7oq9raTQO2wKtXbw17gV/l4vT9gXfUgCXw+r5We6utQDr3VuXznb4f9K4asAR+6R/oajsH1eOqdJP/W65DcNWAHfC67VILZIvjuGW3HNRTHaazBqyA1yCYue+zb9spqD4a6DElTvbP2yG4a8AKeI182xbQJT6vegH2vGBPtae7BqyA7/1D3VRnoXpNCZT983YE7hqwAV4PQUwBF2E/D9zMC/a6jhINnAw2wOsptghgT9VB9VsnUvbN1xGgASPgo6ZypQMgrZ8P7KlOEg2YAK+JCwpYkbdMorEc9GjgU9tapPQaLx0Z9FI3xtgvBzwaMAI+2kCLAvh4yyCc5YBHA0bAaw66MVwR36ueU98/2b9dZ4AGjIDXhJMRAR/XSfUE7O3Anmo/NGAEPL37MhBNwRVxPxowAp7vbwCPBoyA5xdagEcDRsBzDxbg0YAR8PpOySgroEcDJiPtBDzjqAEeDRgBz5NSAI8GjICPnNbz4Ey7zihqWt9KAxZj6ct9YffZTko7OG/dNWAFvOaOCzmnHQtONhth6K4BK+DlbNEGYKg+zo7b49qdNWAHvATmOid5D7iilumqAUvgXVcdiQpfj3q5asASeAnMcV2xHmBFLtNRA7bAS4gaX916QUlWj213C66ms3HTgDXwEoR6+Vb3ZlWOyqsRIse06xicNGAPvMDS97mlf8TR+VUOILcDeZO2dtEAwF9cClC3a+a+T6/zcevtso03gbDHsdk1APArwEtgWmxQo7G2TfP1eZ2HhSJ3B/bSwWTWAMCPgC9B11YPW+gJq1r4dZyO1+dWz8Pfuwd9iVk2DQD8FcCXoGurCRT0i65SPs2PpkkRtdV77df/rx7P37sL+VTsMmgA4CuBnxIB+/OBnTmmAA/wZCZGGgB4o2Bndi6urS7TAniAx+GNNADwRsHGBetcMHM7ATzA4/BGGgB4o2Bndi6urS57AXiAx+GNNADwRsHGBetcMHM7ATzA4/BGGgB4o2Bndi6urS57AXiAx+GNNADwRsHGBetcMHM7ATzA4/BGGgB4o2Bv4lwZHgXd5HpdjgV4gP/s8Nkme3CBeJPrBHhz4DUF16xTerFO3ucOdBMQWx0L8MbAZ5+wsRVEu1QOwBsC7zIl8y6B2KquAG8GvNOiC60g2qVyAN4IeLdllXYJxFZ1BXgT4OXsrdfRO9zfG/RSuSyxFWPQD8AbAK/v7LVz6xdI596qfJba6g89wBsAv/S6ebWdg+rRKnWlnPWdC8AnB1633mqBbHGc6gOM62Fs0S4Anxh4rZE29+KY23YKqg/r7QE8vf4CHY9G0G0L6BKfV71auBllfN2x4PALgBZFaL1/qJvqLFSvKG3kVg+ATwq8HoSZAi7CflbY/dp9W3Q+AJ8UeC1bHQHsqTqofi0EThlfdiwAnxT4qOl86QBI678EsVXHBPAJgdfkFQWsyFvVs5XQKedTBwPwCYHXmPnIoJe6qZ6A2NbpAT4h8NEG2xTAx1sG4bSFXZ0rwCcE/ux5zPvvY+BVTxy+LfQAnxD404MHO5HSq54AD/CIYMtOCIdvC9EudVo4/JZwRQw23+EBfkqXAJ8QeH6lB3iATwj2VFC5Dw/wU9rA4ZN2BIy0A/p10AN8UuAZSw/wAJ8U7nWB5Wk5gF+nCxw+cScQNa3nwZl+nRHAJwaeGW/6gbXOXSPsA/jEwGvuuJBz2rHgZLfBZQCfGHg5SrRBODww0zfrAPjkwAt65qXvC1mEVL7UAeANgGflGYAHeAPQS5C1ZW05oJcOcHgj8Fk9FugB3gj44vSt7s+rHFaNjdXJALwZ8IJe3+mX/iFP52e12Fiwk9Ibwq6gl5dukc19n17n49bbZRuXto6yxeFXAIgSlJb10IKTGpG3bZqvz+s8LBQZF3bpCuDNgV/tXPTAjZ6yq4Vfx+l4lo2KDflqjAEe4D+n+KvC0CQa+lVf6bnmyNOEk9rqvfaziMTuQL4aV4AH+LXAr4qEv3cT7nVxA3iAB3gjDQC8UbDX9fjsy+PeNbEEeIDH4Y00APBGwa5xAI7J7fgAD/A4vJEGAN4o2Lh3bveuiS/AAzwOb6QBgDcKdo0DcEzuLADgAR6HN9IAwBsFG/fO7d418QV4gMfhjTQA8EbBrnEAjsmdBQA8wOPwRhoAeKNg49653bsmvgAP8Di8kQYA3ijYNQ7AMbmzAIAHeBzeSAMAbxRs3Du3e9fEF+ABHoc30gDAVwabSR1xxwwaAPgrgGfaZiDPpgGAHwGvhRRmXZjh/JiUedTGNd81ex6TWQMAvyJGll7C0bNrAOBZXJEMxEgD9sBrOePapZUO9/eGbV4qh+WT42URThqwBl5LJh09vrMVxJt2ACpP5fb8jkrZl52OmwZsgVev3hr20jmoXJz+ErpeHZCjBiyBf//uRbM0vkA+3iq9Vz16id29XFcNWAL/5um9pmn8GPbyXvVwB6/X9btqwA543XYpwEXYqj69RO9arrMGrID/cH48vHpyNxTwqo8GerjC1/q63TVgBbxG0EVw9XEdVK/Wwnctz10DVsC3ut8+Bvq696qXK4Ctr9tdAzbA6yGI68Dr+f+qX2vxu5WHBk4GG+DfPrsfGnjVzw3A1teLBoyAj5rKlayCtH75gThowAR4TVxQwIq8VT1bu55LeWjgU4dqkdJrvHRk0EvdGGO/nMujASPgow20KICPtwzCWQ54NGAE/NnzmPffx8Crni4pduvrRANGwJ8ePNiJlF71bA2CS3lowAh4evflUuVd6TDQgBHwfH8DeDRgBDy/0AI8GjACnnuwAI8GjIDX90xGWQE9GjAZaSfgGUcN8GjACHielAJ4NGAEfOS0ngdn2nVGUdP6VhqwGEtf7hW7z3ZS2sF5664BK+A1d1zIOe1YcLLZCEN3DVgBL2eLNgBD9XF23B7X7qwBO+AlMNc5yXvAFbVMVw1YAu+66khU+HrUy1UDlsBLYI7rivUAK3KZjhqwBV5C1Pjq1gtKsnpsu1twNZ2NmwasgZcg1Mu3ujerclRejRA5pl3H4KQBe+AFlr7PLf0jjs6vcgC5HcibtLWLBgD+4lKAul0z9316nY9bb5dtvAmEPY7NrgGAXwFeAtNigxqNtW2ar8/rPCwUuTuwlw4mswYAfgR8Cbq2ethCT1jVwq/jdLw+t3oe/t496EvMsmkA4K8AvgRdW02goF90lfJpfjRNiqit3mu//n/1eP7eXcinYpdBAwBfCfyUCNifD+zMMQV4gCczMdIAwBsFO7NzcW11mRbAAzwOb6QBgDcKNi5Y54KZ2wngAR6HN9IAwBsFO7NzcW112QvAAzwOb6QBgDcKNi5Y54KZ2wngAR6HN9IAwBsFO7NzcW112QvAAzwOb6QBgDcKNi5Y54KZ2wngAR6HN9IAwBsFO7NzcW112QvAAzwOb6QBgDcKNi5Y54KZ2wngAR6HN9IAwBsFO7NzcW112QvAAzwOb6QBgDcKNi5Y54KZ2wngAR6HN9IAwBsFO7NzcW112QvAAzwOb6QBgDcKNi5Y54KZ2wngAR6HN9IAwBsFO7NzcW112QvAAzwOb6QBgDcKNi5Y54KZ26kJ8CqEF22ABmJo4HB/b6h53dK/lz/cflRzMMfUNSrtRDtF1QDAV/aMUQNIvehcNtEAwAN8VSq4iag4Nm4nBPAAD/BGGgB4o2DjvHGdt1VsAB7gcXgjDQC8UbBbuQjlxM0kAB7gcXgjDQC8UbBx3rjO2yo2AA/wOLyRBv4H/fhzYZDvMk0AAAAASUVORK5CYII=;sketch=1;" vertex="1" parent="2yQFaiDKGjFKa2G4Hm0Y-1">
          <mxGeometry x="183" y="-799" width="27" height="27" as="geometry" />
        </mxCell>
        <mxCell id="WMFRrhG3XQZSGfJr9Rvr-29" value="init()" style="text;html=1;strokeColor=none;fillColor=none;align=center;verticalAlign=middle;whiteSpace=wrap;rounded=0;sketch=1;fontSize=12;fontColor=#000000;fontStyle=1" vertex="1" parent="2yQFaiDKGjFKa2G4Hm0Y-1">
          <mxGeometry x="170" y="-910" width="40" height="20" as="geometry" />
        </mxCell>
        <mxCell id="WMFRrhG3XQZSGfJr9Rvr-30" style="orthogonalLoop=1;jettySize=auto;html=1;fontColor=#990000;startArrow=classic;startFill=1;sketch=1;entryX=0.5;entryY=1;entryDx=0;entryDy=0;exitX=0.5;exitY=0;exitDx=0;exitDy=0;strokeColor=#E0E0E0;" edge="1" parent="2yQFaiDKGjFKa2G4Hm0Y-1" source="WMFRrhG3XQZSGfJr9Rvr-27" target="WMFRrhG3XQZSGfJr9Rvr-19">
          <mxGeometry relative="1" as="geometry">
            <mxPoint x="220" y="-795.8997924696117" as="sourcePoint" />
            <mxPoint x="353" y="-740" as="targetPoint" />
          </mxGeometry>
        </mxCell>
        <mxCell id="WMFRrhG3XQZSGfJr9Rvr-31" value="publish&lt;br&gt;(&quot;show&quot;)" style="text;html=1;strokeColor=none;fillColor=none;align=center;verticalAlign=middle;whiteSpace=wrap;fontSize=9;rotation=-90;sketch=1;fontColor=#E0E0E0;" vertex="1" parent="2yQFaiDKGjFKa2G4Hm0Y-1">
          <mxGeometry x="115" y="-870" width="40" height="20" as="geometry" />
        </mxCell>
        <mxCell id="WMFRrhG3XQZSGfJr9Rvr-32" value="subscribe&lt;br&gt;(&quot;show&quot;)" style="text;html=1;strokeColor=none;fillColor=none;align=center;verticalAlign=middle;whiteSpace=wrap;fontSize=9;rotation=90;sketch=1;fontColor=#E0E0E0;" vertex="1" parent="2yQFaiDKGjFKa2G4Hm0Y-1">
          <mxGeometry x="140" y="-870" width="50" height="22" as="geometry" />
        </mxCell>
        <mxCell id="WMFRrhG3XQZSGfJr9Rvr-33" value="Session XYZ" style="text;html=1;align=center;verticalAlign=middle;whiteSpace=wrap;fontSize=14;fillColor=#ffffff;fontStyle=1;sketch=0;" vertex="1" parent="2yQFaiDKGjFKa2G4Hm0Y-1">
          <mxGeometry x="670" y="-810" width="90" height="20" as="geometry" />
        </mxCell>
        <mxCell id="WMFRrhG3XQZSGfJr9Rvr-34" value="init()" style="text;html=1;strokeColor=none;fillColor=none;align=center;verticalAlign=middle;whiteSpace=wrap;rounded=0;sketch=1;fontSize=12;fontColor=#000000;fontStyle=1" vertex="1" parent="2yQFaiDKGjFKa2G4Hm0Y-1">
          <mxGeometry x="720" y="-743" width="40" height="20" as="geometry" />
        </mxCell>
        <mxCell id="WMFRrhG3XQZSGfJr9Rvr-35" style="orthogonalLoop=1;jettySize=auto;html=1;fontColor=#990000;startArrow=classic;startFill=1;sketch=1;entryX=0.5;entryY=1;entryDx=0;entryDy=0;exitX=0.5;exitY=0;exitDx=0;exitDy=0;strokeColor=#E0E0E0;" edge="1" parent="2yQFaiDKGjFKa2G4Hm0Y-1">
          <mxGeometry relative="1" as="geometry">
            <mxPoint x="700" y="-666" as="sourcePoint" />
            <mxPoint x="700" y="-723" as="targetPoint" />
          </mxGeometry>
        </mxCell>
        <mxCell id="WMFRrhG3XQZSGfJr9Rvr-36" value="publish&lt;br&gt;(&quot;show&quot;)" style="text;html=1;strokeColor=none;fillColor=none;align=center;verticalAlign=middle;whiteSpace=wrap;fontSize=9;rotation=-90;sketch=1;fontColor=#E0E0E0;" vertex="1" parent="2yQFaiDKGjFKa2G4Hm0Y-1">
          <mxGeometry x="665" y="-703" width="40" height="20" as="geometry" />
        </mxCell>
        <mxCell id="WMFRrhG3XQZSGfJr9Rvr-37" value="subscribe&lt;br&gt;(&quot;show&quot;)" style="text;html=1;strokeColor=none;fillColor=none;align=center;verticalAlign=middle;whiteSpace=wrap;fontSize=9;rotation=90;sketch=1;fontColor=#E0E0E0;" vertex="1" parent="2yQFaiDKGjFKa2G4Hm0Y-1">
          <mxGeometry x="690" y="-703" width="50" height="22" as="geometry" />
        </mxCell>
        <mxCell id="WMFRrhG3XQZSGfJr9Rvr-38" value="View V2" style="whiteSpace=wrap;html=1;fontColor=#333333;fillStyle=solid;fontStyle=1;strokeColor=#6666FF;fillColor=#CCCCFF;sketch=1;" vertex="1" parent="2yQFaiDKGjFKa2G4Hm0Y-1">
          <mxGeometry x="640" y="-665.5" width="120" height="60" as="geometry" />
        </mxCell>
        <mxCell id="WMFRrhG3XQZSGfJr9Rvr-39" value="" style="shape=image;verticalLabelPosition=bottom;labelBackgroundColor=#ffffff;verticalAlign=top;aspect=fixed;imageAspect=0;image=data:image/png,iVBORw0KGgoAAAANSUhEUgAAAPwAAAD8CAYAAABTq8lnAAAN8UlEQVR4Ae2dwW4URxRF+RYsdkj5Fb6A3yALpLDPB0RykCKhZJ0NK/YOyoIVii2BvEEmQrZiWUk2YUFHF1R4aKbtGk931Zt3D9KoPU1PV3W9e+q+ma6uunWLf7QALeDVAi9/uP2Il18bHP14+zvi7hX3jz2bgn64vzfwog3QQG4NADwdHR29kQYA3ijYuHdu966JL8ADPA5vpAGANwp2jQNwTO4sAOABHoc30gDAGwUb987t3jXxBXiAx+GNNADwRsGucQCOyZ0FADzA4/BGGgB4o2Dj3rnduya+NwL+9ODbgRdtgAbiaKAGdh1zY+CHi5OBF22ABvprQB0vwNMh0SGbaADgTQKNu/Z31wgxAHiAx92NNADwRsGO4DDUoW+mAfAAj8MbaQDgjYKNu/Z11wjtD/AAj8MbaQDgjYIdwWGoQ98sA+ABHoc30gDAGwUbd+3rrhHaH+ABHoc30gDAGwU7gsNQh75ZBsADPA5vpAGANwo27trXXSO0P8ADPA5vpAGANwp2BIehDn2zDIAHeBzeSAMAbxRs3LWvu0Zof4AHeBzeSAMAbxTsCA5DHfpmGQAP8Di8kQYA3ijYuGtfd43Q/gAP8Di8kQYA3ijYERyGOvTNMgAe4HF4Iw0AvFGwcde+7hqh/QEe4HF4Iw0AvFGwIzgMdeibZQA8wOPwRhoAeKNg46593TVC+wM8wOPwRhoAeKNgR3AY6tA3ywB4gMfhjTQA8EbBxl37umuE9gf4SuD/+/P34Z+jX4bzF98PZ88fDqcHDz5u9V779f8RAkodloM6gwYA/grg//7jp+Hts/vD65+/GQ7396596Tgdr88B3nLgtWzbbBoA+BHwH/46Hs5+e1gN+VRHIPh1ng/nx8A/auOWwN6krMwaAPgVMSo9f/Xk7rVOPgX5uv06n857E+HxmfZZQnYNAPzFyfD+3YvhzdN7s4I+hl/nVzlA3B7imjZ30YA98P++/nXr9H0M99R7pfkqr0aAHNOuY3DSgDXw+nX96PGdRZ19DL/KU7kA3Q7oq9raTQO2wKtXbw17gV/l4vT9gXfUgCXw+r5We6utQDr3VuXznb4f9K4asAR+6R/oajsH1eOqdJP/W65DcNWAHfC67VILZIvjuGW3HNRTHaazBqyA1yCYue+zb9spqD4a6DElTvbP2yG4a8AKeI182xbQJT6vegH2vGBPtae7BqyA7/1D3VRnoXpNCZT983YE7hqwAV4PQUwBF2E/D9zMC/a6jhINnAw2wOsptghgT9VB9VsnUvbN1xGgASPgo6ZypQMgrZ8P7KlOEg2YAK+JCwpYkbdMorEc9GjgU9tapPQaLx0Z9FI3xtgvBzwaMAI+2kCLAvh4yyCc5YBHA0bAaw66MVwR36ueU98/2b9dZ4AGjIDXhJMRAR/XSfUE7O3Anmo/NGAEPL37MhBNwRVxPxowAp7vbwCPBoyA5xdagEcDRsBzDxbg0YAR8PpOySgroEcDJiPtBDzjqAEeDRgBz5NSAI8GjICPnNbz4Ey7zihqWt9KAxZj6ct9YffZTko7OG/dNWAFvOaOCzmnHQtONhth6K4BK+DlbNEGYKg+zo7b49qdNWAHvATmOid5D7iilumqAUvgXVcdiQpfj3q5asASeAnMcV2xHmBFLtNRA7bAS4gaX916QUlWj213C66ms3HTgDXwEoR6+Vb3ZlWOyqsRIse06xicNGAPvMDS97mlf8TR+VUOILcDeZO2dtEAwF9cClC3a+a+T6/zcevtso03gbDHsdk1APArwEtgWmxQo7G2TfP1eZ2HhSJ3B/bSwWTWAMCPgC9B11YPW+gJq1r4dZyO1+dWz8Pfuwd9iVk2DQD8FcCXoGurCRT0i65SPs2PpkkRtdV77df/rx7P37sL+VTsMmgA4CuBnxIB+/OBnTmmAA/wZCZGGgB4o2Bndi6urS7TAniAx+GNNADwRsHGBetcMHM7ATzA4/BGGgB4o2Bndi6urS57AXiAx+GNNADwRsHGBetcMHM7ATzA4/BGGgB4o2Bndi6urS57AXiAx+GNNADwRsHGBetcMHM7ATzA4/BGGgB4o2Bv4lwZHgXd5HpdjgV4gP/s8Nkme3CBeJPrBHhz4DUF16xTerFO3ucOdBMQWx0L8MbAZ5+wsRVEu1QOwBsC7zIl8y6B2KquAG8GvNOiC60g2qVyAN4IeLdllXYJxFZ1BXgT4OXsrdfRO9zfG/RSuSyxFWPQD8AbAK/v7LVz6xdI596qfJba6g89wBsAv/S6ebWdg+rRKnWlnPWdC8AnB1633mqBbHGc6gOM62Fs0S4Anxh4rZE29+KY23YKqg/r7QE8vf4CHY9G0G0L6BKfV71auBllfN2x4PALgBZFaL1/qJvqLFSvKG3kVg+ATwq8HoSZAi7CflbY/dp9W3Q+AJ8UeC1bHQHsqTqofi0EThlfdiwAnxT4qOl86QBI678EsVXHBPAJgdfkFQWsyFvVs5XQKedTBwPwCYHXmPnIoJe6qZ6A2NbpAT4h8NEG2xTAx1sG4bSFXZ0rwCcE/ux5zPvvY+BVTxy+LfQAnxD404MHO5HSq54AD/CIYMtOCIdvC9EudVo4/JZwRQw23+EBfkqXAJ8QeH6lB3iATwj2VFC5Dw/wU9rA4ZN2BIy0A/p10AN8UuAZSw/wAJ8U7nWB5Wk5gF+nCxw+cScQNa3nwZl+nRHAJwaeGW/6gbXOXSPsA/jEwGvuuJBz2rHgZLfBZQCfGHg5SrRBODww0zfrAPjkwAt65qXvC1mEVL7UAeANgGflGYAHeAPQS5C1ZW05oJcOcHgj8Fk9FugB3gj44vSt7s+rHFaNjdXJALwZ8IJe3+mX/iFP52e12Fiwk9Ibwq6gl5dukc19n17n49bbZRuXto6yxeFXAIgSlJb10IKTGpG3bZqvz+s8LBQZF3bpCuDNgV/tXPTAjZ6yq4Vfx+l4lo2KDflqjAEe4D+n+KvC0CQa+lVf6bnmyNOEk9rqvfaziMTuQL4aV4AH+LXAr4qEv3cT7nVxA3iAB3gjDQC8UbDX9fjsy+PeNbEEeIDH4Y00APBGwa5xAI7J7fgAD/A4vJEGAN4o2Lh3bveuiS/AAzwOb6QBgDcKdo0DcEzuLADgAR6HN9IAwBsFG/fO7d418QV4gMfhjTQA8EbBrnEAjsmdBQA8wOPwRhoAeKNg49653bsmvgAP8Di8kQYA3ijYNQ7AMbmzAIAHeBzeSAMAbxRs3Du3e9fEF+ABHoc30gDAVwabSR1xxwwaAPgrgGfaZiDPpgGAHwGvhRRmXZjh/JiUedTGNd81ex6TWQMAvyJGll7C0bNrAOBZXJEMxEgD9sBrOePapZUO9/eGbV4qh+WT42URThqwBl5LJh09vrMVxJt2ACpP5fb8jkrZl52OmwZsgVev3hr20jmoXJz+ErpeHZCjBiyBf//uRbM0vkA+3iq9Vz16id29XFcNWAL/5um9pmn8GPbyXvVwB6/X9btqwA543XYpwEXYqj69RO9arrMGrID/cH48vHpyNxTwqo8GerjC1/q63TVgBbxG0EVw9XEdVK/Wwnctz10DVsC3ut8+Bvq696qXK4Ctr9tdAzbA6yGI68Dr+f+qX2vxu5WHBk4GG+DfPrsfGnjVzw3A1teLBoyAj5rKlayCtH75gThowAR4TVxQwIq8VT1bu55LeWjgU4dqkdJrvHRk0EvdGGO/nMujASPgow20KICPtwzCWQ54NGAE/NnzmPffx8Crni4pduvrRANGwJ8ePNiJlF71bA2CS3lowAh4evflUuVd6TDQgBHwfH8DeDRgBDy/0AI8GjACnnuwAI8GjIDX90xGWQE9GjAZaSfgGUcN8GjACHielAJ4NGAEfOS0ngdn2nVGUdP6VhqwGEtf7hW7z3ZS2sF5664BK+A1d1zIOe1YcLLZCEN3DVgBL2eLNgBD9XF23B7X7qwBO+AlMNc5yXvAFbVMVw1YAu+66khU+HrUy1UDlsBLYI7rivUAK3KZjhqwBV5C1Pjq1gtKsnpsu1twNZ2NmwasgZcg1Mu3ujerclRejRA5pl3H4KQBe+AFlr7PLf0jjs6vcgC5HcibtLWLBgD+4lKAul0z9316nY9bb5dtvAmEPY7NrgGAXwFeAtNigxqNtW2ar8/rPCwUuTuwlw4mswYAfgR8Cbq2ethCT1jVwq/jdLw+t3oe/t496EvMsmkA4K8AvgRdW02goF90lfJpfjRNiqit3mu//n/1eP7eXcinYpdBAwBfCfyUCNifD+zMMQV4gCczMdIAwBsFO7NzcW11mRbAAzwOb6QBgDcKNi5Y54KZ2wngAR6HN9IAwBsFO7NzcW112QvAAzwOb6QBgDcKNi5Y54KZ2wngAR6HN9IAwBsFO7NzcW112QvAAzwOb6QBgDcKNi5Y54KZ2wngAR6HN9IAwBsFO7NzcW112QvAAzwOb6QBgDcKNi5Y54KZ2wngAR6HN9IAwBsFO7NzcW112QvAAzwOb6QBgDcKNi5Y54KZ2wngAR6HN9IAwBsFO7NzcW112QvAAzwOb6QBgDcKNi5Y54KZ2wngAR6HN9IAwBsFO7NzcW112QvAAzwOb6QBgDcKNi5Y54KZ26kJ8CqEF22ABmJo4HB/b6h53dK/lz/cflRzMMfUNSrtRDtF1QDAV/aMUQNIvehcNtEAwAN8VSq4iag4Nm4nBPAAD/BGGgB4o2DjvHGdt1VsAB7gcXgjDQC8UbBbuQjlxM0kAB7gcXgjDQC8UbBx3rjO2yo2AA/wOLyRBv4H/fhzYZDvMk0AAAAASUVORK5CYII=;sketch=1;" vertex="1" parent="2yQFaiDKGjFKa2G4Hm0Y-1">
          <mxGeometry x="733" y="-632.5" width="27" height="27" as="geometry" />
        </mxCell>
        <mxCell id="WMFRrhG3XQZSGfJr9Rvr-40" value="Model M1" style="whiteSpace=wrap;html=1;fillColor=#f8cecc;strokeColor=#b85450;fillStyle=zigzag;fontColor=#990000;fontStyle=1;sketch=1;" vertex="1" parent="2yQFaiDKGjFKa2G4Hm0Y-1">
          <mxGeometry x="580" y="-1110" width="120" height="60" as="geometry" />
        </mxCell>
        <mxCell id="WMFRrhG3XQZSGfJr9Rvr-41" value="Session XYZ" style="text;html=1;align=center;verticalAlign=middle;whiteSpace=wrap;fontSize=14;fillColor=#ffffff;fontStyle=1;sketch=0;" vertex="1" parent="2yQFaiDKGjFKa2G4Hm0Y-1">
          <mxGeometry x="610" y="-1137" width="90" height="20" as="geometry" />
        </mxCell>
        <mxCell id="WMFRrhG3XQZSGfJr9Rvr-42" value="init()" style="text;html=1;strokeColor=none;fillColor=none;align=center;verticalAlign=middle;whiteSpace=wrap;rounded=0;sketch=1;fontSize=12;fontColor=#000000;fontStyle=1" vertex="1" parent="2yQFaiDKGjFKa2G4Hm0Y-1">
          <mxGeometry x="660" y="-1070" width="40" height="20" as="geometry" />
        </mxCell>
        <mxCell id="WMFRrhG3XQZSGfJr9Rvr-43" style="orthogonalLoop=1;jettySize=auto;html=1;fontColor=#990000;startArrow=classic;startFill=1;sketch=1;entryX=0.5;entryY=1;entryDx=0;entryDy=0;exitX=0.5;exitY=0;exitDx=0;exitDy=0;strokeColor=#E0E0E0;" edge="1" parent="2yQFaiDKGjFKa2G4Hm0Y-1">
          <mxGeometry relative="1" as="geometry">
            <mxPoint x="640" y="-993" as="sourcePoint" />
            <mxPoint x="640" y="-1050" as="targetPoint" />
          </mxGeometry>
        </mxCell>
        <mxCell id="WMFRrhG3XQZSGfJr9Rvr-44" value="publish&lt;br&gt;(&quot;show&quot;)" style="text;html=1;strokeColor=none;fillColor=none;align=center;verticalAlign=middle;whiteSpace=wrap;fontSize=9;rotation=-90;sketch=1;fontColor=#E0E0E0;" vertex="1" parent="2yQFaiDKGjFKa2G4Hm0Y-1">
          <mxGeometry x="605" y="-1030" width="40" height="20" as="geometry" />
        </mxCell>
        <mxCell id="WMFRrhG3XQZSGfJr9Rvr-45" value="subscribe&lt;br&gt;(&quot;show&quot;)" style="text;html=1;strokeColor=none;fillColor=none;align=center;verticalAlign=middle;whiteSpace=wrap;fontSize=9;rotation=90;sketch=1;fontColor=#E0E0E0;" vertex="1" parent="2yQFaiDKGjFKa2G4Hm0Y-1">
          <mxGeometry x="630" y="-1030" width="50" height="22" as="geometry" />
        </mxCell>
        <mxCell id="WMFRrhG3XQZSGfJr9Rvr-46" value="" style="shape=image;verticalLabelPosition=bottom;labelBackgroundColor=#ffffff;verticalAlign=top;aspect=fixed;imageAspect=0;image=data:image/png,iVBORw0KGgoAAAANSUhEUgAAAPwAAAD8CAYAAABTq8lnAAAN8UlEQVR4Ae2dwW4URxRF+RYsdkj5Fb6A3yALpLDPB0RykCKhZJ0NK/YOyoIVii2BvEEmQrZiWUk2YUFHF1R4aKbtGk931Zt3D9KoPU1PV3W9e+q+ma6uunWLf7QALeDVAi9/uP2Il18bHP14+zvi7hX3jz2bgn64vzfwog3QQG4NADwdHR29kQYA3ijYuHdu966JL8ADPA5vpAGANwp2jQNwTO4sAOABHoc30gDAGwUb987t3jXxBXiAx+GNNADwRsGucQCOyZ0FADzA4/BGGgB4o2Dj3rnduya+NwL+9ODbgRdtgAbiaKAGdh1zY+CHi5OBF22ABvprQB0vwNMh0SGbaADgTQKNu/Z31wgxAHiAx92NNADwRsGO4DDUoW+mAfAAj8MbaQDgjYKNu/Z11wjtD/AAj8MbaQDgjYIdwWGoQ98sA+ABHoc30gDAGwUbd+3rrhHaH+ABHoc30gDAGwU7gsNQh75ZBsADPA5vpAGANwo27trXXSO0P8ADPA5vpAGANwp2BIehDn2zDIAHeBzeSAMAbxRs3LWvu0Zof4AHeBzeSAMAbxTsCA5DHfpmGQAP8Di8kQYA3ijYuGtfd43Q/gAP8Di8kQYA3ijYERyGOvTNMgAe4HF4Iw0AvFGwcde+7hqh/QEe4HF4Iw0AvFGwIzgMdeibZQA8wOPwRhoAeKNg46593TVC+wM8wOPwRhoAeKNgR3AY6tA3ywB4gMfhjTQA8EbBxl37umuE9gf4SuD/+/P34Z+jX4bzF98PZ88fDqcHDz5u9V779f8RAkodloM6gwYA/grg//7jp+Hts/vD65+/GQ7396596Tgdr88B3nLgtWzbbBoA+BHwH/46Hs5+e1gN+VRHIPh1ng/nx8A/auOWwN6krMwaAPgVMSo9f/Xk7rVOPgX5uv06n857E+HxmfZZQnYNAPzFyfD+3YvhzdN7s4I+hl/nVzlA3B7imjZ30YA98P++/nXr9H0M99R7pfkqr0aAHNOuY3DSgDXw+nX96PGdRZ19DL/KU7kA3Q7oq9raTQO2wKtXbw17gV/l4vT9gXfUgCXw+r5We6utQDr3VuXznb4f9K4asAR+6R/oajsH1eOqdJP/W65DcNWAHfC67VILZIvjuGW3HNRTHaazBqyA1yCYue+zb9spqD4a6DElTvbP2yG4a8AKeI182xbQJT6vegH2vGBPtae7BqyA7/1D3VRnoXpNCZT983YE7hqwAV4PQUwBF2E/D9zMC/a6jhINnAw2wOsptghgT9VB9VsnUvbN1xGgASPgo6ZypQMgrZ8P7KlOEg2YAK+JCwpYkbdMorEc9GjgU9tapPQaLx0Z9FI3xtgvBzwaMAI+2kCLAvh4yyCc5YBHA0bAaw66MVwR36ueU98/2b9dZ4AGjIDXhJMRAR/XSfUE7O3Anmo/NGAEPL37MhBNwRVxPxowAp7vbwCPBoyA5xdagEcDRsBzDxbg0YAR8PpOySgroEcDJiPtBDzjqAEeDRgBz5NSAI8GjICPnNbz4Ey7zihqWt9KAxZj6ct9YffZTko7OG/dNWAFvOaOCzmnHQtONhth6K4BK+DlbNEGYKg+zo7b49qdNWAHvATmOid5D7iilumqAUvgXVcdiQpfj3q5asASeAnMcV2xHmBFLtNRA7bAS4gaX916QUlWj213C66ms3HTgDXwEoR6+Vb3ZlWOyqsRIse06xicNGAPvMDS97mlf8TR+VUOILcDeZO2dtEAwF9cClC3a+a+T6/zcevtso03gbDHsdk1APArwEtgWmxQo7G2TfP1eZ2HhSJ3B/bSwWTWAMCPgC9B11YPW+gJq1r4dZyO1+dWz8Pfuwd9iVk2DQD8FcCXoGurCRT0i65SPs2PpkkRtdV77df/rx7P37sL+VTsMmgA4CuBnxIB+/OBnTmmAA/wZCZGGgB4o2Bndi6urS7TAniAx+GNNADwRsHGBetcMHM7ATzA4/BGGgB4o2Bndi6urS57AXiAx+GNNADwRsHGBetcMHM7ATzA4/BGGgB4o2Bndi6urS57AXiAx+GNNADwRsHGBetcMHM7ATzA4/BGGgB4o2Bv4lwZHgXd5HpdjgV4gP/s8Nkme3CBeJPrBHhz4DUF16xTerFO3ucOdBMQWx0L8MbAZ5+wsRVEu1QOwBsC7zIl8y6B2KquAG8GvNOiC60g2qVyAN4IeLdllXYJxFZ1BXgT4OXsrdfRO9zfG/RSuSyxFWPQD8AbAK/v7LVz6xdI596qfJba6g89wBsAv/S6ebWdg+rRKnWlnPWdC8AnB1633mqBbHGc6gOM62Fs0S4Anxh4rZE29+KY23YKqg/r7QE8vf4CHY9G0G0L6BKfV71auBllfN2x4PALgBZFaL1/qJvqLFSvKG3kVg+ATwq8HoSZAi7CflbY/dp9W3Q+AJ8UeC1bHQHsqTqofi0EThlfdiwAnxT4qOl86QBI678EsVXHBPAJgdfkFQWsyFvVs5XQKedTBwPwCYHXmPnIoJe6qZ6A2NbpAT4h8NEG2xTAx1sG4bSFXZ0rwCcE/ux5zPvvY+BVTxy+LfQAnxD404MHO5HSq54AD/CIYMtOCIdvC9EudVo4/JZwRQw23+EBfkqXAJ8QeH6lB3iATwj2VFC5Dw/wU9rA4ZN2BIy0A/p10AN8UuAZSw/wAJ8U7nWB5Wk5gF+nCxw+cScQNa3nwZl+nRHAJwaeGW/6gbXOXSPsA/jEwGvuuJBz2rHgZLfBZQCfGHg5SrRBODww0zfrAPjkwAt65qXvC1mEVL7UAeANgGflGYAHeAPQS5C1ZW05oJcOcHgj8Fk9FugB3gj44vSt7s+rHFaNjdXJALwZ8IJe3+mX/iFP52e12Fiwk9Ibwq6gl5dukc19n17n49bbZRuXto6yxeFXAIgSlJb10IKTGpG3bZqvz+s8LBQZF3bpCuDNgV/tXPTAjZ6yq4Vfx+l4lo2KDflqjAEe4D+n+KvC0CQa+lVf6bnmyNOEk9rqvfaziMTuQL4aV4AH+LXAr4qEv3cT7nVxA3iAB3gjDQC8UbDX9fjsy+PeNbEEeIDH4Y00APBGwa5xAI7J7fgAD/A4vJEGAN4o2Lh3bveuiS/AAzwOb6QBgDcKdo0DcEzuLADgAR6HN9IAwBsFG/fO7d418QV4gMfhjTQA8EbBrnEAjsmdBQA8wOPwRhoAeKNg49653bsmvgAP8Di8kQYA3ijYNQ7AMbmzAIAHeBzeSAMAbxRs3Du3e9fEF+ABHoc30gDAVwabSR1xxwwaAPgrgGfaZiDPpgGAHwGvhRRmXZjh/JiUedTGNd81ex6TWQMAvyJGll7C0bNrAOBZXJEMxEgD9sBrOePapZUO9/eGbV4qh+WT42URThqwBl5LJh09vrMVxJt2ACpP5fb8jkrZl52OmwZsgVev3hr20jmoXJz+ErpeHZCjBiyBf//uRbM0vkA+3iq9Vz16id29XFcNWAL/5um9pmn8GPbyXvVwB6/X9btqwA543XYpwEXYqj69RO9arrMGrID/cH48vHpyNxTwqo8GerjC1/q63TVgBbxG0EVw9XEdVK/Wwnctz10DVsC3ut8+Bvq696qXK4Ctr9tdAzbA6yGI68Dr+f+qX2vxu5WHBk4GG+DfPrsfGnjVzw3A1teLBoyAj5rKlayCtH75gThowAR4TVxQwIq8VT1bu55LeWjgU4dqkdJrvHRk0EvdGGO/nMujASPgow20KICPtwzCWQ54NGAE/NnzmPffx8Crni4pduvrRANGwJ8ePNiJlF71bA2CS3lowAh4evflUuVd6TDQgBHwfH8DeDRgBDy/0AI8GjACnnuwAI8GjIDX90xGWQE9GjAZaSfgGUcN8GjACHielAJ4NGAEfOS0ngdn2nVGUdP6VhqwGEtf7hW7z3ZS2sF5664BK+A1d1zIOe1YcLLZCEN3DVgBL2eLNgBD9XF23B7X7qwBO+AlMNc5yXvAFbVMVw1YAu+66khU+HrUy1UDlsBLYI7rivUAK3KZjhqwBV5C1Pjq1gtKsnpsu1twNZ2NmwasgZcg1Mu3ujerclRejRA5pl3H4KQBe+AFlr7PLf0jjs6vcgC5HcibtLWLBgD+4lKAul0z9316nY9bb5dtvAmEPY7NrgGAXwFeAtNigxqNtW2ar8/rPCwUuTuwlw4mswYAfgR8Cbq2ethCT1jVwq/jdLw+t3oe/t496EvMsmkA4K8AvgRdW02goF90lfJpfjRNiqit3mu//n/1eP7eXcinYpdBAwBfCfyUCNifD+zMMQV4gCczMdIAwBsFO7NzcW11mRbAAzwOb6QBgDcKNi5Y54KZ2wngAR6HN9IAwBsFO7NzcW112QvAAzwOb6QBgDcKNi5Y54KZ2wngAR6HN9IAwBsFO7NzcW112QvAAzwOb6QBgDcKNi5Y54KZ2wngAR6HN9IAwBsFO7NzcW112QvAAzwOb6QBgDcKNi5Y54KZ2wngAR6HN9IAwBsFO7NzcW112QvAAzwOb6QBgDcKNi5Y54KZ2wngAR6HN9IAwBsFO7NzcW112QvAAzwOb6QBgDcKNi5Y54KZ2wngAR6HN9IAwBsFO7NzcW112QvAAzwOb6QBgDcKNi5Y54KZ26kJ8CqEF22ABmJo4HB/b6h53dK/lz/cflRzMMfUNSrtRDtF1QDAV/aMUQNIvehcNtEAwAN8VSq4iag4Nm4nBPAAD/BGGgB4o2DjvHGdt1VsAB7gcXgjDQC8UbBbuQjlxM0kAB7gcXgjDQC8UbBx3rjO2yo2AA/wOLyRBv4H/fhzYZDvMk0AAAAASUVORK5CYII=;sketch=1;" vertex="1" parent="2yQFaiDKGjFKa2G4Hm0Y-1">
          <mxGeometry x="673" y="-959.5" width="27" height="27" as="geometry" />
        </mxCell>
        <mxCell id="WMFRrhG3XQZSGfJr9Rvr-47" value="" style="shape=image;html=1;verticalAlign=top;verticalLabelPosition=bottom;labelBackgroundColor=#ffffff;imageAspect=0;aspect=fixed;image=https://cdn0.iconfinder.com/data/icons/audio-controls-ui-icons/40/pointer-128.png;fontSize=9;fontColor=#E0E0E0;strokeColor=#E6E6E6;" vertex="1" parent="2yQFaiDKGjFKa2G4Hm0Y-1">
          <mxGeometry x="676.5" y="-950" width="20" height="20" as="geometry" />
        </mxCell>
      </root>
    </mxGraphModel>
  </diagram>
  <diagram id="zDz7FgCMF2kOi0Gikt3j" name="Page-5">
    <mxGraphModel dx="815" dy="1581" grid="1" gridSize="10" guides="1" tooltips="1" connect="1" arrows="1" fold="1" page="1" pageScale="1" pageWidth="827" pageHeight="1169" math="0" shadow="0">
      <root>
        <mxCell id="xvmUoc1rFGaK8NM9gwH8-0" />
        <mxCell id="xvmUoc1rFGaK8NM9gwH8-1" parent="xvmUoc1rFGaK8NM9gwH8-0" />
        <mxCell id="HFoQ_YUNHdDnuqGjo8Fi-0" value="" style="whiteSpace=wrap;html=1;fillColor=none;sketch=1;" vertex="1" parent="xvmUoc1rFGaK8NM9gwH8-1">
          <mxGeometry x="570" y="-1127.5" width="140" height="205" as="geometry" />
        </mxCell>
        <mxCell id="HFoQ_YUNHdDnuqGjo8Fi-1" value="View V3" style="whiteSpace=wrap;html=1;fontColor=#333333;fillStyle=solid;fontStyle=1;strokeColor=#CC0066;fillColor=#FFCCE6;sketch=1;" vertex="1" parent="xvmUoc1rFGaK8NM9gwH8-1">
          <mxGeometry x="580" y="-992.5" width="120" height="60" as="geometry" />
        </mxCell>
        <mxCell id="HFoQ_YUNHdDnuqGjo8Fi-2" value="" style="whiteSpace=wrap;html=1;fillColor=none;sketch=1;" vertex="1" parent="xvmUoc1rFGaK8NM9gwH8-1">
          <mxGeometry x="630" y="-800.5" width="140" height="205" as="geometry" />
        </mxCell>
        <mxCell id="HFoQ_YUNHdDnuqGjo8Fi-3" value="Model M1" style="whiteSpace=wrap;html=1;fillColor=#f8cecc;strokeColor=#b85450;fillStyle=zigzag;fontColor=#990000;fontStyle=1;sketch=1;" vertex="1" parent="xvmUoc1rFGaK8NM9gwH8-1">
          <mxGeometry x="640" y="-783" width="120" height="60" as="geometry" />
        </mxCell>
        <mxCell id="HFoQ_YUNHdDnuqGjo8Fi-4" style="edgeStyle=none;orthogonalLoop=1;jettySize=auto;html=1;fontSize=12;fontColor=#000000;exitX=0.734;exitY=0.884;exitDx=0;exitDy=0;exitPerimeter=0;startArrow=none;startFill=0;sketch=1;entryX=0;entryY=0.5;entryDx=0;entryDy=0;" edge="1" parent="xvmUoc1rFGaK8NM9gwH8-1" source="HFoQ_YUNHdDnuqGjo8Fi-6" target="HFoQ_YUNHdDnuqGjo8Fi-3">
          <mxGeometry relative="1" as="geometry">
            <mxPoint x="690" y="-816" as="targetPoint" />
          </mxGeometry>
        </mxCell>
        <mxCell id="HFoQ_YUNHdDnuqGjo8Fi-5" style="edgeStyle=none;orthogonalLoop=1;jettySize=auto;html=1;entryX=0;entryY=0.5;entryDx=0;entryDy=0;fontSize=12;fontColor=#000000;startArrow=none;startFill=0;sketch=1;exitX=0.473;exitY=0.094;exitDx=0;exitDy=0;exitPerimeter=0;" edge="1" parent="xvmUoc1rFGaK8NM9gwH8-1" source="HFoQ_YUNHdDnuqGjo8Fi-6" target="HFoQ_YUNHdDnuqGjo8Fi-40">
          <mxGeometry relative="1" as="geometry">
            <mxPoint x="370" y="-960" as="sourcePoint" />
            <mxPoint x="590" y="-1089" as="targetPoint" />
          </mxGeometry>
        </mxCell>
        <mxCell id="HFoQ_YUNHdDnuqGjo8Fi-6" value="Reflector" style="ellipse;shape=cloud;whiteSpace=wrap;html=1;fontSize=21;strokeColor=#6c8ebf;fillColor=#CCFFFF;fontColor=#0066CC;sketch=1;" vertex="1" parent="xvmUoc1rFGaK8NM9gwH8-1">
          <mxGeometry x="310" y="-920" width="326" height="130" as="geometry" />
        </mxCell>
        <mxCell id="HFoQ_YUNHdDnuqGjo8Fi-7" style="edgeStyle=none;orthogonalLoop=1;jettySize=auto;html=1;fontSize=12;fontColor=#000000;exitX=0;exitY=0.5;exitDx=0;exitDy=0;startArrow=none;startFill=0;sketch=1;entryX=0.626;entryY=0.953;entryDx=0;entryDy=0;entryPerimeter=0;strokeColor=#E0E0E0;" edge="1" parent="xvmUoc1rFGaK8NM9gwH8-1" source="HFoQ_YUNHdDnuqGjo8Fi-38" target="HFoQ_YUNHdDnuqGjo8Fi-6">
          <mxGeometry relative="1" as="geometry">
            <mxPoint x="680" y="-620" as="sourcePoint" />
          </mxGeometry>
        </mxCell>
        <mxCell id="HFoQ_YUNHdDnuqGjo8Fi-8" value="Client C2" style="text;html=1;strokeColor=none;fillColor=none;align=center;verticalAlign=middle;whiteSpace=wrap;fontStyle=1;sketch=1;" vertex="1" parent="xvmUoc1rFGaK8NM9gwH8-1">
          <mxGeometry x="665" y="-595.5" width="70" height="20" as="geometry" />
        </mxCell>
        <mxCell id="HFoQ_YUNHdDnuqGjo8Fi-9" value="" style="outlineConnect=0;dashed=0;verticalLabelPosition=bottom;verticalAlign=top;align=center;html=1;fontSize=12;fontStyle=0;aspect=fixed;pointerEvents=1;shape=mxgraph.aws4.user;fillColor=#333333;strokeWidth=1;sketch=1;" vertex="1" parent="xvmUoc1rFGaK8NM9gwH8-1">
          <mxGeometry x="681" y="-575.5" width="38" height="38" as="geometry" />
        </mxCell>
        <mxCell id="HFoQ_YUNHdDnuqGjo8Fi-10" value="publish(&quot;rollDice&quot;)" style="text;html=1;strokeColor=none;fillColor=none;align=center;verticalAlign=middle;whiteSpace=wrap;fontSize=12;rotation=52;sketch=1;fontColor=#E0E0E0;" vertex="1" parent="xvmUoc1rFGaK8NM9gwH8-1">
          <mxGeometry x="515" y="-723" width="106" height="20" as="geometry" />
        </mxCell>
        <mxCell id="HFoQ_YUNHdDnuqGjo8Fi-11" value="subscribe&lt;br&gt;(&quot;rollDice&quot;)" style="text;html=1;strokeColor=none;fillColor=none;align=center;verticalAlign=middle;whiteSpace=wrap;fontSize=12;rotation=29;sketch=1;" vertex="1" parent="xvmUoc1rFGaK8NM9gwH8-1">
          <mxGeometry x="571.69" y="-806.83" width="64.31" height="30.83" as="geometry" />
        </mxCell>
        <mxCell id="HFoQ_YUNHdDnuqGjo8Fi-12" style="edgeStyle=none;orthogonalLoop=1;jettySize=auto;html=1;entryX=0.516;entryY=0.118;entryDx=0;entryDy=0;entryPerimeter=0;fontSize=12;fontColor=#000000;exitX=0;exitY=0.5;exitDx=0;exitDy=0;startArrow=none;startFill=0;sketch=1;strokeColor=#E0E0E0;" edge="1" parent="xvmUoc1rFGaK8NM9gwH8-1" source="HFoQ_YUNHdDnuqGjo8Fi-1" target="HFoQ_YUNHdDnuqGjo8Fi-6">
          <mxGeometry relative="1" as="geometry">
            <mxPoint x="533.75" y="-893" as="targetPoint" />
            <mxPoint x="590" y="-1009" as="sourcePoint" />
          </mxGeometry>
        </mxCell>
        <mxCell id="HFoQ_YUNHdDnuqGjo8Fi-13" value="Client C3" style="text;html=1;strokeColor=none;fillColor=none;align=center;verticalAlign=middle;whiteSpace=wrap;fontStyle=1;sketch=1;" vertex="1" parent="xvmUoc1rFGaK8NM9gwH8-1">
          <mxGeometry x="605" y="-922.5" width="70" height="20" as="geometry" />
        </mxCell>
        <mxCell id="HFoQ_YUNHdDnuqGjo8Fi-14" value="" style="outlineConnect=0;dashed=0;verticalLabelPosition=bottom;verticalAlign=top;align=center;html=1;fontSize=12;fontStyle=0;aspect=fixed;pointerEvents=1;shape=mxgraph.aws4.user;fillColor=#333333;strokeWidth=1;sketch=1;" vertex="1" parent="xvmUoc1rFGaK8NM9gwH8-1">
          <mxGeometry x="621" y="-902.5" width="38" height="38" as="geometry" />
        </mxCell>
        <mxCell id="HFoQ_YUNHdDnuqGjo8Fi-15" value="publish&lt;br&gt;(&quot;rollDice&quot;)" style="text;html=1;strokeColor=none;fillColor=none;align=center;verticalAlign=middle;whiteSpace=wrap;fontSize=12;rotation=331;sketch=1;fontColor=#E0E0E0;" vertex="1" parent="xvmUoc1rFGaK8NM9gwH8-1">
          <mxGeometry x="507.92" y="-936.7800000000001" width="63.77" height="33.56" as="geometry" />
        </mxCell>
        <mxCell id="HFoQ_YUNHdDnuqGjo8Fi-16" value="subscribe(&quot;rollDice&quot;)" style="text;html=1;strokeColor=none;fillColor=none;align=center;verticalAlign=middle;whiteSpace=wrap;fontSize=12;rotation=304;sketch=1;" vertex="1" parent="xvmUoc1rFGaK8NM9gwH8-1">
          <mxGeometry x="450" y="-994" width="106" height="20" as="geometry" />
        </mxCell>
        <mxCell id="HFoQ_YUNHdDnuqGjo8Fi-17" style="edgeStyle=none;orthogonalLoop=1;jettySize=auto;html=1;exitX=0.5;exitY=1;exitDx=0;exitDy=0;fontSize=12;fontColor=#000000;sketch=1;" edge="1" parent="xvmUoc1rFGaK8NM9gwH8-1">
          <mxGeometry relative="1" as="geometry">
            <mxPoint x="608.7462562898772" y="-746.1164542430624" as="sourcePoint" />
            <mxPoint x="608.7462562898772" y="-746.1164542430624" as="targetPoint" />
          </mxGeometry>
        </mxCell>
        <mxCell id="HFoQ_YUNHdDnuqGjo8Fi-18" value="" style="whiteSpace=wrap;html=1;fillColor=none;sketch=1;" vertex="1" parent="xvmUoc1rFGaK8NM9gwH8-1">
          <mxGeometry x="80" y="-966" width="140" height="205" as="geometry" />
        </mxCell>
        <mxCell id="HFoQ_YUNHdDnuqGjo8Fi-19" value="Model M1" style="whiteSpace=wrap;html=1;fillColor=#f8cecc;strokeColor=#b85450;fillStyle=zigzag;fontColor=#990000;fontStyle=1;sketch=1;" vertex="1" parent="xvmUoc1rFGaK8NM9gwH8-1">
          <mxGeometry x="90" y="-950" width="120" height="60" as="geometry" />
        </mxCell>
        <mxCell id="HFoQ_YUNHdDnuqGjo8Fi-20" value="Client C1" style="text;html=1;strokeColor=none;fillColor=none;align=center;verticalAlign=middle;whiteSpace=wrap;fontStyle=1;sketch=1;" vertex="1" parent="xvmUoc1rFGaK8NM9gwH8-1">
          <mxGeometry x="115" y="-760" width="70" height="20" as="geometry" />
        </mxCell>
        <mxCell id="HFoQ_YUNHdDnuqGjo8Fi-21" value="Session XYZ" style="text;html=1;align=center;verticalAlign=middle;whiteSpace=wrap;fontSize=14;fillColor=#ffffff;fontStyle=1;sketch=0;" vertex="1" parent="xvmUoc1rFGaK8NM9gwH8-1">
          <mxGeometry x="120" y="-976" width="90" height="20" as="geometry" />
        </mxCell>
        <mxCell id="HFoQ_YUNHdDnuqGjo8Fi-22" value="" style="outlineConnect=0;dashed=0;verticalLabelPosition=bottom;verticalAlign=top;align=center;html=1;fontSize=12;fontStyle=0;aspect=fixed;pointerEvents=1;shape=mxgraph.aws4.user;fillColor=#333333;strokeWidth=1;sketch=1;" vertex="1" parent="xvmUoc1rFGaK8NM9gwH8-1">
          <mxGeometry x="131" y="-740" width="38" height="38" as="geometry" />
        </mxCell>
        <mxCell id="HFoQ_YUNHdDnuqGjo8Fi-23" style="orthogonalLoop=1;jettySize=auto;html=1;entryX=0.101;entryY=0.664;entryDx=0;entryDy=0;entryPerimeter=0;fontColor=#990000;startArrow=none;startFill=0;sketch=1;strokeColor=#E0E0E0;" edge="1" parent="xvmUoc1rFGaK8NM9gwH8-1">
          <mxGeometry relative="1" as="geometry">
            <mxPoint x="210" y="-805.8997924696117" as="sourcePoint" />
            <mxPoint x="342.92599999999993" y="-833.68" as="targetPoint" />
          </mxGeometry>
        </mxCell>
        <mxCell id="HFoQ_YUNHdDnuqGjo8Fi-24" style="edgeStyle=none;orthogonalLoop=1;jettySize=auto;html=1;entryX=1;entryY=0.5;entryDx=0;entryDy=0;fontSize=12;fontColor=#000000;exitX=0.07;exitY=0.4;exitDx=0;exitDy=0;exitPerimeter=0;startArrow=none;startFill=0;sketch=1;" edge="1" parent="xvmUoc1rFGaK8NM9gwH8-1" target="HFoQ_YUNHdDnuqGjo8Fi-19">
          <mxGeometry relative="1" as="geometry">
            <mxPoint x="332.81999999999994" y="-868" as="sourcePoint" />
            <mxPoint x="210" y="-880" as="targetPoint" />
          </mxGeometry>
        </mxCell>
        <mxCell id="HFoQ_YUNHdDnuqGjo8Fi-25" value="publish(&quot;rollDice&quot;)" style="text;html=1;strokeColor=none;fillColor=none;align=center;verticalAlign=middle;whiteSpace=wrap;fontSize=12;rotation=348;sketch=1;fontColor=#E0E0E0;" vertex="1" parent="xvmUoc1rFGaK8NM9gwH8-1">
          <mxGeometry x="230.03" y="-821.42" width="110" height="20.75" as="geometry" />
        </mxCell>
        <mxCell id="HFoQ_YUNHdDnuqGjo8Fi-26" value="subscribe(&quot;rollDice&quot;)" style="text;html=1;strokeColor=none;fillColor=none;align=center;verticalAlign=middle;whiteSpace=wrap;fontSize=12;rotation=23;sketch=1;" vertex="1" parent="xvmUoc1rFGaK8NM9gwH8-1">
          <mxGeometry x="225" y="-912" width="106" height="20" as="geometry" />
        </mxCell>
        <mxCell id="HFoQ_YUNHdDnuqGjo8Fi-27" value="View V1" style="whiteSpace=wrap;html=1;fontColor=#333333;fillStyle=solid;fontStyle=1;fillColor=#B3FF66;strokeColor=#66FF66;sketch=1;" vertex="1" parent="xvmUoc1rFGaK8NM9gwH8-1">
          <mxGeometry x="90" y="-833" width="120" height="60" as="geometry" />
        </mxCell>
        <mxCell id="HFoQ_YUNHdDnuqGjo8Fi-28" value="" style="shape=image;verticalLabelPosition=bottom;labelBackgroundColor=#ffffff;verticalAlign=top;aspect=fixed;imageAspect=0;image=data:image/png,iVBORw0KGgoAAAANSUhEUgAAAPwAAAD8CAYAAABTq8lnAAAN8UlEQVR4Ae2dwW4URxRF+RYsdkj5Fb6A3yALpLDPB0RykCKhZJ0NK/YOyoIVii2BvEEmQrZiWUk2YUFHF1R4aKbtGk931Zt3D9KoPU1PV3W9e+q+ma6uunWLf7QALeDVAi9/uP2Il18bHP14+zvi7hX3jz2bgn64vzfwog3QQG4NADwdHR29kQYA3ijYuHdu966JL8ADPA5vpAGANwp2jQNwTO4sAOABHoc30gDAGwUb987t3jXxBXiAx+GNNADwRsGucQCOyZ0FADzA4/BGGgB4o2Dj3rnduya+NwL+9ODbgRdtgAbiaKAGdh1zY+CHi5OBF22ABvprQB0vwNMh0SGbaADgTQKNu/Z31wgxAHiAx92NNADwRsGO4DDUoW+mAfAAj8MbaQDgjYKNu/Z11wjtD/AAj8MbaQDgjYIdwWGoQ98sA+ABHoc30gDAGwUbd+3rrhHaH+ABHoc30gDAGwU7gsNQh75ZBsADPA5vpAGANwo27trXXSO0P8ADPA5vpAGANwp2BIehDn2zDIAHeBzeSAMAbxRs3LWvu0Zof4AHeBzeSAMAbxTsCA5DHfpmGQAP8Di8kQYA3ijYuGtfd43Q/gAP8Di8kQYA3ijYERyGOvTNMgAe4HF4Iw0AvFGwcde+7hqh/QEe4HF4Iw0AvFGwIzgMdeibZQA8wOPwRhoAeKNg46593TVC+wM8wOPwRhoAeKNgR3AY6tA3ywB4gMfhjTQA8EbBxl37umuE9gf4SuD/+/P34Z+jX4bzF98PZ88fDqcHDz5u9V779f8RAkodloM6gwYA/grg//7jp+Hts/vD65+/GQ7396596Tgdr88B3nLgtWzbbBoA+BHwH/46Hs5+e1gN+VRHIPh1ng/nx8A/auOWwN6krMwaAPgVMSo9f/Xk7rVOPgX5uv06n857E+HxmfZZQnYNAPzFyfD+3YvhzdN7s4I+hl/nVzlA3B7imjZ30YA98P++/nXr9H0M99R7pfkqr0aAHNOuY3DSgDXw+nX96PGdRZ19DL/KU7kA3Q7oq9raTQO2wKtXbw17gV/l4vT9gXfUgCXw+r5We6utQDr3VuXznb4f9K4asAR+6R/oajsH1eOqdJP/W65DcNWAHfC67VILZIvjuGW3HNRTHaazBqyA1yCYue+zb9spqD4a6DElTvbP2yG4a8AKeI182xbQJT6vegH2vGBPtae7BqyA7/1D3VRnoXpNCZT983YE7hqwAV4PQUwBF2E/D9zMC/a6jhINnAw2wOsptghgT9VB9VsnUvbN1xGgASPgo6ZypQMgrZ8P7KlOEg2YAK+JCwpYkbdMorEc9GjgU9tapPQaLx0Z9FI3xtgvBzwaMAI+2kCLAvh4yyCc5YBHA0bAaw66MVwR36ueU98/2b9dZ4AGjIDXhJMRAR/XSfUE7O3Anmo/NGAEPL37MhBNwRVxPxowAp7vbwCPBoyA5xdagEcDRsBzDxbg0YAR8PpOySgroEcDJiPtBDzjqAEeDRgBz5NSAI8GjICPnNbz4Ey7zihqWt9KAxZj6ct9YffZTko7OG/dNWAFvOaOCzmnHQtONhth6K4BK+DlbNEGYKg+zo7b49qdNWAHvATmOid5D7iilumqAUvgXVcdiQpfj3q5asASeAnMcV2xHmBFLtNRA7bAS4gaX916QUlWj213C66ms3HTgDXwEoR6+Vb3ZlWOyqsRIse06xicNGAPvMDS97mlf8TR+VUOILcDeZO2dtEAwF9cClC3a+a+T6/zcevtso03gbDHsdk1APArwEtgWmxQo7G2TfP1eZ2HhSJ3B/bSwWTWAMCPgC9B11YPW+gJq1r4dZyO1+dWz8Pfuwd9iVk2DQD8FcCXoGurCRT0i65SPs2PpkkRtdV77df/rx7P37sL+VTsMmgA4CuBnxIB+/OBnTmmAA/wZCZGGgB4o2Bndi6urS7TAniAx+GNNADwRsHGBetcMHM7ATzA4/BGGgB4o2Bndi6urS57AXiAx+GNNADwRsHGBetcMHM7ATzA4/BGGgB4o2Bndi6urS57AXiAx+GNNADwRsHGBetcMHM7ATzA4/BGGgB4o2Bv4lwZHgXd5HpdjgV4gP/s8Nkme3CBeJPrBHhz4DUF16xTerFO3ucOdBMQWx0L8MbAZ5+wsRVEu1QOwBsC7zIl8y6B2KquAG8GvNOiC60g2qVyAN4IeLdllXYJxFZ1BXgT4OXsrdfRO9zfG/RSuSyxFWPQD8AbAK/v7LVz6xdI596qfJba6g89wBsAv/S6ebWdg+rRKnWlnPWdC8AnB1633mqBbHGc6gOM62Fs0S4Anxh4rZE29+KY23YKqg/r7QE8vf4CHY9G0G0L6BKfV71auBllfN2x4PALgBZFaL1/qJvqLFSvKG3kVg+ATwq8HoSZAi7CflbY/dp9W3Q+AJ8UeC1bHQHsqTqofi0EThlfdiwAnxT4qOl86QBI678EsVXHBPAJgdfkFQWsyFvVs5XQKedTBwPwCYHXmPnIoJe6qZ6A2NbpAT4h8NEG2xTAx1sG4bSFXZ0rwCcE/ux5zPvvY+BVTxy+LfQAnxD404MHO5HSq54AD/CIYMtOCIdvC9EudVo4/JZwRQw23+EBfkqXAJ8QeH6lB3iATwj2VFC5Dw/wU9rA4ZN2BIy0A/p10AN8UuAZSw/wAJ8U7nWB5Wk5gF+nCxw+cScQNa3nwZl+nRHAJwaeGW/6gbXOXSPsA/jEwGvuuJBz2rHgZLfBZQCfGHg5SrRBODww0zfrAPjkwAt65qXvC1mEVL7UAeANgGflGYAHeAPQS5C1ZW05oJcOcHgj8Fk9FugB3gj44vSt7s+rHFaNjdXJALwZ8IJe3+mX/iFP52e12Fiwk9Ibwq6gl5dukc19n17n49bbZRuXto6yxeFXAIgSlJb10IKTGpG3bZqvz+s8LBQZF3bpCuDNgV/tXPTAjZ6yq4Vfx+l4lo2KDflqjAEe4D+n+KvC0CQa+lVf6bnmyNOEk9rqvfaziMTuQL4aV4AH+LXAr4qEv3cT7nVxA3iAB3gjDQC8UbDX9fjsy+PeNbEEeIDH4Y00APBGwa5xAI7J7fgAD/A4vJEGAN4o2Lh3bveuiS/AAzwOb6QBgDcKdo0DcEzuLADgAR6HN9IAwBsFG/fO7d418QV4gMfhjTQA8EbBrnEAjsmdBQA8wOPwRhoAeKNg49653bsmvgAP8Di8kQYA3ijYNQ7AMbmzAIAHeBzeSAMAbxRs3Du3e9fEF+ABHoc30gDAVwabSR1xxwwaAPgrgGfaZiDPpgGAHwGvhRRmXZjh/JiUedTGNd81ex6TWQMAvyJGll7C0bNrAOBZXJEMxEgD9sBrOePapZUO9/eGbV4qh+WT42URThqwBl5LJh09vrMVxJt2ACpP5fb8jkrZl52OmwZsgVev3hr20jmoXJz+ErpeHZCjBiyBf//uRbM0vkA+3iq9Vz16id29XFcNWAL/5um9pmn8GPbyXvVwB6/X9btqwA543XYpwEXYqj69RO9arrMGrID/cH48vHpyNxTwqo8GerjC1/q63TVgBbxG0EVw9XEdVK/Wwnctz10DVsC3ut8+Bvq696qXK4Ctr9tdAzbA6yGI68Dr+f+qX2vxu5WHBk4GG+DfPrsfGnjVzw3A1teLBoyAj5rKlayCtH75gThowAR4TVxQwIq8VT1bu55LeWjgU4dqkdJrvHRk0EvdGGO/nMujASPgow20KICPtwzCWQ54NGAE/NnzmPffx8Crni4pduvrRANGwJ8ePNiJlF71bA2CS3lowAh4evflUuVd6TDQgBHwfH8DeDRgBDy/0AI8GjACnnuwAI8GjIDX90xGWQE9GjAZaSfgGUcN8GjACHielAJ4NGAEfOS0ngdn2nVGUdP6VhqwGEtf7hW7z3ZS2sF5664BK+A1d1zIOe1YcLLZCEN3DVgBL2eLNgBD9XF23B7X7qwBO+AlMNc5yXvAFbVMVw1YAu+66khU+HrUy1UDlsBLYI7rivUAK3KZjhqwBV5C1Pjq1gtKsnpsu1twNZ2NmwasgZcg1Mu3ujerclRejRA5pl3H4KQBe+AFlr7PLf0jjs6vcgC5HcibtLWLBgD+4lKAul0z9316nY9bb5dtvAmEPY7NrgGAXwFeAtNigxqNtW2ar8/rPCwUuTuwlw4mswYAfgR8Cbq2ethCT1jVwq/jdLw+t3oe/t496EvMsmkA4K8AvgRdW02goF90lfJpfjRNiqit3mu//n/1eP7eXcinYpdBAwBfCfyUCNifD+zMMQV4gCczMdIAwBsFO7NzcW11mRbAAzwOb6QBgDcKNi5Y54KZ2wngAR6HN9IAwBsFO7NzcW112QvAAzwOb6QBgDcKNi5Y54KZ2wngAR6HN9IAwBsFO7NzcW112QvAAzwOb6QBgDcKNi5Y54KZ2wngAR6HN9IAwBsFO7NzcW112QvAAzwOb6QBgDcKNi5Y54KZ2wngAR6HN9IAwBsFO7NzcW112QvAAzwOb6QBgDcKNi5Y54KZ2wngAR6HN9IAwBsFO7NzcW112QvAAzwOb6QBgDcKNi5Y54KZ2wngAR6HN9IAwBsFO7NzcW112QvAAzwOb6QBgDcKNi5Y54KZ26kJ8CqEF22ABmJo4HB/b6h53dK/lz/cflRzMMfUNSrtRDtF1QDAV/aMUQNIvehcNtEAwAN8VSq4iag4Nm4nBPAAD/BGGgB4o2DjvHGdt1VsAB7gcXgjDQC8UbBbuQjlxM0kAB7gcXgjDQC8UbBx3rjO2yo2AA/wOLyRBv4H/fhzYZDvMk0AAAAASUVORK5CYII=;sketch=1;" vertex="1" parent="xvmUoc1rFGaK8NM9gwH8-1">
          <mxGeometry x="183" y="-799" width="27" height="27" as="geometry" />
        </mxCell>
        <mxCell id="HFoQ_YUNHdDnuqGjo8Fi-29" value="init()" style="text;html=1;strokeColor=none;fillColor=none;align=center;verticalAlign=middle;whiteSpace=wrap;rounded=0;sketch=1;fontSize=12;fontColor=#000000;fontStyle=1" vertex="1" parent="xvmUoc1rFGaK8NM9gwH8-1">
          <mxGeometry x="170" y="-910" width="40" height="20" as="geometry" />
        </mxCell>
        <mxCell id="HFoQ_YUNHdDnuqGjo8Fi-30" style="orthogonalLoop=1;jettySize=auto;html=1;fontColor=#990000;startArrow=classic;startFill=1;sketch=1;entryX=0.5;entryY=1;entryDx=0;entryDy=0;exitX=0.5;exitY=0;exitDx=0;exitDy=0;strokeColor=#E0E0E0;" edge="1" parent="xvmUoc1rFGaK8NM9gwH8-1" source="HFoQ_YUNHdDnuqGjo8Fi-27" target="HFoQ_YUNHdDnuqGjo8Fi-19">
          <mxGeometry relative="1" as="geometry">
            <mxPoint x="220" y="-795.8997924696117" as="sourcePoint" />
            <mxPoint x="353" y="-740" as="targetPoint" />
          </mxGeometry>
        </mxCell>
        <mxCell id="HFoQ_YUNHdDnuqGjo8Fi-31" value="publish&lt;br&gt;(&quot;show&quot;)" style="text;html=1;strokeColor=none;fillColor=none;align=center;verticalAlign=middle;whiteSpace=wrap;fontSize=9;rotation=-90;sketch=1;fontColor=#E0E0E0;" vertex="1" parent="xvmUoc1rFGaK8NM9gwH8-1">
          <mxGeometry x="115" y="-870" width="40" height="20" as="geometry" />
        </mxCell>
        <mxCell id="HFoQ_YUNHdDnuqGjo8Fi-32" value="subscribe&lt;br&gt;(&quot;show&quot;)" style="text;html=1;strokeColor=none;fillColor=none;align=center;verticalAlign=middle;whiteSpace=wrap;fontSize=9;rotation=90;sketch=1;fontColor=#E0E0E0;" vertex="1" parent="xvmUoc1rFGaK8NM9gwH8-1">
          <mxGeometry x="140" y="-870" width="50" height="22" as="geometry" />
        </mxCell>
        <mxCell id="HFoQ_YUNHdDnuqGjo8Fi-33" value="Session XYZ" style="text;html=1;align=center;verticalAlign=middle;whiteSpace=wrap;fontSize=14;fillColor=#ffffff;fontStyle=1;sketch=0;" vertex="1" parent="xvmUoc1rFGaK8NM9gwH8-1">
          <mxGeometry x="670" y="-810" width="90" height="20" as="geometry" />
        </mxCell>
        <mxCell id="HFoQ_YUNHdDnuqGjo8Fi-34" value="init()" style="text;html=1;strokeColor=none;fillColor=none;align=center;verticalAlign=middle;whiteSpace=wrap;rounded=0;sketch=1;fontSize=12;fontColor=#000000;fontStyle=1" vertex="1" parent="xvmUoc1rFGaK8NM9gwH8-1">
          <mxGeometry x="720" y="-743" width="40" height="20" as="geometry" />
        </mxCell>
        <mxCell id="HFoQ_YUNHdDnuqGjo8Fi-35" style="orthogonalLoop=1;jettySize=auto;html=1;fontColor=#990000;startArrow=classic;startFill=1;sketch=1;entryX=0.5;entryY=1;entryDx=0;entryDy=0;exitX=0.5;exitY=0;exitDx=0;exitDy=0;strokeColor=#E0E0E0;" edge="1" parent="xvmUoc1rFGaK8NM9gwH8-1">
          <mxGeometry relative="1" as="geometry">
            <mxPoint x="700" y="-666" as="sourcePoint" />
            <mxPoint x="700" y="-723" as="targetPoint" />
          </mxGeometry>
        </mxCell>
        <mxCell id="HFoQ_YUNHdDnuqGjo8Fi-36" value="publish&lt;br&gt;(&quot;show&quot;)" style="text;html=1;strokeColor=none;fillColor=none;align=center;verticalAlign=middle;whiteSpace=wrap;fontSize=9;rotation=-90;sketch=1;fontColor=#E0E0E0;" vertex="1" parent="xvmUoc1rFGaK8NM9gwH8-1">
          <mxGeometry x="665" y="-703" width="40" height="20" as="geometry" />
        </mxCell>
        <mxCell id="HFoQ_YUNHdDnuqGjo8Fi-37" value="subscribe&lt;br&gt;(&quot;show&quot;)" style="text;html=1;strokeColor=none;fillColor=none;align=center;verticalAlign=middle;whiteSpace=wrap;fontSize=9;rotation=90;sketch=1;fontColor=#E0E0E0;" vertex="1" parent="xvmUoc1rFGaK8NM9gwH8-1">
          <mxGeometry x="690" y="-703" width="50" height="22" as="geometry" />
        </mxCell>
        <mxCell id="HFoQ_YUNHdDnuqGjo8Fi-38" value="View V2" style="whiteSpace=wrap;html=1;fontColor=#333333;fillStyle=solid;fontStyle=1;strokeColor=#6666FF;fillColor=#CCCCFF;sketch=1;" vertex="1" parent="xvmUoc1rFGaK8NM9gwH8-1">
          <mxGeometry x="640" y="-665.5" width="120" height="60" as="geometry" />
        </mxCell>
        <mxCell id="HFoQ_YUNHdDnuqGjo8Fi-39" value="" style="shape=image;verticalLabelPosition=bottom;labelBackgroundColor=#ffffff;verticalAlign=top;aspect=fixed;imageAspect=0;image=data:image/png,iVBORw0KGgoAAAANSUhEUgAAAPwAAAD8CAYAAABTq8lnAAAN8UlEQVR4Ae2dwW4URxRF+RYsdkj5Fb6A3yALpLDPB0RykCKhZJ0NK/YOyoIVii2BvEEmQrZiWUk2YUFHF1R4aKbtGk931Zt3D9KoPU1PV3W9e+q+ma6uunWLf7QALeDVAi9/uP2Il18bHP14+zvi7hX3jz2bgn64vzfwog3QQG4NADwdHR29kQYA3ijYuHdu966JL8ADPA5vpAGANwp2jQNwTO4sAOABHoc30gDAGwUb987t3jXxBXiAx+GNNADwRsGucQCOyZ0FADzA4/BGGgB4o2Dj3rnduya+NwL+9ODbgRdtgAbiaKAGdh1zY+CHi5OBF22ABvprQB0vwNMh0SGbaADgTQKNu/Z31wgxAHiAx92NNADwRsGO4DDUoW+mAfAAj8MbaQDgjYKNu/Z11wjtD/AAj8MbaQDgjYIdwWGoQ98sA+ABHoc30gDAGwUbd+3rrhHaH+ABHoc30gDAGwU7gsNQh75ZBsADPA5vpAGANwo27trXXSO0P8ADPA5vpAGANwp2BIehDn2zDIAHeBzeSAMAbxRs3LWvu0Zof4AHeBzeSAMAbxTsCA5DHfpmGQAP8Di8kQYA3ijYuGtfd43Q/gAP8Di8kQYA3ijYERyGOvTNMgAe4HF4Iw0AvFGwcde+7hqh/QEe4HF4Iw0AvFGwIzgMdeibZQA8wOPwRhoAeKNg46593TVC+wM8wOPwRhoAeKNgR3AY6tA3ywB4gMfhjTQA8EbBxl37umuE9gf4SuD/+/P34Z+jX4bzF98PZ88fDqcHDz5u9V779f8RAkodloM6gwYA/grg//7jp+Hts/vD65+/GQ7396596Tgdr88B3nLgtWzbbBoA+BHwH/46Hs5+e1gN+VRHIPh1ng/nx8A/auOWwN6krMwaAPgVMSo9f/Xk7rVOPgX5uv06n857E+HxmfZZQnYNAPzFyfD+3YvhzdN7s4I+hl/nVzlA3B7imjZ30YA98P++/nXr9H0M99R7pfkqr0aAHNOuY3DSgDXw+nX96PGdRZ19DL/KU7kA3Q7oq9raTQO2wKtXbw17gV/l4vT9gXfUgCXw+r5We6utQDr3VuXznb4f9K4asAR+6R/oajsH1eOqdJP/W65DcNWAHfC67VILZIvjuGW3HNRTHaazBqyA1yCYue+zb9spqD4a6DElTvbP2yG4a8AKeI182xbQJT6vegH2vGBPtae7BqyA7/1D3VRnoXpNCZT983YE7hqwAV4PQUwBF2E/D9zMC/a6jhINnAw2wOsptghgT9VB9VsnUvbN1xGgASPgo6ZypQMgrZ8P7KlOEg2YAK+JCwpYkbdMorEc9GjgU9tapPQaLx0Z9FI3xtgvBzwaMAI+2kCLAvh4yyCc5YBHA0bAaw66MVwR36ueU98/2b9dZ4AGjIDXhJMRAR/XSfUE7O3Anmo/NGAEPL37MhBNwRVxPxowAp7vbwCPBoyA5xdagEcDRsBzDxbg0YAR8PpOySgroEcDJiPtBDzjqAEeDRgBz5NSAI8GjICPnNbz4Ey7zihqWt9KAxZj6ct9YffZTko7OG/dNWAFvOaOCzmnHQtONhth6K4BK+DlbNEGYKg+zo7b49qdNWAHvATmOid5D7iilumqAUvgXVcdiQpfj3q5asASeAnMcV2xHmBFLtNRA7bAS4gaX916QUlWj213C66ms3HTgDXwEoR6+Vb3ZlWOyqsRIse06xicNGAPvMDS97mlf8TR+VUOILcDeZO2dtEAwF9cClC3a+a+T6/zcevtso03gbDHsdk1APArwEtgWmxQo7G2TfP1eZ2HhSJ3B/bSwWTWAMCPgC9B11YPW+gJq1r4dZyO1+dWz8Pfuwd9iVk2DQD8FcCXoGurCRT0i65SPs2PpkkRtdV77df/rx7P37sL+VTsMmgA4CuBnxIB+/OBnTmmAA/wZCZGGgB4o2Bndi6urS7TAniAx+GNNADwRsHGBetcMHM7ATzA4/BGGgB4o2Bndi6urS57AXiAx+GNNADwRsHGBetcMHM7ATzA4/BGGgB4o2Bndi6urS57AXiAx+GNNADwRsHGBetcMHM7ATzA4/BGGgB4o2Bv4lwZHgXd5HpdjgV4gP/s8Nkme3CBeJPrBHhz4DUF16xTerFO3ucOdBMQWx0L8MbAZ5+wsRVEu1QOwBsC7zIl8y6B2KquAG8GvNOiC60g2qVyAN4IeLdllXYJxFZ1BXgT4OXsrdfRO9zfG/RSuSyxFWPQD8AbAK/v7LVz6xdI596qfJba6g89wBsAv/S6ebWdg+rRKnWlnPWdC8AnB1633mqBbHGc6gOM62Fs0S4Anxh4rZE29+KY23YKqg/r7QE8vf4CHY9G0G0L6BKfV71auBllfN2x4PALgBZFaL1/qJvqLFSvKG3kVg+ATwq8HoSZAi7CflbY/dp9W3Q+AJ8UeC1bHQHsqTqofi0EThlfdiwAnxT4qOl86QBI678EsVXHBPAJgdfkFQWsyFvVs5XQKedTBwPwCYHXmPnIoJe6qZ6A2NbpAT4h8NEG2xTAx1sG4bSFXZ0rwCcE/ux5zPvvY+BVTxy+LfQAnxD404MHO5HSq54AD/CIYMtOCIdvC9EudVo4/JZwRQw23+EBfkqXAJ8QeH6lB3iATwj2VFC5Dw/wU9rA4ZN2BIy0A/p10AN8UuAZSw/wAJ8U7nWB5Wk5gF+nCxw+cScQNa3nwZl+nRHAJwaeGW/6gbXOXSPsA/jEwGvuuJBz2rHgZLfBZQCfGHg5SrRBODww0zfrAPjkwAt65qXvC1mEVL7UAeANgGflGYAHeAPQS5C1ZW05oJcOcHgj8Fk9FugB3gj44vSt7s+rHFaNjdXJALwZ8IJe3+mX/iFP52e12Fiwk9Ibwq6gl5dukc19n17n49bbZRuXto6yxeFXAIgSlJb10IKTGpG3bZqvz+s8LBQZF3bpCuDNgV/tXPTAjZ6yq4Vfx+l4lo2KDflqjAEe4D+n+KvC0CQa+lVf6bnmyNOEk9rqvfaziMTuQL4aV4AH+LXAr4qEv3cT7nVxA3iAB3gjDQC8UbDX9fjsy+PeNbEEeIDH4Y00APBGwa5xAI7J7fgAD/A4vJEGAN4o2Lh3bveuiS/AAzwOb6QBgDcKdo0DcEzuLADgAR6HN9IAwBsFG/fO7d418QV4gMfhjTQA8EbBrnEAjsmdBQA8wOPwRhoAeKNg49653bsmvgAP8Di8kQYA3ijYNQ7AMbmzAIAHeBzeSAMAbxRs3Du3e9fEF+ABHoc30gDAVwabSR1xxwwaAPgrgGfaZiDPpgGAHwGvhRRmXZjh/JiUedTGNd81ex6TWQMAvyJGll7C0bNrAOBZXJEMxEgD9sBrOePapZUO9/eGbV4qh+WT42URThqwBl5LJh09vrMVxJt2ACpP5fb8jkrZl52OmwZsgVev3hr20jmoXJz+ErpeHZCjBiyBf//uRbM0vkA+3iq9Vz16id29XFcNWAL/5um9pmn8GPbyXvVwB6/X9btqwA543XYpwEXYqj69RO9arrMGrID/cH48vHpyNxTwqo8GerjC1/q63TVgBbxG0EVw9XEdVK/Wwnctz10DVsC3ut8+Bvq696qXK4Ctr9tdAzbA6yGI68Dr+f+qX2vxu5WHBk4GG+DfPrsfGnjVzw3A1teLBoyAj5rKlayCtH75gThowAR4TVxQwIq8VT1bu55LeWjgU4dqkdJrvHRk0EvdGGO/nMujASPgow20KICPtwzCWQ54NGAE/NnzmPffx8Crni4pduvrRANGwJ8ePNiJlF71bA2CS3lowAh4evflUuVd6TDQgBHwfH8DeDRgBDy/0AI8GjACnnuwAI8GjIDX90xGWQE9GjAZaSfgGUcN8GjACHielAJ4NGAEfOS0ngdn2nVGUdP6VhqwGEtf7hW7z3ZS2sF5664BK+A1d1zIOe1YcLLZCEN3DVgBL2eLNgBD9XF23B7X7qwBO+AlMNc5yXvAFbVMVw1YAu+66khU+HrUy1UDlsBLYI7rivUAK3KZjhqwBV5C1Pjq1gtKsnpsu1twNZ2NmwasgZcg1Mu3ujerclRejRA5pl3H4KQBe+AFlr7PLf0jjs6vcgC5HcibtLWLBgD+4lKAul0z9316nY9bb5dtvAmEPY7NrgGAXwFeAtNigxqNtW2ar8/rPCwUuTuwlw4mswYAfgR8Cbq2ethCT1jVwq/jdLw+t3oe/t496EvMsmkA4K8AvgRdW02goF90lfJpfjRNiqit3mu//n/1eP7eXcinYpdBAwBfCfyUCNifD+zMMQV4gCczMdIAwBsFO7NzcW11mRbAAzwOb6QBgDcKNi5Y54KZ2wngAR6HN9IAwBsFO7NzcW112QvAAzwOb6QBgDcKNi5Y54KZ2wngAR6HN9IAwBsFO7NzcW112QvAAzwOb6QBgDcKNi5Y54KZ2wngAR6HN9IAwBsFO7NzcW112QvAAzwOb6QBgDcKNi5Y54KZ2wngAR6HN9IAwBsFO7NzcW112QvAAzwOb6QBgDcKNi5Y54KZ2wngAR6HN9IAwBsFO7NzcW112QvAAzwOb6QBgDcKNi5Y54KZ2wngAR6HN9IAwBsFO7NzcW112QvAAzwOb6QBgDcKNi5Y54KZ26kJ8CqEF22ABmJo4HB/b6h53dK/lz/cflRzMMfUNSrtRDtF1QDAV/aMUQNIvehcNtEAwAN8VSq4iag4Nm4nBPAAD/BGGgB4o2DjvHGdt1VsAB7gcXgjDQC8UbBbuQjlxM0kAB7gcXgjDQC8UbBx3rjO2yo2AA/wOLyRBv4H/fhzYZDvMk0AAAAASUVORK5CYII=;sketch=1;" vertex="1" parent="xvmUoc1rFGaK8NM9gwH8-1">
          <mxGeometry x="733" y="-632.5" width="27" height="27" as="geometry" />
        </mxCell>
        <mxCell id="HFoQ_YUNHdDnuqGjo8Fi-40" value="Model M1" style="whiteSpace=wrap;html=1;fillColor=#f8cecc;strokeColor=#b85450;fillStyle=zigzag;fontColor=#990000;fontStyle=1;sketch=1;" vertex="1" parent="xvmUoc1rFGaK8NM9gwH8-1">
          <mxGeometry x="580" y="-1110" width="120" height="60" as="geometry" />
        </mxCell>
        <mxCell id="HFoQ_YUNHdDnuqGjo8Fi-41" value="Session XYZ" style="text;html=1;align=center;verticalAlign=middle;whiteSpace=wrap;fontSize=14;fillColor=#ffffff;fontStyle=1;sketch=0;" vertex="1" parent="xvmUoc1rFGaK8NM9gwH8-1">
          <mxGeometry x="610" y="-1137" width="90" height="20" as="geometry" />
        </mxCell>
        <mxCell id="HFoQ_YUNHdDnuqGjo8Fi-42" value="init()" style="text;html=1;strokeColor=none;fillColor=none;align=center;verticalAlign=middle;whiteSpace=wrap;rounded=0;sketch=1;fontSize=12;fontColor=#000000;fontStyle=1" vertex="1" parent="xvmUoc1rFGaK8NM9gwH8-1">
          <mxGeometry x="660" y="-1070" width="40" height="20" as="geometry" />
        </mxCell>
        <mxCell id="HFoQ_YUNHdDnuqGjo8Fi-43" style="orthogonalLoop=1;jettySize=auto;html=1;fontColor=#990000;startArrow=classic;startFill=1;sketch=1;entryX=0.5;entryY=1;entryDx=0;entryDy=0;exitX=0.5;exitY=0;exitDx=0;exitDy=0;strokeColor=#E0E0E0;" edge="1" parent="xvmUoc1rFGaK8NM9gwH8-1">
          <mxGeometry relative="1" as="geometry">
            <mxPoint x="640" y="-993" as="sourcePoint" />
            <mxPoint x="640" y="-1050" as="targetPoint" />
          </mxGeometry>
        </mxCell>
        <mxCell id="HFoQ_YUNHdDnuqGjo8Fi-44" value="publish&lt;br&gt;(&quot;show&quot;)" style="text;html=1;strokeColor=none;fillColor=none;align=center;verticalAlign=middle;whiteSpace=wrap;fontSize=9;rotation=-90;sketch=1;fontColor=#E0E0E0;" vertex="1" parent="xvmUoc1rFGaK8NM9gwH8-1">
          <mxGeometry x="605" y="-1030" width="40" height="20" as="geometry" />
        </mxCell>
        <mxCell id="HFoQ_YUNHdDnuqGjo8Fi-45" value="subscribe&lt;br&gt;(&quot;show&quot;)" style="text;html=1;strokeColor=none;fillColor=none;align=center;verticalAlign=middle;whiteSpace=wrap;fontSize=9;rotation=90;sketch=1;fontColor=#E0E0E0;" vertex="1" parent="xvmUoc1rFGaK8NM9gwH8-1">
          <mxGeometry x="630" y="-1030" width="50" height="22" as="geometry" />
        </mxCell>
        <mxCell id="HFoQ_YUNHdDnuqGjo8Fi-46" value="" style="shape=image;verticalLabelPosition=bottom;labelBackgroundColor=#ffffff;verticalAlign=top;aspect=fixed;imageAspect=0;image=data:image/png,iVBORw0KGgoAAAANSUhEUgAAAPwAAAD8CAYAAABTq8lnAAAN8UlEQVR4Ae2dwW4URxRF+RYsdkj5Fb6A3yALpLDPB0RykCKhZJ0NK/YOyoIVii2BvEEmQrZiWUk2YUFHF1R4aKbtGk931Zt3D9KoPU1PV3W9e+q+ma6uunWLf7QALeDVAi9/uP2Il18bHP14+zvi7hX3jz2bgn64vzfwog3QQG4NADwdHR29kQYA3ijYuHdu966JL8ADPA5vpAGANwp2jQNwTO4sAOABHoc30gDAGwUb987t3jXxBXiAx+GNNADwRsGucQCOyZ0FADzA4/BGGgB4o2Dj3rnduya+NwL+9ODbgRdtgAbiaKAGdh1zY+CHi5OBF22ABvprQB0vwNMh0SGbaADgTQKNu/Z31wgxAHiAx92NNADwRsGO4DDUoW+mAfAAj8MbaQDgjYKNu/Z11wjtD/AAj8MbaQDgjYIdwWGoQ98sA+ABHoc30gDAGwUbd+3rrhHaH+ABHoc30gDAGwU7gsNQh75ZBsADPA5vpAGANwo27trXXSO0P8ADPA5vpAGANwp2BIehDn2zDIAHeBzeSAMAbxRs3LWvu0Zof4AHeBzeSAMAbxTsCA5DHfpmGQAP8Di8kQYA3ijYuGtfd43Q/gAP8Di8kQYA3ijYERyGOvTNMgAe4HF4Iw0AvFGwcde+7hqh/QEe4HF4Iw0AvFGwIzgMdeibZQA8wOPwRhoAeKNg46593TVC+wM8wOPwRhoAeKNgR3AY6tA3ywB4gMfhjTQA8EbBxl37umuE9gf4SuD/+/P34Z+jX4bzF98PZ88fDqcHDz5u9V779f8RAkodloM6gwYA/grg//7jp+Hts/vD65+/GQ7396596Tgdr88B3nLgtWzbbBoA+BHwH/46Hs5+e1gN+VRHIPh1ng/nx8A/auOWwN6krMwaAPgVMSo9f/Xk7rVOPgX5uv06n857E+HxmfZZQnYNAPzFyfD+3YvhzdN7s4I+hl/nVzlA3B7imjZ30YA98P++/nXr9H0M99R7pfkqr0aAHNOuY3DSgDXw+nX96PGdRZ19DL/KU7kA3Q7oq9raTQO2wKtXbw17gV/l4vT9gXfUgCXw+r5We6utQDr3VuXznb4f9K4asAR+6R/oajsH1eOqdJP/W65DcNWAHfC67VILZIvjuGW3HNRTHaazBqyA1yCYue+zb9spqD4a6DElTvbP2yG4a8AKeI182xbQJT6vegH2vGBPtae7BqyA7/1D3VRnoXpNCZT983YE7hqwAV4PQUwBF2E/D9zMC/a6jhINnAw2wOsptghgT9VB9VsnUvbN1xGgASPgo6ZypQMgrZ8P7KlOEg2YAK+JCwpYkbdMorEc9GjgU9tapPQaLx0Z9FI3xtgvBzwaMAI+2kCLAvh4yyCc5YBHA0bAaw66MVwR36ueU98/2b9dZ4AGjIDXhJMRAR/XSfUE7O3Anmo/NGAEPL37MhBNwRVxPxowAp7vbwCPBoyA5xdagEcDRsBzDxbg0YAR8PpOySgroEcDJiPtBDzjqAEeDRgBz5NSAI8GjICPnNbz4Ey7zihqWt9KAxZj6ct9YffZTko7OG/dNWAFvOaOCzmnHQtONhth6K4BK+DlbNEGYKg+zo7b49qdNWAHvATmOid5D7iilumqAUvgXVcdiQpfj3q5asASeAnMcV2xHmBFLtNRA7bAS4gaX916QUlWj213C66ms3HTgDXwEoR6+Vb3ZlWOyqsRIse06xicNGAPvMDS97mlf8TR+VUOILcDeZO2dtEAwF9cClC3a+a+T6/zcevtso03gbDHsdk1APArwEtgWmxQo7G2TfP1eZ2HhSJ3B/bSwWTWAMCPgC9B11YPW+gJq1r4dZyO1+dWz8Pfuwd9iVk2DQD8FcCXoGurCRT0i65SPs2PpkkRtdV77df/rx7P37sL+VTsMmgA4CuBnxIB+/OBnTmmAA/wZCZGGgB4o2Bndi6urS7TAniAx+GNNADwRsHGBetcMHM7ATzA4/BGGgB4o2Bndi6urS57AXiAx+GNNADwRsHGBetcMHM7ATzA4/BGGgB4o2Bndi6urS57AXiAx+GNNADwRsHGBetcMHM7ATzA4/BGGgB4o2Bv4lwZHgXd5HpdjgV4gP/s8Nkme3CBeJPrBHhz4DUF16xTerFO3ucOdBMQWx0L8MbAZ5+wsRVEu1QOwBsC7zIl8y6B2KquAG8GvNOiC60g2qVyAN4IeLdllXYJxFZ1BXgT4OXsrdfRO9zfG/RSuSyxFWPQD8AbAK/v7LVz6xdI596qfJba6g89wBsAv/S6ebWdg+rRKnWlnPWdC8AnB1633mqBbHGc6gOM62Fs0S4Anxh4rZE29+KY23YKqg/r7QE8vf4CHY9G0G0L6BKfV71auBllfN2x4PALgBZFaL1/qJvqLFSvKG3kVg+ATwq8HoSZAi7CflbY/dp9W3Q+AJ8UeC1bHQHsqTqofi0EThlfdiwAnxT4qOl86QBI678EsVXHBPAJgdfkFQWsyFvVs5XQKedTBwPwCYHXmPnIoJe6qZ6A2NbpAT4h8NEG2xTAx1sG4bSFXZ0rwCcE/ux5zPvvY+BVTxy+LfQAnxD404MHO5HSq54AD/CIYMtOCIdvC9EudVo4/JZwRQw23+EBfkqXAJ8QeH6lB3iATwj2VFC5Dw/wU9rA4ZN2BIy0A/p10AN8UuAZSw/wAJ8U7nWB5Wk5gF+nCxw+cScQNa3nwZl+nRHAJwaeGW/6gbXOXSPsA/jEwGvuuJBz2rHgZLfBZQCfGHg5SrRBODww0zfrAPjkwAt65qXvC1mEVL7UAeANgGflGYAHeAPQS5C1ZW05oJcOcHgj8Fk9FugB3gj44vSt7s+rHFaNjdXJALwZ8IJe3+mX/iFP52e12Fiwk9Ibwq6gl5dukc19n17n49bbZRuXto6yxeFXAIgSlJb10IKTGpG3bZqvz+s8LBQZF3bpCuDNgV/tXPTAjZ6yq4Vfx+l4lo2KDflqjAEe4D+n+KvC0CQa+lVf6bnmyNOEk9rqvfaziMTuQL4aV4AH+LXAr4qEv3cT7nVxA3iAB3gjDQC8UbDX9fjsy+PeNbEEeIDH4Y00APBGwa5xAI7J7fgAD/A4vJEGAN4o2Lh3bveuiS/AAzwOb6QBgDcKdo0DcEzuLADgAR6HN9IAwBsFG/fO7d418QV4gMfhjTQA8EbBrnEAjsmdBQA8wOPwRhoAeKNg49653bsmvgAP8Di8kQYA3ijYNQ7AMbmzAIAHeBzeSAMAbxRs3Du3e9fEF+ABHoc30gDAVwabSR1xxwwaAPgrgGfaZiDPpgGAHwGvhRRmXZjh/JiUedTGNd81ex6TWQMAvyJGll7C0bNrAOBZXJEMxEgD9sBrOePapZUO9/eGbV4qh+WT42URThqwBl5LJh09vrMVxJt2ACpP5fb8jkrZl52OmwZsgVev3hr20jmoXJz+ErpeHZCjBiyBf//uRbM0vkA+3iq9Vz16id29XFcNWAL/5um9pmn8GPbyXvVwB6/X9btqwA543XYpwEXYqj69RO9arrMGrID/cH48vHpyNxTwqo8GerjC1/q63TVgBbxG0EVw9XEdVK/Wwnctz10DVsC3ut8+Bvq696qXK4Ctr9tdAzbA6yGI68Dr+f+qX2vxu5WHBk4GG+DfPrsfGnjVzw3A1teLBoyAj5rKlayCtH75gThowAR4TVxQwIq8VT1bu55LeWjgU4dqkdJrvHRk0EvdGGO/nMujASPgow20KICPtwzCWQ54NGAE/NnzmPffx8Crni4pduvrRANGwJ8ePNiJlF71bA2CS3lowAh4evflUuVd6TDQgBHwfH8DeDRgBDy/0AI8GjACnnuwAI8GjIDX90xGWQE9GjAZaSfgGUcN8GjACHielAJ4NGAEfOS0ngdn2nVGUdP6VhqwGEtf7hW7z3ZS2sF5664BK+A1d1zIOe1YcLLZCEN3DVgBL2eLNgBD9XF23B7X7qwBO+AlMNc5yXvAFbVMVw1YAu+66khU+HrUy1UDlsBLYI7rivUAK3KZjhqwBV5C1Pjq1gtKsnpsu1twNZ2NmwasgZcg1Mu3ujerclRejRA5pl3H4KQBe+AFlr7PLf0jjs6vcgC5HcibtLWLBgD+4lKAul0z9316nY9bb5dtvAmEPY7NrgGAXwFeAtNigxqNtW2ar8/rPCwUuTuwlw4mswYAfgR8Cbq2ethCT1jVwq/jdLw+t3oe/t496EvMsmkA4K8AvgRdW02goF90lfJpfjRNiqit3mu//n/1eP7eXcinYpdBAwBfCfyUCNifD+zMMQV4gCczMdIAwBsFO7NzcW11mRbAAzwOb6QBgDcKNi5Y54KZ2wngAR6HN9IAwBsFO7NzcW112QvAAzwOb6QBgDcKNi5Y54KZ2wngAR6HN9IAwBsFO7NzcW112QvAAzwOb6QBgDcKNi5Y54KZ2wngAR6HN9IAwBsFO7NzcW112QvAAzwOb6QBgDcKNi5Y54KZ2wngAR6HN9IAwBsFO7NzcW112QvAAzwOb6QBgDcKNi5Y54KZ2wngAR6HN9IAwBsFO7NzcW112QvAAzwOb6QBgDcKNi5Y54KZ2wngAR6HN9IAwBsFO7NzcW112QvAAzwOb6QBgDcKNi5Y54KZ26kJ8CqEF22ABmJo4HB/b6h53dK/lz/cflRzMMfUNSrtRDtF1QDAV/aMUQNIvehcNtEAwAN8VSq4iag4Nm4nBPAAD/BGGgB4o2DjvHGdt1VsAB7gcXgjDQC8UbBbuQjlxM0kAB7gcXgjDQC8UbBx3rjO2yo2AA/wOLyRBv4H/fhzYZDvMk0AAAAASUVORK5CYII=;sketch=1;" vertex="1" parent="xvmUoc1rFGaK8NM9gwH8-1">
          <mxGeometry x="673" y="-959.5" width="27" height="27" as="geometry" />
        </mxCell>
        <mxCell id="HFoQ_YUNHdDnuqGjo8Fi-48" value="" style="shape=image;html=1;verticalAlign=top;verticalLabelPosition=bottom;labelBackgroundColor=#ffffff;imageAspect=0;aspect=fixed;image=https://cdn3.iconfinder.com/data/icons/basic-ui-82/64/59-128.png;fontSize=12;fontColor=#000000;strokeColor=#CC0066;fillColor=none;sketch=1;" vertex="1" parent="xvmUoc1rFGaK8NM9gwH8-1">
          <mxGeometry x="90" y="-930" width="40" height="40" as="geometry" />
        </mxCell>
        <mxCell id="HFoQ_YUNHdDnuqGjo8Fi-49" value="" style="shape=image;html=1;verticalAlign=top;verticalLabelPosition=bottom;labelBackgroundColor=#ffffff;imageAspect=0;aspect=fixed;image=https://cdn3.iconfinder.com/data/icons/basic-ui-82/64/59-128.png;fontSize=12;fontColor=#000000;strokeColor=#CC0066;fillColor=none;sketch=1;" vertex="1" parent="xvmUoc1rFGaK8NM9gwH8-1">
          <mxGeometry x="580" y="-1090" width="40" height="40" as="geometry" />
        </mxCell>
        <mxCell id="HFoQ_YUNHdDnuqGjo8Fi-50" value="" style="shape=image;html=1;verticalAlign=top;verticalLabelPosition=bottom;labelBackgroundColor=#ffffff;imageAspect=0;aspect=fixed;image=https://cdn3.iconfinder.com/data/icons/basic-ui-82/64/59-128.png;fontSize=12;fontColor=#000000;strokeColor=#CC0066;fillColor=none;sketch=1;" vertex="1" parent="xvmUoc1rFGaK8NM9gwH8-1">
          <mxGeometry x="640" y="-763" width="40" height="40" as="geometry" />
        </mxCell>
      </root>
    </mxGraphModel>
  </diagram>
  <diagram id="6PpkY2BRAbVlSNGAnEkv" name="Page-6">
    <mxGraphModel dx="815" dy="1581" grid="1" gridSize="10" guides="1" tooltips="1" connect="1" arrows="1" fold="1" page="1" pageScale="1" pageWidth="827" pageHeight="1169" math="0" shadow="0">
      <root>
        <mxCell id="4P_Q60DUOdg_aRZbKulJ-0" />
        <mxCell id="4P_Q60DUOdg_aRZbKulJ-1" parent="4P_Q60DUOdg_aRZbKulJ-0" />
        <mxCell id="CMWK7hIQB2H3XhoBIlTY-0" value="" style="whiteSpace=wrap;html=1;fillColor=none;sketch=1;" vertex="1" parent="4P_Q60DUOdg_aRZbKulJ-1">
          <mxGeometry x="570" y="-1127.5" width="140" height="205" as="geometry" />
        </mxCell>
        <mxCell id="CMWK7hIQB2H3XhoBIlTY-1" value="View V3" style="whiteSpace=wrap;html=1;fontColor=#333333;fillStyle=solid;fontStyle=1;strokeColor=#CC0066;fillColor=#FFCCE6;sketch=1;" vertex="1" parent="4P_Q60DUOdg_aRZbKulJ-1">
          <mxGeometry x="580" y="-992.5" width="120" height="60" as="geometry" />
        </mxCell>
        <mxCell id="CMWK7hIQB2H3XhoBIlTY-2" value="" style="whiteSpace=wrap;html=1;fillColor=none;sketch=1;" vertex="1" parent="4P_Q60DUOdg_aRZbKulJ-1">
          <mxGeometry x="630" y="-800.5" width="140" height="205" as="geometry" />
        </mxCell>
        <mxCell id="CMWK7hIQB2H3XhoBIlTY-3" value="Model M1" style="whiteSpace=wrap;html=1;fillColor=#f8cecc;strokeColor=#b85450;fillStyle=zigzag;fontColor=#990000;fontStyle=1;sketch=1;" vertex="1" parent="4P_Q60DUOdg_aRZbKulJ-1">
          <mxGeometry x="640" y="-783" width="120" height="60" as="geometry" />
        </mxCell>
        <mxCell id="CMWK7hIQB2H3XhoBIlTY-4" style="edgeStyle=none;orthogonalLoop=1;jettySize=auto;html=1;fontSize=12;fontColor=#000000;exitX=0.734;exitY=0.884;exitDx=0;exitDy=0;exitPerimeter=0;startArrow=none;startFill=0;sketch=1;entryX=0;entryY=0.5;entryDx=0;entryDy=0;strokeColor=#E0E0E0;" edge="1" parent="4P_Q60DUOdg_aRZbKulJ-1" source="CMWK7hIQB2H3XhoBIlTY-6" target="CMWK7hIQB2H3XhoBIlTY-3">
          <mxGeometry relative="1" as="geometry">
            <mxPoint x="690" y="-816" as="targetPoint" />
          </mxGeometry>
        </mxCell>
        <mxCell id="CMWK7hIQB2H3XhoBIlTY-5" style="edgeStyle=none;orthogonalLoop=1;jettySize=auto;html=1;entryX=0;entryY=0.5;entryDx=0;entryDy=0;fontSize=12;fontColor=#000000;startArrow=none;startFill=0;sketch=1;exitX=0.473;exitY=0.094;exitDx=0;exitDy=0;exitPerimeter=0;strokeColor=#E0E0E0;" edge="1" parent="4P_Q60DUOdg_aRZbKulJ-1" source="CMWK7hIQB2H3XhoBIlTY-6" target="CMWK7hIQB2H3XhoBIlTY-40">
          <mxGeometry relative="1" as="geometry">
            <mxPoint x="370" y="-960" as="sourcePoint" />
            <mxPoint x="590" y="-1089" as="targetPoint" />
          </mxGeometry>
        </mxCell>
        <mxCell id="CMWK7hIQB2H3XhoBIlTY-6" value="Reflector" style="ellipse;shape=cloud;whiteSpace=wrap;html=1;fontSize=21;strokeColor=#6c8ebf;fillColor=#CCFFFF;fontColor=#0066CC;sketch=1;" vertex="1" parent="4P_Q60DUOdg_aRZbKulJ-1">
          <mxGeometry x="310" y="-920" width="326" height="130" as="geometry" />
        </mxCell>
        <mxCell id="CMWK7hIQB2H3XhoBIlTY-7" style="edgeStyle=none;orthogonalLoop=1;jettySize=auto;html=1;fontSize=12;fontColor=#000000;exitX=0;exitY=0.5;exitDx=0;exitDy=0;startArrow=none;startFill=0;sketch=1;entryX=0.626;entryY=0.953;entryDx=0;entryDy=0;entryPerimeter=0;strokeColor=#E0E0E0;" edge="1" parent="4P_Q60DUOdg_aRZbKulJ-1" source="CMWK7hIQB2H3XhoBIlTY-38" target="CMWK7hIQB2H3XhoBIlTY-6">
          <mxGeometry relative="1" as="geometry">
            <mxPoint x="680" y="-620" as="sourcePoint" />
          </mxGeometry>
        </mxCell>
        <mxCell id="CMWK7hIQB2H3XhoBIlTY-8" value="Client C2" style="text;html=1;strokeColor=none;fillColor=none;align=center;verticalAlign=middle;whiteSpace=wrap;fontStyle=1;sketch=1;" vertex="1" parent="4P_Q60DUOdg_aRZbKulJ-1">
          <mxGeometry x="665" y="-595.5" width="70" height="20" as="geometry" />
        </mxCell>
        <mxCell id="CMWK7hIQB2H3XhoBIlTY-9" value="" style="outlineConnect=0;dashed=0;verticalLabelPosition=bottom;verticalAlign=top;align=center;html=1;fontSize=12;fontStyle=0;aspect=fixed;pointerEvents=1;shape=mxgraph.aws4.user;fillColor=#333333;strokeWidth=1;sketch=1;" vertex="1" parent="4P_Q60DUOdg_aRZbKulJ-1">
          <mxGeometry x="681" y="-575.5" width="38" height="38" as="geometry" />
        </mxCell>
        <mxCell id="CMWK7hIQB2H3XhoBIlTY-10" value="publish(&quot;rollDice&quot;)" style="text;html=1;strokeColor=none;fillColor=none;align=center;verticalAlign=middle;whiteSpace=wrap;fontSize=12;rotation=52;sketch=1;fontColor=#E0E0E0;" vertex="1" parent="4P_Q60DUOdg_aRZbKulJ-1">
          <mxGeometry x="515" y="-723" width="106" height="20" as="geometry" />
        </mxCell>
        <mxCell id="CMWK7hIQB2H3XhoBIlTY-11" value="subscribe&lt;br&gt;(&quot;rollDice&quot;)" style="text;html=1;strokeColor=none;fillColor=none;align=center;verticalAlign=middle;whiteSpace=wrap;fontSize=12;rotation=29;sketch=1;fontColor=#E0E0E0;" vertex="1" parent="4P_Q60DUOdg_aRZbKulJ-1">
          <mxGeometry x="571.69" y="-806.83" width="64.31" height="30.83" as="geometry" />
        </mxCell>
        <mxCell id="CMWK7hIQB2H3XhoBIlTY-12" style="edgeStyle=none;orthogonalLoop=1;jettySize=auto;html=1;entryX=0.516;entryY=0.118;entryDx=0;entryDy=0;entryPerimeter=0;fontSize=12;fontColor=#000000;exitX=0;exitY=0.5;exitDx=0;exitDy=0;startArrow=none;startFill=0;sketch=1;strokeColor=#E0E0E0;" edge="1" parent="4P_Q60DUOdg_aRZbKulJ-1" source="CMWK7hIQB2H3XhoBIlTY-1" target="CMWK7hIQB2H3XhoBIlTY-6">
          <mxGeometry relative="1" as="geometry">
            <mxPoint x="533.75" y="-893" as="targetPoint" />
            <mxPoint x="590" y="-1009" as="sourcePoint" />
          </mxGeometry>
        </mxCell>
        <mxCell id="CMWK7hIQB2H3XhoBIlTY-13" value="Client C3" style="text;html=1;strokeColor=none;fillColor=none;align=center;verticalAlign=middle;whiteSpace=wrap;fontStyle=1;sketch=1;" vertex="1" parent="4P_Q60DUOdg_aRZbKulJ-1">
          <mxGeometry x="605" y="-922.5" width="70" height="20" as="geometry" />
        </mxCell>
        <mxCell id="CMWK7hIQB2H3XhoBIlTY-14" value="" style="outlineConnect=0;dashed=0;verticalLabelPosition=bottom;verticalAlign=top;align=center;html=1;fontSize=12;fontStyle=0;aspect=fixed;pointerEvents=1;shape=mxgraph.aws4.user;fillColor=#333333;strokeWidth=1;sketch=1;" vertex="1" parent="4P_Q60DUOdg_aRZbKulJ-1">
          <mxGeometry x="621" y="-902.5" width="38" height="38" as="geometry" />
        </mxCell>
        <mxCell id="CMWK7hIQB2H3XhoBIlTY-15" value="publish&lt;br&gt;(&quot;rollDice&quot;)" style="text;html=1;strokeColor=none;fillColor=none;align=center;verticalAlign=middle;whiteSpace=wrap;fontSize=12;rotation=331;sketch=1;fontColor=#E0E0E0;" vertex="1" parent="4P_Q60DUOdg_aRZbKulJ-1">
          <mxGeometry x="507.92" y="-936.7800000000001" width="63.77" height="33.56" as="geometry" />
        </mxCell>
        <mxCell id="CMWK7hIQB2H3XhoBIlTY-16" value="subscribe(&quot;rollDice&quot;)" style="text;html=1;strokeColor=none;fillColor=none;align=center;verticalAlign=middle;whiteSpace=wrap;fontSize=12;rotation=304;sketch=1;fontColor=#E0E0E0;" vertex="1" parent="4P_Q60DUOdg_aRZbKulJ-1">
          <mxGeometry x="450" y="-994" width="106" height="20" as="geometry" />
        </mxCell>
        <mxCell id="CMWK7hIQB2H3XhoBIlTY-17" style="edgeStyle=none;orthogonalLoop=1;jettySize=auto;html=1;exitX=0.5;exitY=1;exitDx=0;exitDy=0;fontSize=12;fontColor=#000000;sketch=1;" edge="1" parent="4P_Q60DUOdg_aRZbKulJ-1">
          <mxGeometry relative="1" as="geometry">
            <mxPoint x="608.7462562898772" y="-746.1164542430624" as="sourcePoint" />
            <mxPoint x="608.7462562898772" y="-746.1164542430624" as="targetPoint" />
          </mxGeometry>
        </mxCell>
        <mxCell id="CMWK7hIQB2H3XhoBIlTY-18" value="" style="whiteSpace=wrap;html=1;fillColor=none;sketch=1;" vertex="1" parent="4P_Q60DUOdg_aRZbKulJ-1">
          <mxGeometry x="80" y="-966" width="140" height="205" as="geometry" />
        </mxCell>
        <mxCell id="CMWK7hIQB2H3XhoBIlTY-19" value="Model M1" style="whiteSpace=wrap;html=1;fillColor=#f8cecc;strokeColor=#b85450;fillStyle=zigzag;fontColor=#990000;fontStyle=1;sketch=1;" vertex="1" parent="4P_Q60DUOdg_aRZbKulJ-1">
          <mxGeometry x="90" y="-950" width="120" height="60" as="geometry" />
        </mxCell>
        <mxCell id="CMWK7hIQB2H3XhoBIlTY-20" value="Client C1" style="text;html=1;strokeColor=none;fillColor=none;align=center;verticalAlign=middle;whiteSpace=wrap;fontStyle=1;sketch=1;" vertex="1" parent="4P_Q60DUOdg_aRZbKulJ-1">
          <mxGeometry x="115" y="-760" width="70" height="20" as="geometry" />
        </mxCell>
        <mxCell id="CMWK7hIQB2H3XhoBIlTY-21" value="Session XYZ" style="text;html=1;align=center;verticalAlign=middle;whiteSpace=wrap;fontSize=14;fillColor=#ffffff;fontStyle=1;sketch=0;" vertex="1" parent="4P_Q60DUOdg_aRZbKulJ-1">
          <mxGeometry x="120" y="-976" width="90" height="20" as="geometry" />
        </mxCell>
        <mxCell id="CMWK7hIQB2H3XhoBIlTY-22" value="" style="outlineConnect=0;dashed=0;verticalLabelPosition=bottom;verticalAlign=top;align=center;html=1;fontSize=12;fontStyle=0;aspect=fixed;pointerEvents=1;shape=mxgraph.aws4.user;fillColor=#333333;strokeWidth=1;sketch=1;" vertex="1" parent="4P_Q60DUOdg_aRZbKulJ-1">
          <mxGeometry x="131" y="-740" width="38" height="38" as="geometry" />
        </mxCell>
        <mxCell id="CMWK7hIQB2H3XhoBIlTY-23" style="orthogonalLoop=1;jettySize=auto;html=1;entryX=0.101;entryY=0.664;entryDx=0;entryDy=0;entryPerimeter=0;fontColor=#990000;startArrow=none;startFill=0;sketch=1;strokeColor=#E0E0E0;" edge="1" parent="4P_Q60DUOdg_aRZbKulJ-1">
          <mxGeometry relative="1" as="geometry">
            <mxPoint x="210" y="-805.8997924696117" as="sourcePoint" />
            <mxPoint x="342.92599999999993" y="-833.68" as="targetPoint" />
          </mxGeometry>
        </mxCell>
        <mxCell id="CMWK7hIQB2H3XhoBIlTY-24" style="edgeStyle=none;orthogonalLoop=1;jettySize=auto;html=1;entryX=1;entryY=0.5;entryDx=0;entryDy=0;fontSize=12;fontColor=#000000;exitX=0.07;exitY=0.4;exitDx=0;exitDy=0;exitPerimeter=0;startArrow=none;startFill=0;sketch=1;strokeColor=#E0E0E0;" edge="1" parent="4P_Q60DUOdg_aRZbKulJ-1" target="CMWK7hIQB2H3XhoBIlTY-19">
          <mxGeometry relative="1" as="geometry">
            <mxPoint x="332.81999999999994" y="-868" as="sourcePoint" />
            <mxPoint x="210" y="-880" as="targetPoint" />
          </mxGeometry>
        </mxCell>
        <mxCell id="CMWK7hIQB2H3XhoBIlTY-25" value="publish(&quot;rollDice&quot;)" style="text;html=1;strokeColor=none;fillColor=none;align=center;verticalAlign=middle;whiteSpace=wrap;fontSize=12;rotation=348;sketch=1;fontColor=#E0E0E0;" vertex="1" parent="4P_Q60DUOdg_aRZbKulJ-1">
          <mxGeometry x="230.03" y="-821.42" width="110" height="20.75" as="geometry" />
        </mxCell>
        <mxCell id="CMWK7hIQB2H3XhoBIlTY-26" value="subscribe(&quot;rollDice&quot;)" style="text;html=1;strokeColor=none;fillColor=none;align=center;verticalAlign=middle;whiteSpace=wrap;fontSize=12;rotation=23;sketch=1;fontColor=#E0E0E0;" vertex="1" parent="4P_Q60DUOdg_aRZbKulJ-1">
          <mxGeometry x="225" y="-912" width="106" height="20" as="geometry" />
        </mxCell>
        <mxCell id="CMWK7hIQB2H3XhoBIlTY-27" value="View V1" style="whiteSpace=wrap;html=1;fontColor=#333333;fillStyle=solid;fontStyle=1;fillColor=#B3FF66;strokeColor=#66FF66;sketch=1;" vertex="1" parent="4P_Q60DUOdg_aRZbKulJ-1">
          <mxGeometry x="90" y="-833" width="120" height="60" as="geometry" />
        </mxCell>
        <mxCell id="CMWK7hIQB2H3XhoBIlTY-28" value="" style="shape=image;verticalLabelPosition=bottom;labelBackgroundColor=#ffffff;verticalAlign=top;aspect=fixed;imageAspect=0;image=data:image/png,iVBORw0KGgoAAAANSUhEUgAAAPwAAAD8CAYAAABTq8lnAAAN8UlEQVR4Ae2dwW4URxRF+RYsdkj5Fb6A3yALpLDPB0RykCKhZJ0NK/YOyoIVii2BvEEmQrZiWUk2YUFHF1R4aKbtGk931Zt3D9KoPU1PV3W9e+q+ma6uunWLf7QALeDVAi9/uP2Il18bHP14+zvi7hX3jz2bgn64vzfwog3QQG4NADwdHR29kQYA3ijYuHdu966JL8ADPA5vpAGANwp2jQNwTO4sAOABHoc30gDAGwUb987t3jXxBXiAx+GNNADwRsGucQCOyZ0FADzA4/BGGgB4o2Dj3rnduya+NwL+9ODbgRdtgAbiaKAGdh1zY+CHi5OBF22ABvprQB0vwNMh0SGbaADgTQKNu/Z31wgxAHiAx92NNADwRsGO4DDUoW+mAfAAj8MbaQDgjYKNu/Z11wjtD/AAj8MbaQDgjYIdwWGoQ98sA+ABHoc30gDAGwUbd+3rrhHaH+ABHoc30gDAGwU7gsNQh75ZBsADPA5vpAGANwo27trXXSO0P8ADPA5vpAGANwp2BIehDn2zDIAHeBzeSAMAbxRs3LWvu0Zof4AHeBzeSAMAbxTsCA5DHfpmGQAP8Di8kQYA3ijYuGtfd43Q/gAP8Di8kQYA3ijYERyGOvTNMgAe4HF4Iw0AvFGwcde+7hqh/QEe4HF4Iw0AvFGwIzgMdeibZQA8wOPwRhoAeKNg46593TVC+wM8wOPwRhoAeKNgR3AY6tA3ywB4gMfhjTQA8EbBxl37umuE9gf4SuD/+/P34Z+jX4bzF98PZ88fDqcHDz5u9V779f8RAkodloM6gwYA/grg//7jp+Hts/vD65+/GQ7396596Tgdr88B3nLgtWzbbBoA+BHwH/46Hs5+e1gN+VRHIPh1ng/nx8A/auOWwN6krMwaAPgVMSo9f/Xk7rVOPgX5uv06n857E+HxmfZZQnYNAPzFyfD+3YvhzdN7s4I+hl/nVzlA3B7imjZ30YA98P++/nXr9H0M99R7pfkqr0aAHNOuY3DSgDXw+nX96PGdRZ19DL/KU7kA3Q7oq9raTQO2wKtXbw17gV/l4vT9gXfUgCXw+r5We6utQDr3VuXznb4f9K4asAR+6R/oajsH1eOqdJP/W65DcNWAHfC67VILZIvjuGW3HNRTHaazBqyA1yCYue+zb9spqD4a6DElTvbP2yG4a8AKeI182xbQJT6vegH2vGBPtae7BqyA7/1D3VRnoXpNCZT983YE7hqwAV4PQUwBF2E/D9zMC/a6jhINnAw2wOsptghgT9VB9VsnUvbN1xGgASPgo6ZypQMgrZ8P7KlOEg2YAK+JCwpYkbdMorEc9GjgU9tapPQaLx0Z9FI3xtgvBzwaMAI+2kCLAvh4yyCc5YBHA0bAaw66MVwR36ueU98/2b9dZ4AGjIDXhJMRAR/XSfUE7O3Anmo/NGAEPL37MhBNwRVxPxowAp7vbwCPBoyA5xdagEcDRsBzDxbg0YAR8PpOySgroEcDJiPtBDzjqAEeDRgBz5NSAI8GjICPnNbz4Ey7zihqWt9KAxZj6ct9YffZTko7OG/dNWAFvOaOCzmnHQtONhth6K4BK+DlbNEGYKg+zo7b49qdNWAHvATmOid5D7iilumqAUvgXVcdiQpfj3q5asASeAnMcV2xHmBFLtNRA7bAS4gaX916QUlWj213C66ms3HTgDXwEoR6+Vb3ZlWOyqsRIse06xicNGAPvMDS97mlf8TR+VUOILcDeZO2dtEAwF9cClC3a+a+T6/zcevtso03gbDHsdk1APArwEtgWmxQo7G2TfP1eZ2HhSJ3B/bSwWTWAMCPgC9B11YPW+gJq1r4dZyO1+dWz8Pfuwd9iVk2DQD8FcCXoGurCRT0i65SPs2PpkkRtdV77df/rx7P37sL+VTsMmgA4CuBnxIB+/OBnTmmAA/wZCZGGgB4o2Bndi6urS7TAniAx+GNNADwRsHGBetcMHM7ATzA4/BGGgB4o2Bndi6urS57AXiAx+GNNADwRsHGBetcMHM7ATzA4/BGGgB4o2Bndi6urS57AXiAx+GNNADwRsHGBetcMHM7ATzA4/BGGgB4o2Bv4lwZHgXd5HpdjgV4gP/s8Nkme3CBeJPrBHhz4DUF16xTerFO3ucOdBMQWx0L8MbAZ5+wsRVEu1QOwBsC7zIl8y6B2KquAG8GvNOiC60g2qVyAN4IeLdllXYJxFZ1BXgT4OXsrdfRO9zfG/RSuSyxFWPQD8AbAK/v7LVz6xdI596qfJba6g89wBsAv/S6ebWdg+rRKnWlnPWdC8AnB1633mqBbHGc6gOM62Fs0S4Anxh4rZE29+KY23YKqg/r7QE8vf4CHY9G0G0L6BKfV71auBllfN2x4PALgBZFaL1/qJvqLFSvKG3kVg+ATwq8HoSZAi7CflbY/dp9W3Q+AJ8UeC1bHQHsqTqofi0EThlfdiwAnxT4qOl86QBI678EsVXHBPAJgdfkFQWsyFvVs5XQKedTBwPwCYHXmPnIoJe6qZ6A2NbpAT4h8NEG2xTAx1sG4bSFXZ0rwCcE/ux5zPvvY+BVTxy+LfQAnxD404MHO5HSq54AD/CIYMtOCIdvC9EudVo4/JZwRQw23+EBfkqXAJ8QeH6lB3iATwj2VFC5Dw/wU9rA4ZN2BIy0A/p10AN8UuAZSw/wAJ8U7nWB5Wk5gF+nCxw+cScQNa3nwZl+nRHAJwaeGW/6gbXOXSPsA/jEwGvuuJBz2rHgZLfBZQCfGHg5SrRBODww0zfrAPjkwAt65qXvC1mEVL7UAeANgGflGYAHeAPQS5C1ZW05oJcOcHgj8Fk9FugB3gj44vSt7s+rHFaNjdXJALwZ8IJe3+mX/iFP52e12Fiwk9Ibwq6gl5dukc19n17n49bbZRuXto6yxeFXAIgSlJb10IKTGpG3bZqvz+s8LBQZF3bpCuDNgV/tXPTAjZ6yq4Vfx+l4lo2KDflqjAEe4D+n+KvC0CQa+lVf6bnmyNOEk9rqvfaziMTuQL4aV4AH+LXAr4qEv3cT7nVxA3iAB3gjDQC8UbDX9fjsy+PeNbEEeIDH4Y00APBGwa5xAI7J7fgAD/A4vJEGAN4o2Lh3bveuiS/AAzwOb6QBgDcKdo0DcEzuLADgAR6HN9IAwBsFG/fO7d418QV4gMfhjTQA8EbBrnEAjsmdBQA8wOPwRhoAeKNg49653bsmvgAP8Di8kQYA3ijYNQ7AMbmzAIAHeBzeSAMAbxRs3Du3e9fEF+ABHoc30gDAVwabSR1xxwwaAPgrgGfaZiDPpgGAHwGvhRRmXZjh/JiUedTGNd81ex6TWQMAvyJGll7C0bNrAOBZXJEMxEgD9sBrOePapZUO9/eGbV4qh+WT42URThqwBl5LJh09vrMVxJt2ACpP5fb8jkrZl52OmwZsgVev3hr20jmoXJz+ErpeHZCjBiyBf//uRbM0vkA+3iq9Vz16id29XFcNWAL/5um9pmn8GPbyXvVwB6/X9btqwA543XYpwEXYqj69RO9arrMGrID/cH48vHpyNxTwqo8GerjC1/q63TVgBbxG0EVw9XEdVK/Wwnctz10DVsC3ut8+Bvq696qXK4Ctr9tdAzbA6yGI68Dr+f+qX2vxu5WHBk4GG+DfPrsfGnjVzw3A1teLBoyAj5rKlayCtH75gThowAR4TVxQwIq8VT1bu55LeWjgU4dqkdJrvHRk0EvdGGO/nMujASPgow20KICPtwzCWQ54NGAE/NnzmPffx8Crni4pduvrRANGwJ8ePNiJlF71bA2CS3lowAh4evflUuVd6TDQgBHwfH8DeDRgBDy/0AI8GjACnnuwAI8GjIDX90xGWQE9GjAZaSfgGUcN8GjACHielAJ4NGAEfOS0ngdn2nVGUdP6VhqwGEtf7hW7z3ZS2sF5664BK+A1d1zIOe1YcLLZCEN3DVgBL2eLNgBD9XF23B7X7qwBO+AlMNc5yXvAFbVMVw1YAu+66khU+HrUy1UDlsBLYI7rivUAK3KZjhqwBV5C1Pjq1gtKsnpsu1twNZ2NmwasgZcg1Mu3ujerclRejRA5pl3H4KQBe+AFlr7PLf0jjs6vcgC5HcibtLWLBgD+4lKAul0z9316nY9bb5dtvAmEPY7NrgGAXwFeAtNigxqNtW2ar8/rPCwUuTuwlw4mswYAfgR8Cbq2ethCT1jVwq/jdLw+t3oe/t496EvMsmkA4K8AvgRdW02goF90lfJpfjRNiqit3mu//n/1eP7eXcinYpdBAwBfCfyUCNifD+zMMQV4gCczMdIAwBsFO7NzcW11mRbAAzwOb6QBgDcKNi5Y54KZ2wngAR6HN9IAwBsFO7NzcW112QvAAzwOb6QBgDcKNi5Y54KZ2wngAR6HN9IAwBsFO7NzcW112QvAAzwOb6QBgDcKNi5Y54KZ2wngAR6HN9IAwBsFO7NzcW112QvAAzwOb6QBgDcKNi5Y54KZ2wngAR6HN9IAwBsFO7NzcW112QvAAzwOb6QBgDcKNi5Y54KZ2wngAR6HN9IAwBsFO7NzcW112QvAAzwOb6QBgDcKNi5Y54KZ2wngAR6HN9IAwBsFO7NzcW112QvAAzwOb6QBgDcKNi5Y54KZ26kJ8CqEF22ABmJo4HB/b6h53dK/lz/cflRzMMfUNSrtRDtF1QDAV/aMUQNIvehcNtEAwAN8VSq4iag4Nm4nBPAAD/BGGgB4o2DjvHGdt1VsAB7gcXgjDQC8UbBbuQjlxM0kAB7gcXgjDQC8UbBx3rjO2yo2AA/wOLyRBv4H/fhzYZDvMk0AAAAASUVORK5CYII=;sketch=1;" vertex="1" parent="4P_Q60DUOdg_aRZbKulJ-1">
          <mxGeometry x="183" y="-799" width="27" height="27" as="geometry" />
        </mxCell>
        <mxCell id="CMWK7hIQB2H3XhoBIlTY-29" value="init()" style="text;html=1;strokeColor=none;fillColor=none;align=center;verticalAlign=middle;whiteSpace=wrap;rounded=0;sketch=1;fontSize=12;fontColor=#000000;fontStyle=1" vertex="1" parent="4P_Q60DUOdg_aRZbKulJ-1">
          <mxGeometry x="170" y="-910" width="40" height="20" as="geometry" />
        </mxCell>
        <mxCell id="CMWK7hIQB2H3XhoBIlTY-30" style="orthogonalLoop=1;jettySize=auto;html=1;fontColor=#990000;startArrow=classic;startFill=1;sketch=1;entryX=0.5;entryY=1;entryDx=0;entryDy=0;exitX=0.5;exitY=0;exitDx=0;exitDy=0;" edge="1" parent="4P_Q60DUOdg_aRZbKulJ-1" source="CMWK7hIQB2H3XhoBIlTY-27" target="CMWK7hIQB2H3XhoBIlTY-19">
          <mxGeometry relative="1" as="geometry">
            <mxPoint x="220" y="-795.8997924696117" as="sourcePoint" />
            <mxPoint x="353" y="-740" as="targetPoint" />
          </mxGeometry>
        </mxCell>
        <mxCell id="CMWK7hIQB2H3XhoBIlTY-31" value="publish&lt;br&gt;(&quot;show&quot;)" style="text;html=1;strokeColor=none;fillColor=none;align=center;verticalAlign=middle;whiteSpace=wrap;fontSize=9;rotation=-90;sketch=1;" vertex="1" parent="4P_Q60DUOdg_aRZbKulJ-1">
          <mxGeometry x="115" y="-870" width="40" height="20" as="geometry" />
        </mxCell>
        <mxCell id="CMWK7hIQB2H3XhoBIlTY-32" value="subscribe&lt;br&gt;(&quot;show&quot;)" style="text;html=1;strokeColor=none;fillColor=none;align=center;verticalAlign=middle;whiteSpace=wrap;fontSize=9;rotation=90;sketch=1;" vertex="1" parent="4P_Q60DUOdg_aRZbKulJ-1">
          <mxGeometry x="140" y="-870" width="50" height="22" as="geometry" />
        </mxCell>
        <mxCell id="CMWK7hIQB2H3XhoBIlTY-33" value="Session XYZ" style="text;html=1;align=center;verticalAlign=middle;whiteSpace=wrap;fontSize=14;fillColor=#ffffff;fontStyle=1;sketch=0;" vertex="1" parent="4P_Q60DUOdg_aRZbKulJ-1">
          <mxGeometry x="670" y="-810" width="90" height="20" as="geometry" />
        </mxCell>
        <mxCell id="CMWK7hIQB2H3XhoBIlTY-34" value="init()" style="text;html=1;strokeColor=none;fillColor=none;align=center;verticalAlign=middle;whiteSpace=wrap;rounded=0;sketch=1;fontSize=12;fontColor=#000000;fontStyle=1" vertex="1" parent="4P_Q60DUOdg_aRZbKulJ-1">
          <mxGeometry x="720" y="-743" width="40" height="20" as="geometry" />
        </mxCell>
        <mxCell id="CMWK7hIQB2H3XhoBIlTY-35" style="orthogonalLoop=1;jettySize=auto;html=1;fontColor=#990000;startArrow=classic;startFill=1;sketch=1;entryX=0.5;entryY=1;entryDx=0;entryDy=0;exitX=0.5;exitY=0;exitDx=0;exitDy=0;" edge="1" parent="4P_Q60DUOdg_aRZbKulJ-1">
          <mxGeometry relative="1" as="geometry">
            <mxPoint x="700" y="-666" as="sourcePoint" />
            <mxPoint x="700" y="-723" as="targetPoint" />
          </mxGeometry>
        </mxCell>
        <mxCell id="CMWK7hIQB2H3XhoBIlTY-36" value="publish&lt;br&gt;(&quot;show&quot;)" style="text;html=1;strokeColor=none;fillColor=none;align=center;verticalAlign=middle;whiteSpace=wrap;fontSize=9;rotation=-90;sketch=1;" vertex="1" parent="4P_Q60DUOdg_aRZbKulJ-1">
          <mxGeometry x="665" y="-703" width="40" height="20" as="geometry" />
        </mxCell>
        <mxCell id="CMWK7hIQB2H3XhoBIlTY-37" value="subscribe&lt;br&gt;(&quot;show&quot;)" style="text;html=1;strokeColor=none;fillColor=none;align=center;verticalAlign=middle;whiteSpace=wrap;fontSize=9;rotation=90;sketch=1;" vertex="1" parent="4P_Q60DUOdg_aRZbKulJ-1">
          <mxGeometry x="690" y="-703" width="50" height="22" as="geometry" />
        </mxCell>
        <mxCell id="CMWK7hIQB2H3XhoBIlTY-38" value="View V2" style="whiteSpace=wrap;html=1;fontColor=#333333;fillStyle=solid;fontStyle=1;strokeColor=#6666FF;fillColor=#CCCCFF;sketch=1;" vertex="1" parent="4P_Q60DUOdg_aRZbKulJ-1">
          <mxGeometry x="640" y="-665.5" width="120" height="60" as="geometry" />
        </mxCell>
        <mxCell id="CMWK7hIQB2H3XhoBIlTY-39" value="" style="shape=image;verticalLabelPosition=bottom;labelBackgroundColor=#ffffff;verticalAlign=top;aspect=fixed;imageAspect=0;image=data:image/png,iVBORw0KGgoAAAANSUhEUgAAAPwAAAD8CAYAAABTq8lnAAAN8UlEQVR4Ae2dwW4URxRF+RYsdkj5Fb6A3yALpLDPB0RykCKhZJ0NK/YOyoIVii2BvEEmQrZiWUk2YUFHF1R4aKbtGk931Zt3D9KoPU1PV3W9e+q+ma6uunWLf7QALeDVAi9/uP2Il18bHP14+zvi7hX3jz2bgn64vzfwog3QQG4NADwdHR29kQYA3ijYuHdu966JL8ADPA5vpAGANwp2jQNwTO4sAOABHoc30gDAGwUb987t3jXxBXiAx+GNNADwRsGucQCOyZ0FADzA4/BGGgB4o2Dj3rnduya+NwL+9ODbgRdtgAbiaKAGdh1zY+CHi5OBF22ABvprQB0vwNMh0SGbaADgTQKNu/Z31wgxAHiAx92NNADwRsGO4DDUoW+mAfAAj8MbaQDgjYKNu/Z11wjtD/AAj8MbaQDgjYIdwWGoQ98sA+ABHoc30gDAGwUbd+3rrhHaH+ABHoc30gDAGwU7gsNQh75ZBsADPA5vpAGANwo27trXXSO0P8ADPA5vpAGANwp2BIehDn2zDIAHeBzeSAMAbxRs3LWvu0Zof4AHeBzeSAMAbxTsCA5DHfpmGQAP8Di8kQYA3ijYuGtfd43Q/gAP8Di8kQYA3ijYERyGOvTNMgAe4HF4Iw0AvFGwcde+7hqh/QEe4HF4Iw0AvFGwIzgMdeibZQA8wOPwRhoAeKNg46593TVC+wM8wOPwRhoAeKNgR3AY6tA3ywB4gMfhjTQA8EbBxl37umuE9gf4SuD/+/P34Z+jX4bzF98PZ88fDqcHDz5u9V779f8RAkodloM6gwYA/grg//7jp+Hts/vD65+/GQ7396596Tgdr88B3nLgtWzbbBoA+BHwH/46Hs5+e1gN+VRHIPh1ng/nx8A/auOWwN6krMwaAPgVMSo9f/Xk7rVOPgX5uv06n857E+HxmfZZQnYNAPzFyfD+3YvhzdN7s4I+hl/nVzlA3B7imjZ30YA98P++/nXr9H0M99R7pfkqr0aAHNOuY3DSgDXw+nX96PGdRZ19DL/KU7kA3Q7oq9raTQO2wKtXbw17gV/l4vT9gXfUgCXw+r5We6utQDr3VuXznb4f9K4asAR+6R/oajsH1eOqdJP/W65DcNWAHfC67VILZIvjuGW3HNRTHaazBqyA1yCYue+zb9spqD4a6DElTvbP2yG4a8AKeI182xbQJT6vegH2vGBPtae7BqyA7/1D3VRnoXpNCZT983YE7hqwAV4PQUwBF2E/D9zMC/a6jhINnAw2wOsptghgT9VB9VsnUvbN1xGgASPgo6ZypQMgrZ8P7KlOEg2YAK+JCwpYkbdMorEc9GjgU9tapPQaLx0Z9FI3xtgvBzwaMAI+2kCLAvh4yyCc5YBHA0bAaw66MVwR36ueU98/2b9dZ4AGjIDXhJMRAR/XSfUE7O3Anmo/NGAEPL37MhBNwRVxPxowAp7vbwCPBoyA5xdagEcDRsBzDxbg0YAR8PpOySgroEcDJiPtBDzjqAEeDRgBz5NSAI8GjICPnNbz4Ey7zihqWt9KAxZj6ct9YffZTko7OG/dNWAFvOaOCzmnHQtONhth6K4BK+DlbNEGYKg+zo7b49qdNWAHvATmOid5D7iilumqAUvgXVcdiQpfj3q5asASeAnMcV2xHmBFLtNRA7bAS4gaX916QUlWj213C66ms3HTgDXwEoR6+Vb3ZlWOyqsRIse06xicNGAPvMDS97mlf8TR+VUOILcDeZO2dtEAwF9cClC3a+a+T6/zcevtso03gbDHsdk1APArwEtgWmxQo7G2TfP1eZ2HhSJ3B/bSwWTWAMCPgC9B11YPW+gJq1r4dZyO1+dWz8Pfuwd9iVk2DQD8FcCXoGurCRT0i65SPs2PpkkRtdV77df/rx7P37sL+VTsMmgA4CuBnxIB+/OBnTmmAA/wZCZGGgB4o2Bndi6urS7TAniAx+GNNADwRsHGBetcMHM7ATzA4/BGGgB4o2Bndi6urS57AXiAx+GNNADwRsHGBetcMHM7ATzA4/BGGgB4o2Bndi6urS57AXiAx+GNNADwRsHGBetcMHM7ATzA4/BGGgB4o2Bv4lwZHgXd5HpdjgV4gP/s8Nkme3CBeJPrBHhz4DUF16xTerFO3ucOdBMQWx0L8MbAZ5+wsRVEu1QOwBsC7zIl8y6B2KquAG8GvNOiC60g2qVyAN4IeLdllXYJxFZ1BXgT4OXsrdfRO9zfG/RSuSyxFWPQD8AbAK/v7LVz6xdI596qfJba6g89wBsAv/S6ebWdg+rRKnWlnPWdC8AnB1633mqBbHGc6gOM62Fs0S4Anxh4rZE29+KY23YKqg/r7QE8vf4CHY9G0G0L6BKfV71auBllfN2x4PALgBZFaL1/qJvqLFSvKG3kVg+ATwq8HoSZAi7CflbY/dp9W3Q+AJ8UeC1bHQHsqTqofi0EThlfdiwAnxT4qOl86QBI678EsVXHBPAJgdfkFQWsyFvVs5XQKedTBwPwCYHXmPnIoJe6qZ6A2NbpAT4h8NEG2xTAx1sG4bSFXZ0rwCcE/ux5zPvvY+BVTxy+LfQAnxD404MHO5HSq54AD/CIYMtOCIdvC9EudVo4/JZwRQw23+EBfkqXAJ8QeH6lB3iATwj2VFC5Dw/wU9rA4ZN2BIy0A/p10AN8UuAZSw/wAJ8U7nWB5Wk5gF+nCxw+cScQNa3nwZl+nRHAJwaeGW/6gbXOXSPsA/jEwGvuuJBz2rHgZLfBZQCfGHg5SrRBODww0zfrAPjkwAt65qXvC1mEVL7UAeANgGflGYAHeAPQS5C1ZW05oJcOcHgj8Fk9FugB3gj44vSt7s+rHFaNjdXJALwZ8IJe3+mX/iFP52e12Fiwk9Ibwq6gl5dukc19n17n49bbZRuXto6yxeFXAIgSlJb10IKTGpG3bZqvz+s8LBQZF3bpCuDNgV/tXPTAjZ6yq4Vfx+l4lo2KDflqjAEe4D+n+KvC0CQa+lVf6bnmyNOEk9rqvfaziMTuQL4aV4AH+LXAr4qEv3cT7nVxA3iAB3gjDQC8UbDX9fjsy+PeNbEEeIDH4Y00APBGwa5xAI7J7fgAD/A4vJEGAN4o2Lh3bveuiS/AAzwOb6QBgDcKdo0DcEzuLADgAR6HN9IAwBsFG/fO7d418QV4gMfhjTQA8EbBrnEAjsmdBQA8wOPwRhoAeKNg49653bsmvgAP8Di8kQYA3ijYNQ7AMbmzAIAHeBzeSAMAbxRs3Du3e9fEF+ABHoc30gDAVwabSR1xxwwaAPgrgGfaZiDPpgGAHwGvhRRmXZjh/JiUedTGNd81ex6TWQMAvyJGll7C0bNrAOBZXJEMxEgD9sBrOePapZUO9/eGbV4qh+WT42URThqwBl5LJh09vrMVxJt2ACpP5fb8jkrZl52OmwZsgVev3hr20jmoXJz+ErpeHZCjBiyBf//uRbM0vkA+3iq9Vz16id29XFcNWAL/5um9pmn8GPbyXvVwB6/X9btqwA543XYpwEXYqj69RO9arrMGrID/cH48vHpyNxTwqo8GerjC1/q63TVgBbxG0EVw9XEdVK/Wwnctz10DVsC3ut8+Bvq696qXK4Ctr9tdAzbA6yGI68Dr+f+qX2vxu5WHBk4GG+DfPrsfGnjVzw3A1teLBoyAj5rKlayCtH75gThowAR4TVxQwIq8VT1bu55LeWjgU4dqkdJrvHRk0EvdGGO/nMujASPgow20KICPtwzCWQ54NGAE/NnzmPffx8Crni4pduvrRANGwJ8ePNiJlF71bA2CS3lowAh4evflUuVd6TDQgBHwfH8DeDRgBDy/0AI8GjACnnuwAI8GjIDX90xGWQE9GjAZaSfgGUcN8GjACHielAJ4NGAEfOS0ngdn2nVGUdP6VhqwGEtf7hW7z3ZS2sF5664BK+A1d1zIOe1YcLLZCEN3DVgBL2eLNgBD9XF23B7X7qwBO+AlMNc5yXvAFbVMVw1YAu+66khU+HrUy1UDlsBLYI7rivUAK3KZjhqwBV5C1Pjq1gtKsnpsu1twNZ2NmwasgZcg1Mu3ujerclRejRA5pl3H4KQBe+AFlr7PLf0jjs6vcgC5HcibtLWLBgD+4lKAul0z9316nY9bb5dtvAmEPY7NrgGAXwFeAtNigxqNtW2ar8/rPCwUuTuwlw4mswYAfgR8Cbq2ethCT1jVwq/jdLw+t3oe/t496EvMsmkA4K8AvgRdW02goF90lfJpfjRNiqit3mu//n/1eP7eXcinYpdBAwBfCfyUCNifD+zMMQV4gCczMdIAwBsFO7NzcW11mRbAAzwOb6QBgDcKNi5Y54KZ2wngAR6HN9IAwBsFO7NzcW112QvAAzwOb6QBgDcKNi5Y54KZ2wngAR6HN9IAwBsFO7NzcW112QvAAzwOb6QBgDcKNi5Y54KZ2wngAR6HN9IAwBsFO7NzcW112QvAAzwOb6QBgDcKNi5Y54KZ2wngAR6HN9IAwBsFO7NzcW112QvAAzwOb6QBgDcKNi5Y54KZ2wngAR6HN9IAwBsFO7NzcW112QvAAzwOb6QBgDcKNi5Y54KZ2wngAR6HN9IAwBsFO7NzcW112QvAAzwOb6QBgDcKNi5Y54KZ26kJ8CqEF22ABmJo4HB/b6h53dK/lz/cflRzMMfUNSrtRDtF1QDAV/aMUQNIvehcNtEAwAN8VSq4iag4Nm4nBPAAD/BGGgB4o2DjvHGdt1VsAB7gcXgjDQC8UbBbuQjlxM0kAB7gcXgjDQC8UbBx3rjO2yo2AA/wOLyRBv4H/fhzYZDvMk0AAAAASUVORK5CYII=;sketch=1;" vertex="1" parent="4P_Q60DUOdg_aRZbKulJ-1">
          <mxGeometry x="733" y="-632.5" width="27" height="27" as="geometry" />
        </mxCell>
        <mxCell id="CMWK7hIQB2H3XhoBIlTY-40" value="Model M1" style="whiteSpace=wrap;html=1;fillColor=#f8cecc;strokeColor=#b85450;fillStyle=zigzag;fontColor=#990000;fontStyle=1;sketch=1;" vertex="1" parent="4P_Q60DUOdg_aRZbKulJ-1">
          <mxGeometry x="580" y="-1110" width="120" height="60" as="geometry" />
        </mxCell>
        <mxCell id="CMWK7hIQB2H3XhoBIlTY-41" value="Session XYZ" style="text;html=1;align=center;verticalAlign=middle;whiteSpace=wrap;fontSize=14;fillColor=#ffffff;fontStyle=1;sketch=0;" vertex="1" parent="4P_Q60DUOdg_aRZbKulJ-1">
          <mxGeometry x="610" y="-1137" width="90" height="20" as="geometry" />
        </mxCell>
        <mxCell id="CMWK7hIQB2H3XhoBIlTY-42" value="init()" style="text;html=1;strokeColor=none;fillColor=none;align=center;verticalAlign=middle;whiteSpace=wrap;rounded=0;sketch=1;fontSize=12;fontColor=#000000;fontStyle=1" vertex="1" parent="4P_Q60DUOdg_aRZbKulJ-1">
          <mxGeometry x="660" y="-1070" width="40" height="20" as="geometry" />
        </mxCell>
        <mxCell id="CMWK7hIQB2H3XhoBIlTY-43" style="orthogonalLoop=1;jettySize=auto;html=1;fontColor=#990000;startArrow=classic;startFill=1;sketch=1;entryX=0.5;entryY=1;entryDx=0;entryDy=0;exitX=0.5;exitY=0;exitDx=0;exitDy=0;" edge="1" parent="4P_Q60DUOdg_aRZbKulJ-1">
          <mxGeometry relative="1" as="geometry">
            <mxPoint x="640" y="-993" as="sourcePoint" />
            <mxPoint x="640" y="-1050" as="targetPoint" />
          </mxGeometry>
        </mxCell>
        <mxCell id="CMWK7hIQB2H3XhoBIlTY-44" value="publish&lt;br&gt;(&quot;show&quot;)" style="text;html=1;strokeColor=none;fillColor=none;align=center;verticalAlign=middle;whiteSpace=wrap;fontSize=9;rotation=-90;sketch=1;" vertex="1" parent="4P_Q60DUOdg_aRZbKulJ-1">
          <mxGeometry x="605" y="-1030" width="40" height="20" as="geometry" />
        </mxCell>
        <mxCell id="CMWK7hIQB2H3XhoBIlTY-45" value="subscribe&lt;br&gt;(&quot;show&quot;)" style="text;html=1;strokeColor=none;fillColor=none;align=center;verticalAlign=middle;whiteSpace=wrap;fontSize=9;rotation=90;sketch=1;" vertex="1" parent="4P_Q60DUOdg_aRZbKulJ-1">
          <mxGeometry x="630" y="-1030" width="50" height="22" as="geometry" />
        </mxCell>
        <mxCell id="CMWK7hIQB2H3XhoBIlTY-46" value="" style="shape=image;verticalLabelPosition=bottom;labelBackgroundColor=#ffffff;verticalAlign=top;aspect=fixed;imageAspect=0;image=data:image/png,iVBORw0KGgoAAAANSUhEUgAAAPwAAAD8CAYAAABTq8lnAAAN8UlEQVR4Ae2dwW4URxRF+RYsdkj5Fb6A3yALpLDPB0RykCKhZJ0NK/YOyoIVii2BvEEmQrZiWUk2YUFHF1R4aKbtGk931Zt3D9KoPU1PV3W9e+q+ma6uunWLf7QALeDVAi9/uP2Il18bHP14+zvi7hX3jz2bgn64vzfwog3QQG4NADwdHR29kQYA3ijYuHdu966JL8ADPA5vpAGANwp2jQNwTO4sAOABHoc30gDAGwUb987t3jXxBXiAx+GNNADwRsGucQCOyZ0FADzA4/BGGgB4o2Dj3rnduya+NwL+9ODbgRdtgAbiaKAGdh1zY+CHi5OBF22ABvprQB0vwNMh0SGbaADgTQKNu/Z31wgxAHiAx92NNADwRsGO4DDUoW+mAfAAj8MbaQDgjYKNu/Z11wjtD/AAj8MbaQDgjYIdwWGoQ98sA+ABHoc30gDAGwUbd+3rrhHaH+ABHoc30gDAGwU7gsNQh75ZBsADPA5vpAGANwo27trXXSO0P8ADPA5vpAGANwp2BIehDn2zDIAHeBzeSAMAbxRs3LWvu0Zof4AHeBzeSAMAbxTsCA5DHfpmGQAP8Di8kQYA3ijYuGtfd43Q/gAP8Di8kQYA3ijYERyGOvTNMgAe4HF4Iw0AvFGwcde+7hqh/QEe4HF4Iw0AvFGwIzgMdeibZQA8wOPwRhoAeKNg46593TVC+wM8wOPwRhoAeKNgR3AY6tA3ywB4gMfhjTQA8EbBxl37umuE9gf4SuD/+/P34Z+jX4bzF98PZ88fDqcHDz5u9V779f8RAkodloM6gwYA/grg//7jp+Hts/vD65+/GQ7396596Tgdr88B3nLgtWzbbBoA+BHwH/46Hs5+e1gN+VRHIPh1ng/nx8A/auOWwN6krMwaAPgVMSo9f/Xk7rVOPgX5uv06n857E+HxmfZZQnYNAPzFyfD+3YvhzdN7s4I+hl/nVzlA3B7imjZ30YA98P++/nXr9H0M99R7pfkqr0aAHNOuY3DSgDXw+nX96PGdRZ19DL/KU7kA3Q7oq9raTQO2wKtXbw17gV/l4vT9gXfUgCXw+r5We6utQDr3VuXznb4f9K4asAR+6R/oajsH1eOqdJP/W65DcNWAHfC67VILZIvjuGW3HNRTHaazBqyA1yCYue+zb9spqD4a6DElTvbP2yG4a8AKeI182xbQJT6vegH2vGBPtae7BqyA7/1D3VRnoXpNCZT983YE7hqwAV4PQUwBF2E/D9zMC/a6jhINnAw2wOsptghgT9VB9VsnUvbN1xGgASPgo6ZypQMgrZ8P7KlOEg2YAK+JCwpYkbdMorEc9GjgU9tapPQaLx0Z9FI3xtgvBzwaMAI+2kCLAvh4yyCc5YBHA0bAaw66MVwR36ueU98/2b9dZ4AGjIDXhJMRAR/XSfUE7O3Anmo/NGAEPL37MhBNwRVxPxowAp7vbwCPBoyA5xdagEcDRsBzDxbg0YAR8PpOySgroEcDJiPtBDzjqAEeDRgBz5NSAI8GjICPnNbz4Ey7zihqWt9KAxZj6ct9YffZTko7OG/dNWAFvOaOCzmnHQtONhth6K4BK+DlbNEGYKg+zo7b49qdNWAHvATmOid5D7iilumqAUvgXVcdiQpfj3q5asASeAnMcV2xHmBFLtNRA7bAS4gaX916QUlWj213C66ms3HTgDXwEoR6+Vb3ZlWOyqsRIse06xicNGAPvMDS97mlf8TR+VUOILcDeZO2dtEAwF9cClC3a+a+T6/zcevtso03gbDHsdk1APArwEtgWmxQo7G2TfP1eZ2HhSJ3B/bSwWTWAMCPgC9B11YPW+gJq1r4dZyO1+dWz8Pfuwd9iVk2DQD8FcCXoGurCRT0i65SPs2PpkkRtdV77df/rx7P37sL+VTsMmgA4CuBnxIB+/OBnTmmAA/wZCZGGgB4o2Bndi6urS7TAniAx+GNNADwRsHGBetcMHM7ATzA4/BGGgB4o2Bndi6urS57AXiAx+GNNADwRsHGBetcMHM7ATzA4/BGGgB4o2Bndi6urS57AXiAx+GNNADwRsHGBetcMHM7ATzA4/BGGgB4o2Bv4lwZHgXd5HpdjgV4gP/s8Nkme3CBeJPrBHhz4DUF16xTerFO3ucOdBMQWx0L8MbAZ5+wsRVEu1QOwBsC7zIl8y6B2KquAG8GvNOiC60g2qVyAN4IeLdllXYJxFZ1BXgT4OXsrdfRO9zfG/RSuSyxFWPQD8AbAK/v7LVz6xdI596qfJba6g89wBsAv/S6ebWdg+rRKnWlnPWdC8AnB1633mqBbHGc6gOM62Fs0S4Anxh4rZE29+KY23YKqg/r7QE8vf4CHY9G0G0L6BKfV71auBllfN2x4PALgBZFaL1/qJvqLFSvKG3kVg+ATwq8HoSZAi7CflbY/dp9W3Q+AJ8UeC1bHQHsqTqofi0EThlfdiwAnxT4qOl86QBI678EsVXHBPAJgdfkFQWsyFvVs5XQKedTBwPwCYHXmPnIoJe6qZ6A2NbpAT4h8NEG2xTAx1sG4bSFXZ0rwCcE/ux5zPvvY+BVTxy+LfQAnxD404MHO5HSq54AD/CIYMtOCIdvC9EudVo4/JZwRQw23+EBfkqXAJ8QeH6lB3iATwj2VFC5Dw/wU9rA4ZN2BIy0A/p10AN8UuAZSw/wAJ8U7nWB5Wk5gF+nCxw+cScQNa3nwZl+nRHAJwaeGW/6gbXOXSPsA/jEwGvuuJBz2rHgZLfBZQCfGHg5SrRBODww0zfrAPjkwAt65qXvC1mEVL7UAeANgGflGYAHeAPQS5C1ZW05oJcOcHgj8Fk9FugB3gj44vSt7s+rHFaNjdXJALwZ8IJe3+mX/iFP52e12Fiwk9Ibwq6gl5dukc19n17n49bbZRuXto6yxeFXAIgSlJb10IKTGpG3bZqvz+s8LBQZF3bpCuDNgV/tXPTAjZ6yq4Vfx+l4lo2KDflqjAEe4D+n+KvC0CQa+lVf6bnmyNOEk9rqvfaziMTuQL4aV4AH+LXAr4qEv3cT7nVxA3iAB3gjDQC8UbDX9fjsy+PeNbEEeIDH4Y00APBGwa5xAI7J7fgAD/A4vJEGAN4o2Lh3bveuiS/AAzwOb6QBgDcKdo0DcEzuLADgAR6HN9IAwBsFG/fO7d418QV4gMfhjTQA8EbBrnEAjsmdBQA8wOPwRhoAeKNg49653bsmvgAP8Di8kQYA3ijYNQ7AMbmzAIAHeBzeSAMAbxRs3Du3e9fEF+ABHoc30gDAVwabSR1xxwwaAPgrgGfaZiDPpgGAHwGvhRRmXZjh/JiUedTGNd81ex6TWQMAvyJGll7C0bNrAOBZXJEMxEgD9sBrOePapZUO9/eGbV4qh+WT42URThqwBl5LJh09vrMVxJt2ACpP5fb8jkrZl52OmwZsgVev3hr20jmoXJz+ErpeHZCjBiyBf//uRbM0vkA+3iq9Vz16id29XFcNWAL/5um9pmn8GPbyXvVwB6/X9btqwA543XYpwEXYqj69RO9arrMGrID/cH48vHpyNxTwqo8GerjC1/q63TVgBbxG0EVw9XEdVK/Wwnctz10DVsC3ut8+Bvq696qXK4Ctr9tdAzbA6yGI68Dr+f+qX2vxu5WHBk4GG+DfPrsfGnjVzw3A1teLBoyAj5rKlayCtH75gThowAR4TVxQwIq8VT1bu55LeWjgU4dqkdJrvHRk0EvdGGO/nMujASPgow20KICPtwzCWQ54NGAE/NnzmPffx8Crni4pduvrRANGwJ8ePNiJlF71bA2CS3lowAh4evflUuVd6TDQgBHwfH8DeDRgBDy/0AI8GjACnnuwAI8GjIDX90xGWQE9GjAZaSfgGUcN8GjACHielAJ4NGAEfOS0ngdn2nVGUdP6VhqwGEtf7hW7z3ZS2sF5664BK+A1d1zIOe1YcLLZCEN3DVgBL2eLNgBD9XF23B7X7qwBO+AlMNc5yXvAFbVMVw1YAu+66khU+HrUy1UDlsBLYI7rivUAK3KZjhqwBV5C1Pjq1gtKsnpsu1twNZ2NmwasgZcg1Mu3ujerclRejRA5pl3H4KQBe+AFlr7PLf0jjs6vcgC5HcibtLWLBgD+4lKAul0z9316nY9bb5dtvAmEPY7NrgGAXwFeAtNigxqNtW2ar8/rPCwUuTuwlw4mswYAfgR8Cbq2ethCT1jVwq/jdLw+t3oe/t496EvMsmkA4K8AvgRdW02goF90lfJpfjRNiqit3mu//n/1eP7eXcinYpdBAwBfCfyUCNifD+zMMQV4gCczMdIAwBsFO7NzcW11mRbAAzwOb6QBgDcKNi5Y54KZ2wngAR6HN9IAwBsFO7NzcW112QvAAzwOb6QBgDcKNi5Y54KZ2wngAR6HN9IAwBsFO7NzcW112QvAAzwOb6QBgDcKNi5Y54KZ2wngAR6HN9IAwBsFO7NzcW112QvAAzwOb6QBgDcKNi5Y54KZ2wngAR6HN9IAwBsFO7NzcW112QvAAzwOb6QBgDcKNi5Y54KZ2wngAR6HN9IAwBsFO7NzcW112QvAAzwOb6QBgDcKNi5Y54KZ2wngAR6HN9IAwBsFO7NzcW112QvAAzwOb6QBgDcKNi5Y54KZ26kJ8CqEF22ABmJo4HB/b6h53dK/lz/cflRzMMfUNSrtRDtF1QDAV/aMUQNIvehcNtEAwAN8VSq4iag4Nm4nBPAAD/BGGgB4o2DjvHGdt1VsAB7gcXgjDQC8UbBbuQjlxM0kAB7gcXgjDQC8UbBx3rjO2yo2AA/wOLyRBv4H/fhzYZDvMk0AAAAASUVORK5CYII=;sketch=1;" vertex="1" parent="4P_Q60DUOdg_aRZbKulJ-1">
          <mxGeometry x="673" y="-959.5" width="27" height="27" as="geometry" />
        </mxCell>
      </root>
    </mxGraphModel>
  </diagram>
  <diagram id="SxJ5pg3A7wNAkw2IEKq_" name="Page-7">
    <mxGraphModel dx="815" dy="1581" grid="1" gridSize="10" guides="1" tooltips="1" connect="1" arrows="1" fold="1" page="1" pageScale="1" pageWidth="827" pageHeight="1169" math="0" shadow="0">
      <root>
        <mxCell id="y3suhU42Z3Smm_mkL3TH-0" />
        <mxCell id="y3suhU42Z3Smm_mkL3TH-1" parent="y3suhU42Z3Smm_mkL3TH-0" />
        <mxCell id="y3suhU42Z3Smm_mkL3TH-2" value="" style="whiteSpace=wrap;html=1;fillColor=none;sketch=1;" vertex="1" parent="y3suhU42Z3Smm_mkL3TH-1">
          <mxGeometry x="80" y="-930" width="140" height="180" as="geometry" />
        </mxCell>
        <mxCell id="y3suhU42Z3Smm_mkL3TH-3" value="View V1" style="whiteSpace=wrap;html=1;fontColor=#333333;fillStyle=solid;fontStyle=1;fillColor=#B3FF66;strokeColor=#66FF66;sketch=1;" vertex="1" parent="y3suhU42Z3Smm_mkL3TH-1">
          <mxGeometry x="90" y="-830" width="120" height="60" as="geometry" />
        </mxCell>
        <mxCell id="y3suhU42Z3Smm_mkL3TH-4" value="" style="whiteSpace=wrap;html=1;fillColor=none;sketch=1;" vertex="1" parent="y3suhU42Z3Smm_mkL3TH-1">
          <mxGeometry x="670" y="-750" width="140" height="180" as="geometry" />
        </mxCell>
        <mxCell id="y3suhU42Z3Smm_mkL3TH-5" value="View V2" style="whiteSpace=wrap;html=1;fontColor=#333333;fillStyle=solid;fontStyle=1;strokeColor=#6666FF;fillColor=#CCCCFF;sketch=1;" vertex="1" parent="y3suhU42Z3Smm_mkL3TH-1">
          <mxGeometry x="680" y="-650" width="120" height="60" as="geometry" />
        </mxCell>
        <mxCell id="y3suhU42Z3Smm_mkL3TH-6" value="Model M1" style="whiteSpace=wrap;html=1;fillColor=#f8cecc;strokeColor=#b85450;fillStyle=zigzag;fontColor=#990000;fontStyle=1;sketch=1;" vertex="1" parent="y3suhU42Z3Smm_mkL3TH-1">
          <mxGeometry x="90" y="-910" width="120" height="60" as="geometry" />
        </mxCell>
        <mxCell id="y3suhU42Z3Smm_mkL3TH-7" style="orthogonalLoop=1;jettySize=auto;html=1;fontColor=#990000;startArrow=none;startFill=0;endArrow=classic;endFill=1;flowAnimation=1;exitX=0.13;exitY=0.77;exitDx=0;exitDy=0;exitPerimeter=0;entryX=1;entryY=0.5;entryDx=0;entryDy=0;sketch=1;" edge="1" parent="y3suhU42Z3Smm_mkL3TH-1" source="y3suhU42Z3Smm_mkL3TH-14">
          <mxGeometry relative="1" as="geometry">
            <mxPoint x="360.20399999999995" y="-820.95" as="sourcePoint" />
            <mxPoint x="210" y="-803" as="targetPoint" />
          </mxGeometry>
        </mxCell>
        <mxCell id="y3suhU42Z3Smm_mkL3TH-8" value="Client C1" style="text;html=1;strokeColor=none;fillColor=none;align=center;verticalAlign=middle;whiteSpace=wrap;fontStyle=1;sketch=1;" vertex="1" parent="y3suhU42Z3Smm_mkL3TH-1">
          <mxGeometry x="115" y="-750" width="70" height="20" as="geometry" />
        </mxCell>
        <mxCell id="y3suhU42Z3Smm_mkL3TH-9" value="Session XYZ" style="text;html=1;align=center;verticalAlign=middle;whiteSpace=wrap;fontSize=14;fontStyle=1;sketch=0;fillColor=#ffffff;" vertex="1" parent="y3suhU42Z3Smm_mkL3TH-1">
          <mxGeometry x="120" y="-940" width="90" height="20" as="geometry" />
        </mxCell>
        <mxCell id="y3suhU42Z3Smm_mkL3TH-10" value="" style="outlineConnect=0;dashed=0;verticalLabelPosition=bottom;verticalAlign=top;align=center;html=1;fontSize=12;fontStyle=0;aspect=fixed;pointerEvents=1;shape=mxgraph.aws4.user;fillColor=#333333;strokeWidth=1;sketch=1;" vertex="1" parent="y3suhU42Z3Smm_mkL3TH-1">
          <mxGeometry x="131" y="-730" width="38" height="38" as="geometry" />
        </mxCell>
        <mxCell id="y3suhU42Z3Smm_mkL3TH-11" style="edgeStyle=none;orthogonalLoop=1;jettySize=auto;html=1;entryX=1;entryY=1;entryDx=0;entryDy=0;fontSize=12;fontColor=#000000;startArrow=classic;startFill=1;flowAnimation=0;exitX=1;exitY=0.5;exitDx=0;exitDy=0;labelBorderColor=#000000;strokeColor=#B3B3B3;sketch=1;" edge="1" parent="y3suhU42Z3Smm_mkL3TH-1" source="y3suhU42Z3Smm_mkL3TH-6" target="y3suhU42Z3Smm_mkL3TH-16">
          <mxGeometry relative="1" as="geometry">
            <mxPoint x="240" y="-950" as="sourcePoint" />
          </mxGeometry>
        </mxCell>
        <mxCell id="y3suhU42Z3Smm_mkL3TH-12" style="edgeStyle=none;orthogonalLoop=1;jettySize=auto;html=1;entryX=0.8;entryY=0.8;entryDx=0;entryDy=0;fontSize=12;fontColor=#000000;startArrow=classic;startFill=1;flowAnimation=0;entryPerimeter=0;exitX=0;exitY=0.5;exitDx=0;exitDy=0;labelBorderColor=#000000;strokeColor=#B3B3B3;sketch=1;" edge="1" parent="y3suhU42Z3Smm_mkL3TH-1" source="y3suhU42Z3Smm_mkL3TH-17" target="y3suhU42Z3Smm_mkL3TH-14">
          <mxGeometry relative="1" as="geometry">
            <mxPoint x="680" y="-800" as="sourcePoint" />
          </mxGeometry>
        </mxCell>
        <mxCell id="y3suhU42Z3Smm_mkL3TH-13" style="edgeStyle=none;orthogonalLoop=1;jettySize=auto;html=1;fontSize=12;fontColor=#000000;startArrow=classic;startFill=1;flowAnimation=0;exitX=0;exitY=0.5;exitDx=0;exitDy=0;entryX=0.359;entryY=0.108;entryDx=0;entryDy=0;entryPerimeter=0;labelBorderColor=#000000;strokeColor=#B3B3B3;sketch=1;" edge="1" parent="y3suhU42Z3Smm_mkL3TH-1" source="y3suhU42Z3Smm_mkL3TH-25" target="y3suhU42Z3Smm_mkL3TH-14">
          <mxGeometry relative="1" as="geometry">
            <mxPoint x="584" y="-1089" as="sourcePoint" />
            <mxPoint x="434.4000000000001" y="-907" as="targetPoint" />
          </mxGeometry>
        </mxCell>
        <mxCell id="y3suhU42Z3Smm_mkL3TH-14" value="Reflector" style="ellipse;shape=cloud;whiteSpace=wrap;html=1;fontSize=21;strokeColor=#6c8ebf;fillColor=#CCFFFF;fontColor=#0066CC;sketch=1;" vertex="1" parent="y3suhU42Z3Smm_mkL3TH-1">
          <mxGeometry x="310" y="-920" width="326" height="130" as="geometry" />
        </mxCell>
        <mxCell id="y3suhU42Z3Smm_mkL3TH-15" value="publish(&quot;rollDice&quot;)" style="text;html=1;strokeColor=none;fillColor=none;align=center;verticalAlign=middle;whiteSpace=wrap;fontSize=12;rotation=354.5;fontColor=#CCCCCC;sketch=1;" vertex="1" parent="y3suhU42Z3Smm_mkL3TH-1">
          <mxGeometry x="230" y="-814" width="106" height="20" as="geometry" />
        </mxCell>
        <mxCell id="y3suhU42Z3Smm_mkL3TH-16" value="subscribe(&quot;rollDice&quot;)" style="text;html=1;strokeColor=none;fillColor=none;align=center;verticalAlign=middle;whiteSpace=wrap;fontSize=12;rotation=6;fontColor=#CCCCCC;sketch=1;" vertex="1" parent="y3suhU42Z3Smm_mkL3TH-1">
          <mxGeometry x="230" y="-893" width="106" height="20" as="geometry" />
        </mxCell>
        <mxCell id="y3suhU42Z3Smm_mkL3TH-17" value="Model M1" style="whiteSpace=wrap;html=1;fillColor=#f8cecc;strokeColor=#b85450;fillStyle=zigzag;fontColor=#990000;fontStyle=1;sketch=1;" vertex="1" parent="y3suhU42Z3Smm_mkL3TH-1">
          <mxGeometry x="680" y="-730" width="120" height="60" as="geometry" />
        </mxCell>
        <mxCell id="y3suhU42Z3Smm_mkL3TH-18" style="edgeStyle=none;orthogonalLoop=1;jettySize=auto;html=1;fontSize=12;fontColor=#000000;startArrow=none;startFill=0;endArrow=classic;endFill=1;flowAnimation=1;sketch=1;" edge="1" parent="y3suhU42Z3Smm_mkL3TH-1">
          <mxGeometry relative="1" as="geometry">
            <mxPoint x="489" y="-796" as="sourcePoint" />
            <mxPoint x="681" y="-617" as="targetPoint" />
          </mxGeometry>
        </mxCell>
        <mxCell id="y3suhU42Z3Smm_mkL3TH-19" value="Client C2" style="text;html=1;strokeColor=none;fillColor=none;align=center;verticalAlign=middle;whiteSpace=wrap;fontStyle=1;sketch=1;" vertex="1" parent="y3suhU42Z3Smm_mkL3TH-1">
          <mxGeometry x="705" y="-570" width="70" height="20" as="geometry" />
        </mxCell>
        <mxCell id="y3suhU42Z3Smm_mkL3TH-20" value="Session XYZ" style="text;html=1;align=center;verticalAlign=middle;whiteSpace=wrap;fontSize=14;fillColor=#ffffff;fontStyle=1;sketch=0;" vertex="1" parent="y3suhU42Z3Smm_mkL3TH-1">
          <mxGeometry x="710" y="-760" width="90" height="20" as="geometry" />
        </mxCell>
        <mxCell id="y3suhU42Z3Smm_mkL3TH-21" value="" style="outlineConnect=0;dashed=0;verticalLabelPosition=bottom;verticalAlign=top;align=center;html=1;fontSize=12;fontStyle=0;aspect=fixed;pointerEvents=1;shape=mxgraph.aws4.user;fillColor=#333333;strokeWidth=1;sketch=1;" vertex="1" parent="y3suhU42Z3Smm_mkL3TH-1">
          <mxGeometry x="721" y="-550" width="38" height="38" as="geometry" />
        </mxCell>
        <mxCell id="y3suhU42Z3Smm_mkL3TH-22" value="publish(&quot;rollDice&quot;)" style="text;html=1;strokeColor=none;fillColor=none;align=center;verticalAlign=middle;whiteSpace=wrap;fontSize=12;rotation=43;fontColor=#CCCCCC;sketch=1;" vertex="1" parent="y3suhU42Z3Smm_mkL3TH-1">
          <mxGeometry x="514" y="-721" width="106" height="20" as="geometry" />
        </mxCell>
        <mxCell id="y3suhU42Z3Smm_mkL3TH-23" value="subscribe(&quot;rollDice&quot;)" style="text;html=1;strokeColor=none;fillColor=none;align=center;verticalAlign=middle;whiteSpace=wrap;fontSize=12;rotation=46.5;fontColor=#CCCCCC;sketch=1;" vertex="1" parent="y3suhU42Z3Smm_mkL3TH-1">
          <mxGeometry x="580" y="-775" width="106" height="20" as="geometry" />
        </mxCell>
        <mxCell id="y3suhU42Z3Smm_mkL3TH-24" value="" style="whiteSpace=wrap;html=1;fillColor=none;sketch=1;" vertex="1" parent="y3suhU42Z3Smm_mkL3TH-1">
          <mxGeometry x="580" y="-1139" width="140" height="180" as="geometry" />
        </mxCell>
        <mxCell id="y3suhU42Z3Smm_mkL3TH-25" value="Model M1" style="whiteSpace=wrap;html=1;fillColor=#f8cecc;strokeColor=#b85450;fillStyle=zigzag;fontColor=#990000;fontStyle=1;sketch=1;" vertex="1" parent="y3suhU42Z3Smm_mkL3TH-1">
          <mxGeometry x="590" y="-1119" width="120" height="60" as="geometry" />
        </mxCell>
        <mxCell id="y3suhU42Z3Smm_mkL3TH-26" style="edgeStyle=none;orthogonalLoop=1;jettySize=auto;html=1;fontSize=12;fontColor=#000000;exitX=0.625;exitY=0.2;exitDx=0;exitDy=0;startArrow=none;startFill=0;flowAnimation=1;endArrow=classic;endFill=1;exitPerimeter=0;entryX=0;entryY=0.5;entryDx=0;entryDy=0;sketch=1;" edge="1" parent="y3suhU42Z3Smm_mkL3TH-1" source="y3suhU42Z3Smm_mkL3TH-14" target="y3suhU42Z3Smm_mkL3TH-27">
          <mxGeometry relative="1" as="geometry">
            <mxPoint x="514" y="-960" as="targetPoint" />
          </mxGeometry>
        </mxCell>
        <mxCell id="y3suhU42Z3Smm_mkL3TH-27" value="View V3" style="whiteSpace=wrap;html=1;fontColor=#333333;fillStyle=solid;fontStyle=1;strokeColor=#CC0066;fillColor=#FFCCE6;sketch=1;" vertex="1" parent="y3suhU42Z3Smm_mkL3TH-1">
          <mxGeometry x="590" y="-1039" width="120" height="60" as="geometry" />
        </mxCell>
        <mxCell id="y3suhU42Z3Smm_mkL3TH-28" value="Client C3" style="text;html=1;strokeColor=none;fillColor=none;align=center;verticalAlign=middle;whiteSpace=wrap;fontStyle=1;sketch=1;" vertex="1" parent="y3suhU42Z3Smm_mkL3TH-1">
          <mxGeometry x="615" y="-959" width="70" height="20" as="geometry" />
        </mxCell>
        <mxCell id="y3suhU42Z3Smm_mkL3TH-29" value="Session XYZ" style="text;html=1;align=center;verticalAlign=middle;whiteSpace=wrap;fontSize=14;fillColor=#ffffff;fontStyle=1;sketch=0;" vertex="1" parent="y3suhU42Z3Smm_mkL3TH-1">
          <mxGeometry x="620" y="-1149" width="90" height="20" as="geometry" />
        </mxCell>
        <mxCell id="y3suhU42Z3Smm_mkL3TH-30" value="" style="outlineConnect=0;dashed=0;verticalLabelPosition=bottom;verticalAlign=top;align=center;html=1;fontSize=12;fontStyle=0;aspect=fixed;pointerEvents=1;shape=mxgraph.aws4.user;fillColor=#333333;strokeWidth=1;sketch=1;" vertex="1" parent="y3suhU42Z3Smm_mkL3TH-1">
          <mxGeometry x="631" y="-939" width="38" height="38" as="geometry" />
        </mxCell>
        <mxCell id="y3suhU42Z3Smm_mkL3TH-31" value="publish(&quot;rollDice&quot;)" style="text;html=1;strokeColor=none;align=center;verticalAlign=middle;whiteSpace=wrap;fontSize=12;rotation=304;fontColor=#CCCCCC;sketch=1;" vertex="1" parent="y3suhU42Z3Smm_mkL3TH-1">
          <mxGeometry x="503" y="-950" width="106" height="20" as="geometry" />
        </mxCell>
        <mxCell id="y3suhU42Z3Smm_mkL3TH-32" value="subscribe(&quot;rollDice&quot;)" style="text;html=1;strokeColor=none;fillColor=none;align=center;verticalAlign=middle;whiteSpace=wrap;fontSize=12;rotation=312;fontColor=#CCCCCC;sketch=1;" vertex="1" parent="y3suhU42Z3Smm_mkL3TH-1">
          <mxGeometry x="440" y="-1006" width="106" height="20" as="geometry" />
        </mxCell>
        <mxCell id="y3suhU42Z3Smm_mkL3TH-33" value="subscribe(&quot;showDice&quot;)" style="text;html=1;strokeColor=none;fillColor=none;align=center;verticalAlign=middle;whiteSpace=wrap;fontSize=12;rotation=354.5;sketch=1;" vertex="1" parent="y3suhU42Z3Smm_mkL3TH-1">
          <mxGeometry x="230" y="-833" width="106" height="20" as="geometry" />
        </mxCell>
        <mxCell id="y3suhU42Z3Smm_mkL3TH-34" value="publish(&quot;showDice&quot;)" style="text;html=1;strokeColor=none;fillColor=none;align=center;verticalAlign=middle;whiteSpace=wrap;fontSize=12;rotation=5.5;fontColor=#CCCCCC;sketch=1;" vertex="1" parent="y3suhU42Z3Smm_mkL3TH-1">
          <mxGeometry x="225" y="-873" width="106" height="20" as="geometry" />
        </mxCell>
        <mxCell id="y3suhU42Z3Smm_mkL3TH-35" value="publish(&quot;showDice&quot;)" style="text;html=1;strokeColor=none;fillColor=none;align=center;verticalAlign=middle;whiteSpace=wrap;fontSize=12;rotation=311;fontColor=#CCCCCC;sketch=1;" vertex="1" parent="y3suhU42Z3Smm_mkL3TH-1">
          <mxGeometry x="461" y="-999" width="106" height="20" as="geometry" />
        </mxCell>
        <mxCell id="y3suhU42Z3Smm_mkL3TH-36" value="publish(&quot;showDice&quot;)" style="text;html=1;strokeColor=none;fillColor=none;align=center;verticalAlign=middle;whiteSpace=wrap;fontSize=12;rotation=46.5;fontColor=#CCCCCC;sketch=1;" vertex="1" parent="y3suhU42Z3Smm_mkL3TH-1">
          <mxGeometry x="563" y="-763" width="106" height="20" as="geometry" />
        </mxCell>
        <mxCell id="y3suhU42Z3Smm_mkL3TH-37" style="edgeStyle=none;orthogonalLoop=1;jettySize=auto;html=1;exitX=0.5;exitY=1;exitDx=0;exitDy=0;fontSize=12;fontColor=#000000;sketch=1;" edge="1" parent="y3suhU42Z3Smm_mkL3TH-1" source="y3suhU42Z3Smm_mkL3TH-36" target="y3suhU42Z3Smm_mkL3TH-36">
          <mxGeometry relative="1" as="geometry" />
        </mxCell>
        <mxCell id="y3suhU42Z3Smm_mkL3TH-38" value="subscribe(&quot;showDice&quot;)" style="text;html=1;strokeColor=none;fillColor=none;align=center;verticalAlign=middle;whiteSpace=wrap;fontSize=12;rotation=43;sketch=1;" vertex="1" parent="y3suhU42Z3Smm_mkL3TH-1">
          <mxGeometry x="525" y="-738" width="106" height="20" as="geometry" />
        </mxCell>
        <mxCell id="y3suhU42Z3Smm_mkL3TH-39" value="subscribe(&quot;showDice&quot;)" style="text;html=1;strokeColor=none;fillColor=none;align=center;verticalAlign=middle;whiteSpace=wrap;fontSize=12;rotation=303;sketch=1;" vertex="1" parent="y3suhU42Z3Smm_mkL3TH-1">
          <mxGeometry x="490" y="-966" width="106" height="20" as="geometry" />
        </mxCell>
        <mxCell id="y3suhU42Z3Smm_mkL3TH-40" value="" style="shape=image;verticalLabelPosition=bottom;labelBackgroundColor=#ffffff;verticalAlign=top;aspect=fixed;imageAspect=0;image=data:image/png,iVBORw0KGgoAAAANSUhEUgAAAPwAAAD8CAYAAABTq8lnAAAN1UlEQVR4Ae2dwaocRRSG8ywJ2Qm+ik/ga8SFYPY+QOAqCEHXbly5j8FFVsEbULIJiYQEg6gbXWTkTyhp2p6Z6pmpqtPn/y4MPdO3uqumzvnOf6a7uurGDf7oAXrAqwce37t5l5dfHzz54uZn2N3L7u8im4x+fXVrx4s+wAdy+wDAE+gI9EY+APBGxka9c6t3jX0BHuBReCMfAHgjY9coAGVyZwEAD/AovJEPALyRsVHv3OpdY1+AB3gU3sgHAN7I2DUKQJncWQDAAzwKb+QDAG9kbNQ7t3rX2Pck4F89+GTHiz7AB+L4QA3sKnMy8Lvfn+940Qf4wHgfUOAFeAISAdnEBwDexNCo63h1jWADgAd41N3IBwDeyNgRFIY2jM00AB7gUXgjHwB4I2OjrmPVNUL/AzzAo/BGPgDwRsaOoDC0YWyWAfAAj8Ib+QDAGxkbdR2rrhH6H+ABHoU38gGANzJ2BIWhDWOzDIAHeBTeyAcA3sjYqOtYdY3Q/wAP8Ci8kQ8AvJGxIygMbRibZQA8wKPwRj4A8EbGRl3HqmuE/gd4gEfhjXwA4I2MHUFhaMPYLAPgAR6FN/IBgDcyNuo6Vl0j9D/AAzwKb+QDAG9k7AgKQxvGZhkAD/AovJEPALyRsVHXseoaof8BHuBReCMfAHgjY0dQGNowNssAeIBH4Y18AOCNjI26jlXXCP0P8ACPwhv5AMAbGTuCwtCGsVkGwAM8Cm/kAwBvZGzUday6Ruh/gAd4FL7SB/7+9cfdn0++2b159Pnu9cNPd68e3Hm31Wft1/8jQH2oDQBfaexDncj/8irnHz99tXvx/ce7X77+cHd9devoS+VUXsdF9AuAB/iQjjkSlre/Pd29/uHTasj3BQLBr/O8ffM0TB8DPMCHccaRkJe6lZ7/fP+Do0q+D/Kl/TqfzlvqGLkFeIAP4YgjIVDd/7x8tHv23UcXBX0Ov86vekZ+V4AH+KEOONL5S91//fLt2en7HO59n5Xmq75Sd+8twAP8MOfr7exL9enq+pMvbzdV9jn8qk/1LrWn9T6AB/ghjtfasWvOL6XtDXuBX/WOUHqAB3hL4PVbuvZWW4H00lvV3/s3PcADvCXwrS/Q1QYHtaMmG7lUGYAH+K4OdynHPec8ukVWC2SPcj1v2QE8wFsBr0Ewl77Pfm5QUHs02OecIFZ7LMADfBdHq3XI1uU08u1cQFscr3a1/u46P8ADfBdH6+HMNXWMvlC3L1ioXTXtP7cMwAN8F0c711EvcbweaNkHXIT9PR64AXiAtwFeT7FFAHtfG9S+SwS2Q+cAeIBv7mSHHLDn/6Km8yUA9EjrAR7gLYDX5BQFrMjb1pNoADzAWwCvseuRQS9taz3GHuAB3gL4aINtCuDzbetBOAAP8BbAaw66OVwRP6udLa9rADzAN3Wwls675tyacDIi4PM2qZ1rvtfasgAP8E0dbK1DtiqPwr+faBTgAd4CeH7DA7yFo7dSzK2dl6v0AA/wRtkN9+EBHuCNgFdGwkg7npYDeiPoGUsP8ABvBDxPywE8wBsBHzmt7/HgjL4/t+XMHH5rV9cv3V5mvPmkegDSDf09vnfz7nx00KHPiiiXNhrne3/FlX5Y3w+aOy7knHadFpxE4VF4u4AcbRBO6wdmpsIA8ABvB7wAYF7642vdk9ITHNIEB1aeAfg0zjxN4Xi//3c+a8sdhh6FR+HTBUWNse+9oCSrxwJSOpC2lFlI6XsNu1U9I1aNLfbgoh3BhmDz+/N3q7i2vpCn8/deLbaAXrYAD/AAP/EB3SK79H16na/nrbcC99IW4CfGXuog9u2/6JW1b7TgpEbknZvm63idp9dCkTX2AHiAR+EP+IAeuNFTdrXwq5zK91g2qgbweRmAP2DseWfx2U/tpzbXJBq6qq/0XHPkacJJbfVZ+1svIjFty6nvAR7gUXgjHwB4I2OfqgoclyezAXiAR+GNfADgjYyNUudR6lNtCfAAj8Ib+QDAGxn7VFXguDyZAcADPApv5AMAb2RslDqPUp9qS4AHeBTeyAcA3sjYp6oCx+XJDAAe4FF4Ix8AeCNjo9R5lPpUWwI8wKPwRj4A8EbGPlUVOC5PZgDwAL+o8BkeBSVQ/T9QATzA/wd8tskeAB7g/3NunOG9M2j6pYtO59RpjTTs93+Ya/oEhTdW+OwTNtYA4FYG4A2B11TJDlMyu8Fc830B3gx4p0UXagBwKwPwRsC7LavkBnPN9wV4E+AdF06sAcCtDMAbAO+6NLIbzDXfF+ANgG99ge766vCyw+X/akeNU1LmtFtuNf0G8MmB1623AlyErdpT45iUaQM9wCcGXmukXXphxHODhtoTaa01t8AC8ImB1wi6cwFtcbza5QZalO8L8ImBr10AsQXUh86pdkUBwK0dAJ8UeD0Icwi60f+Lurpq9gAA8EmB15LFo6E+VL/alx2uiN8P4JMCHzWdL0GAtL7NVfhjQQbgEwKvySsKWJG3W1hP/RhAW/s/wCcEXmPmI4Ne2qZ2bg2YrbcX4BMCH22wTQF8vmUQTv+0HuATAv/6Ycz773Pg1c6tK+bW2g/wCYF/9eDOJlJ6tXNrwGy9vQCfEHgUvn+qvJVAAPAJgec3PMDvC0AAnxB4rtIDPMAnBHufUbkPD/D7fAOFTxoIGGkH9EvQA3xS4BlLD/AAnxTuJcPytBzAL/kFCp84CERN63lwZlwwAvjEwDPjzTiwltQ1wj6ATwy85o4LOacdC04OG2EI8ImBl6JEG4TDAzNjsw6ATw68oGde+rGQRUjlSxsA3gB4Vp4BeIA3AL0YWVvWlgN6+QEKbwQ+q8cCPcAbAV+Uvtf9edWjzGKaafB+bNABeDPgBZx+07e+kKfzqx4AHwv4vP8B3hD44gS6RXbp+/Q6H7feYkFe7K0twBsDLwfQgpMakXdumq/jdR4WiowLO8Cbwz6N/HqvB270lF0t/Cqn8iwbFRvyqZ1ReKBf/J2tSTR0VV/puebI04ST2uqz9rOIxHYgB3ggX4R86hi83ybQx+yGwgM/8Bv5AMAbGftY9Of/OVV9aleAB3gU3sgHAN7I2NNIz/v8ar5kY4AHeBTeyAcA3sjYSxGffV5KD/AAj8Ib+QDAGxkbNfdS8yV7AzzAo/BGPgDwRsZeivjs81J9gAd4FN7IBwDeyNiouZeaL9kb4AEehTfyAYA3MvZSxGefl+oDPMCj8EY+APBGxkbNvdR8yd4AD/AovJEPALyRsZciPvu8VB/gAR6FN/IBgK80NpM6eilh1swH4A8Az7TNQJ4NfICfAa+FFC66MMObp6TMsz7OBtGWvg/AT5yRpZdQ9C3Be0pbAZ7FFclAJkH/FIi2dIw98FrOuHZppeurW7tzXqqH5ZPJIkYGCGvgtWTSky9vnwXx2gCg+lTvSKNTt2/QsQVeStsb9hIcVC9K7wvdyIBrCfw/Lx91S+ML5POt0nu1Y6Txqdsv6FgC/+y7j7qm8XPYy2e1A+j8oBtpczvgdeutABdhq/aMdADq9go4VsC/ffN09/P9D0IBr/ZosA/geYE3yt5WwGsEXQRVn7dB7RrlANTrFWisgO91v30O9LHPahfgeYE3yt42wOtBmGPgjfy/2jfKCajXJ9jYAP/i+49DA6/2AZ4PeKNsbQN81HS+ZBWk9cDeIwhYAK/JKwpYkbdqZw+jU4dvcLEAXmPXI4Ne2sYYe18QewVhC+CjDbYpgM+3DMIB+NbgWwD/+mHM++9z4NXO1gbn/N5BxQL4Vw/ubCKlVzsB0hvI1va3AB6FB6LWIG3l/BbA8xse4LcCZOt2WgDPVXqAbw3SVs5vATz34QF+K0C2bqcF8OpERtoBfWuYtnB+G+AZSw/wWwCydRttgOdpOYBvDdMWzm8DvIwRNa3nwRmCUa9gYQU8M94AVi+wotZjBbzmjgs5px0LTjLCsNNyV1bAK+pGG4TDAzNkHT2zATvg1bnMSw9kPSGLVJcl8Kw8A/CRIOzZFkvg1cGsLQf0PUGLUpct8DKAxtj3XlCS1WMJNCPhtwZeHS+l73V/XvWwaizAA3ynWxL7Olq/6VtfyNP5WS0W2Pf5YK/99go/7WjdIrv0fXqdj1tvgD71s5HvAX6WXWjBSY3IOzfN1/E6DwtFAvtIwOd1A/wM+GkH6YEbPWVXC7/KqTzLRgH51I8ivQf4A8BPDaVJNHRVX+m55sjThJPa6rP2s4gEkE/9Jep7gK8EPqoBaReBZo0PADzA8+CKkQ8AvJGx1ygBZXNmDgAP8Ci8kQ8AvJGxUe2cqr3GrgAP8Ci8kQ8AvJGx1ygBZXNmAwAP8Ci8kQ8AvJGxUe2cqr3GrgAP8Ci8kQ8AvJGx1ygBZXNmAwAP8Ci8kQ8AvJGxUe2cqr3GrgAP8Ci8kQ8AvJGx1ygBZXNmAwAP8Ci8kQ8AvJGxUe2cqr3GrgAP8Ci8kQ8AvJGx1ygBZXNmAwAP8Ci8kQ8AvJGxUe2cqr3GrgAP8Ci8kQ8AvJGx1ygBZXNmAwAP8Ci8kQ8AvJGxUe2cqr3GrgAP8Ci8kQ8AvJGx1ygBZXNmAwAP8Ci8kQ8AvJGxUe2cqr3Grl2AVyW86AN8IIYPXF/d2tW8bujv8b2bd2sKU6auU+kn+imqDwB8ZWSMakDaRXBZ4wMAD/BVqeAap6Js3CAE8AAP8EY+APBGxkZ54ypvL9sAPMCj8EY+APBGxu6lItQTN5MAeIBH4Y18AOCNjI3yxlXeXrYBeIBH4Y184F+fcwcD0El1UgAAAABJRU5ErkJggg==;sketch=1;" vertex="1" parent="y3suhU42Z3Smm_mkL3TH-1">
          <mxGeometry x="183" y="-797" width="27" height="27" as="geometry" />
        </mxCell>
        <mxCell id="y3suhU42Z3Smm_mkL3TH-41" value="" style="shape=image;verticalLabelPosition=bottom;labelBackgroundColor=#ffffff;verticalAlign=top;aspect=fixed;imageAspect=0;image=data:image/png,iVBORw0KGgoAAAANSUhEUgAAAPwAAAD8CAYAAABTq8lnAAAN1UlEQVR4Ae2dwaocRRSG8ywJ2Qm+ik/ga8SFYPY+QOAqCEHXbly5j8FFVsEbULIJiYQEg6gbXWTkTyhp2p6Z6pmpqtPn/y4MPdO3uqumzvnOf6a7uurGDf7oAXrAqwce37t5l5dfHzz54uZn2N3L7u8im4x+fXVrx4s+wAdy+wDAE+gI9EY+APBGxka9c6t3jX0BHuBReCMfAHgjY9coAGVyZwEAD/AovJEPALyRsVHv3OpdY1+AB3gU3sgHAN7I2DUKQJncWQDAAzwKb+QDAG9kbNQ7t3rX2Pck4F89+GTHiz7AB+L4QA3sKnMy8Lvfn+940Qf4wHgfUOAFeAISAdnEBwDexNCo63h1jWADgAd41N3IBwDeyNgRFIY2jM00AB7gUXgjHwB4I2OjrmPVNUL/AzzAo/BGPgDwRsaOoDC0YWyWAfAAj8Ib+QDAGxkbdR2rrhH6H+ABHoU38gGANzJ2BIWhDWOzDIAHeBTeyAcA3sjYqOtYdY3Q/wAP8Ci8kQ8AvJGxIygMbRibZQA8wKPwRj4A8EbGRl3HqmuE/gd4gEfhjXwA4I2MHUFhaMPYLAPgAR6FN/IBgDcyNuo6Vl0j9D/AAzwKb+QDAG9k7AgKQxvGZhkAD/AovJEPALyRsVHXseoaof8BHuBReCMfAHgjY0dQGNowNssAeIBH4Y18AOCNjI26jlXXCP0P8ACPwhv5AMAbGTuCwtCGsVkGwAM8Cm/kAwBvZGzUday6Ruh/gAd4FL7SB/7+9cfdn0++2b159Pnu9cNPd68e3Hm31Wft1/8jQH2oDQBfaexDncj/8irnHz99tXvx/ce7X77+cHd9devoS+VUXsdF9AuAB/iQjjkSlre/Pd29/uHTasj3BQLBr/O8ffM0TB8DPMCHccaRkJe6lZ7/fP+Do0q+D/Kl/TqfzlvqGLkFeIAP4YgjIVDd/7x8tHv23UcXBX0Ov86vekZ+V4AH+KEOONL5S91//fLt2en7HO59n5Xmq75Sd+8twAP8MOfr7exL9enq+pMvbzdV9jn8qk/1LrWn9T6AB/ghjtfasWvOL6XtDXuBX/WOUHqAB3hL4PVbuvZWW4H00lvV3/s3PcADvCXwrS/Q1QYHtaMmG7lUGYAH+K4OdynHPec8ukVWC2SPcj1v2QE8wFsBr0Ewl77Pfm5QUHs02OecIFZ7LMADfBdHq3XI1uU08u1cQFscr3a1/u46P8ADfBdH6+HMNXWMvlC3L1ioXTXtP7cMwAN8F0c711EvcbweaNkHXIT9PR64AXiAtwFeT7FFAHtfG9S+SwS2Q+cAeIBv7mSHHLDn/6Km8yUA9EjrAR7gLYDX5BQFrMjb1pNoADzAWwCvseuRQS9taz3GHuAB3gL4aINtCuDzbetBOAAP8BbAaw66OVwRP6udLa9rADzAN3Wwls675tyacDIi4PM2qZ1rvtfasgAP8E0dbK1DtiqPwr+faBTgAd4CeH7DA7yFo7dSzK2dl6v0AA/wRtkN9+EBHuCNgFdGwkg7npYDeiPoGUsP8ABvBDxPywE8wBsBHzmt7/HgjL4/t+XMHH5rV9cv3V5mvPmkegDSDf09vnfz7nx00KHPiiiXNhrne3/FlX5Y3w+aOy7knHadFpxE4VF4u4AcbRBO6wdmpsIA8ABvB7wAYF7642vdk9ITHNIEB1aeAfg0zjxN4Xi//3c+a8sdhh6FR+HTBUWNse+9oCSrxwJSOpC2lFlI6XsNu1U9I1aNLfbgoh3BhmDz+/N3q7i2vpCn8/deLbaAXrYAD/AAP/EB3SK79H16na/nrbcC99IW4CfGXuog9u2/6JW1b7TgpEbknZvm63idp9dCkTX2AHiAR+EP+IAeuNFTdrXwq5zK91g2qgbweRmAP2DseWfx2U/tpzbXJBq6qq/0XHPkacJJbfVZ+1svIjFty6nvAR7gUXgjHwB4I2OfqgoclyezAXiAR+GNfADgjYyNUudR6lNtCfAAj8Ib+QDAGxn7VFXguDyZAcADPApv5AMAb2RslDqPUp9qS4AHeBTeyAcA3sjYp6oCx+XJDAAe4FF4Ix8AeCNjo9R5lPpUWwI8wKPwRj4A8EbGPlUVOC5PZgDwAL+o8BkeBSVQ/T9QATzA/wd8tskeAB7g/3NunOG9M2j6pYtO59RpjTTs93+Ya/oEhTdW+OwTNtYA4FYG4A2B11TJDlMyu8Fc830B3gx4p0UXagBwKwPwRsC7LavkBnPN9wV4E+AdF06sAcCtDMAbAO+6NLIbzDXfF+ANgG99ge766vCyw+X/akeNU1LmtFtuNf0G8MmB1623AlyErdpT45iUaQM9wCcGXmukXXphxHODhtoTaa01t8AC8ImB1wi6cwFtcbza5QZalO8L8ImBr10AsQXUh86pdkUBwK0dAJ8UeD0Icwi60f+Lurpq9gAA8EmB15LFo6E+VL/alx2uiN8P4JMCHzWdL0GAtL7NVfhjQQbgEwKvySsKWJG3W1hP/RhAW/s/wCcEXmPmI4Ne2qZ2bg2YrbcX4BMCH22wTQF8vmUQTv+0HuATAv/6Ycz773Pg1c6tK+bW2g/wCYF/9eDOJlJ6tXNrwGy9vQCfEHgUvn+qvJVAAPAJgec3PMDvC0AAnxB4rtIDPMAnBHufUbkPD/D7fAOFTxoIGGkH9EvQA3xS4BlLD/AAnxTuJcPytBzAL/kFCp84CERN63lwZlwwAvjEwDPjzTiwltQ1wj6ATwy85o4LOacdC04OG2EI8ImBl6JEG4TDAzNjsw6ATw68oGde+rGQRUjlSxsA3gB4Vp4BeIA3AL0YWVvWlgN6+QEKbwQ+q8cCPcAbAV+Uvtf9edWjzGKaafB+bNABeDPgBZx+07e+kKfzqx4AHwv4vP8B3hD44gS6RXbp+/Q6H7feYkFe7K0twBsDLwfQgpMakXdumq/jdR4WiowLO8Cbwz6N/HqvB270lF0t/Cqn8iwbFRvyqZ1ReKBf/J2tSTR0VV/puebI04ST2uqz9rOIxHYgB3ggX4R86hi83ybQx+yGwgM/8Bv5AMAbGftY9Of/OVV9aleAB3gU3sgHAN7I2NNIz/v8ar5kY4AHeBTeyAcA3sjYSxGffV5KD/AAj8Ib+QDAGxkbNfdS8yV7AzzAo/BGPgDwRsZeivjs81J9gAd4FN7IBwDeyNiouZeaL9kb4AEehTfyAYA3MvZSxGefl+oDPMCj8EY+APBGxkbNvdR8yd4AD/AovJEPALyRsZciPvu8VB/gAR6FN/IBgK80NpM6eilh1swH4A8Az7TNQJ4NfICfAa+FFC66MMObp6TMsz7OBtGWvg/AT5yRpZdQ9C3Be0pbAZ7FFclAJkH/FIi2dIw98FrOuHZppeurW7tzXqqH5ZPJIkYGCGvgtWTSky9vnwXx2gCg+lTvSKNTt2/QsQVeStsb9hIcVC9K7wvdyIBrCfw/Lx91S+ML5POt0nu1Y6Txqdsv6FgC/+y7j7qm8XPYy2e1A+j8oBtpczvgdeutABdhq/aMdADq9go4VsC/ffN09/P9D0IBr/ZosA/geYE3yt5WwGsEXQRVn7dB7RrlANTrFWisgO91v30O9LHPahfgeYE3yt42wOtBmGPgjfy/2jfKCajXJ9jYAP/i+49DA6/2AZ4PeKNsbQN81HS+ZBWk9cDeIwhYAK/JKwpYkbdqZw+jU4dvcLEAXmPXI4Ne2sYYe18QewVhC+CjDbYpgM+3DMIB+NbgWwD/+mHM++9z4NXO1gbn/N5BxQL4Vw/ubCKlVzsB0hvI1va3AB6FB6LWIG3l/BbA8xse4LcCZOt2WgDPVXqAbw3SVs5vATz34QF+K0C2bqcF8OpERtoBfWuYtnB+G+AZSw/wWwCydRttgOdpOYBvDdMWzm8DvIwRNa3nwRmCUa9gYQU8M94AVi+wotZjBbzmjgs5px0LTjLCsNNyV1bAK+pGG4TDAzNkHT2zATvg1bnMSw9kPSGLVJcl8Kw8A/CRIOzZFkvg1cGsLQf0PUGLUpct8DKAxtj3XlCS1WMJNCPhtwZeHS+l73V/XvWwaizAA3ynWxL7Olq/6VtfyNP5WS0W2Pf5YK/99go/7WjdIrv0fXqdj1tvgD71s5HvAX6WXWjBSY3IOzfN1/E6DwtFAvtIwOd1A/wM+GkH6YEbPWVXC7/KqTzLRgH51I8ivQf4A8BPDaVJNHRVX+m55sjThJPa6rP2s4gEkE/9Jep7gK8EPqoBaReBZo0PADzA8+CKkQ8AvJGx1ygBZXNmDgAP8Ci8kQ8AvJGxUe2cqr3GrgAP8Ci8kQ8AvJGx1ygBZXNmAwAP8Ci8kQ8AvJGxUe2cqr3GrgAP8Ci8kQ8AvJGx1ygBZXNmAwAP8Ci8kQ8AvJGxUe2cqr3GrgAP8Ci8kQ8AvJGx1ygBZXNmAwAP8Ci8kQ8AvJGxUe2cqr3GrgAP8Ci8kQ8AvJGx1ygBZXNmAwAP8Ci8kQ8AvJGxUe2cqr3GrgAP8Ci8kQ8AvJGx1ygBZXNmAwAP8Ci8kQ8AvJGxUe2cqr3GrgAP8Ci8kQ8AvJGx1ygBZXNmAwAP8Ci8kQ8AvJGxUe2cqr3Grl2AVyW86AN8IIYPXF/d2tW8bujv8b2bd2sKU6auU+kn+imqDwB8ZWSMakDaRXBZ4wMAD/BVqeAap6Js3CAE8AAP8EY+APBGxkZ54ypvL9sAPMCj8EY+APBGxu6lItQTN5MAeIBH4Y18AOCNjI3yxlXeXrYBeIBH4Y184F+fcwcD0El1UgAAAABJRU5ErkJggg==;sketch=1;" vertex="1" parent="y3suhU42Z3Smm_mkL3TH-1">
          <mxGeometry x="773" y="-617" width="27" height="27" as="geometry" />
        </mxCell>
        <mxCell id="y3suhU42Z3Smm_mkL3TH-42" value="" style="shape=image;verticalLabelPosition=bottom;labelBackgroundColor=#ffffff;verticalAlign=top;aspect=fixed;imageAspect=0;image=data:image/png,iVBORw0KGgoAAAANSUhEUgAAAPwAAAD8CAYAAABTq8lnAAAN1UlEQVR4Ae2dwaocRRSG8ywJ2Qm+ik/ga8SFYPY+QOAqCEHXbly5j8FFVsEbULIJiYQEg6gbXWTkTyhp2p6Z6pmpqtPn/y4MPdO3uqumzvnOf6a7uurGDf7oAXrAqwce37t5l5dfHzz54uZn2N3L7u8im4x+fXVrx4s+wAdy+wDAE+gI9EY+APBGxka9c6t3jX0BHuBReCMfAHgjY9coAGVyZwEAD/AovJEPALyRsVHv3OpdY1+AB3gU3sgHAN7I2DUKQJncWQDAAzwKb+QDAG9kbNQ7t3rX2Pck4F89+GTHiz7AB+L4QA3sKnMy8Lvfn+940Qf4wHgfUOAFeAISAdnEBwDexNCo63h1jWADgAd41N3IBwDeyNgRFIY2jM00AB7gUXgjHwB4I2OjrmPVNUL/AzzAo/BGPgDwRsaOoDC0YWyWAfAAj8Ib+QDAGxkbdR2rrhH6H+ABHoU38gGANzJ2BIWhDWOzDIAHeBTeyAcA3sjYqOtYdY3Q/wAP8Ci8kQ8AvJGxIygMbRibZQA8wKPwRj4A8EbGRl3HqmuE/gd4gEfhjXwA4I2MHUFhaMPYLAPgAR6FN/IBgDcyNuo6Vl0j9D/AAzwKb+QDAG9k7AgKQxvGZhkAD/AovJEPALyRsVHXseoaof8BHuBReCMfAHgjY0dQGNowNssAeIBH4Y18AOCNjI26jlXXCP0P8ACPwhv5AMAbGTuCwtCGsVkGwAM8Cm/kAwBvZGzUday6Ruh/gAd4FL7SB/7+9cfdn0++2b159Pnu9cNPd68e3Hm31Wft1/8jQH2oDQBfaexDncj/8irnHz99tXvx/ce7X77+cHd9devoS+VUXsdF9AuAB/iQjjkSlre/Pd29/uHTasj3BQLBr/O8ffM0TB8DPMCHccaRkJe6lZ7/fP+Do0q+D/Kl/TqfzlvqGLkFeIAP4YgjIVDd/7x8tHv23UcXBX0Ov86vekZ+V4AH+KEOONL5S91//fLt2en7HO59n5Xmq75Sd+8twAP8MOfr7exL9enq+pMvbzdV9jn8qk/1LrWn9T6AB/ghjtfasWvOL6XtDXuBX/WOUHqAB3hL4PVbuvZWW4H00lvV3/s3PcADvCXwrS/Q1QYHtaMmG7lUGYAH+K4OdynHPec8ukVWC2SPcj1v2QE8wFsBr0Ewl77Pfm5QUHs02OecIFZ7LMADfBdHq3XI1uU08u1cQFscr3a1/u46P8ADfBdH6+HMNXWMvlC3L1ioXTXtP7cMwAN8F0c711EvcbweaNkHXIT9PR64AXiAtwFeT7FFAHtfG9S+SwS2Q+cAeIBv7mSHHLDn/6Km8yUA9EjrAR7gLYDX5BQFrMjb1pNoADzAWwCvseuRQS9taz3GHuAB3gL4aINtCuDzbetBOAAP8BbAaw66OVwRP6udLa9rADzAN3Wwls675tyacDIi4PM2qZ1rvtfasgAP8E0dbK1DtiqPwr+faBTgAd4CeH7DA7yFo7dSzK2dl6v0AA/wRtkN9+EBHuCNgFdGwkg7npYDeiPoGUsP8ABvBDxPywE8wBsBHzmt7/HgjL4/t+XMHH5rV9cv3V5mvPmkegDSDf09vnfz7nx00KHPiiiXNhrne3/FlX5Y3w+aOy7knHadFpxE4VF4u4AcbRBO6wdmpsIA8ABvB7wAYF7642vdk9ITHNIEB1aeAfg0zjxN4Xi//3c+a8sdhh6FR+HTBUWNse+9oCSrxwJSOpC2lFlI6XsNu1U9I1aNLfbgoh3BhmDz+/N3q7i2vpCn8/deLbaAXrYAD/AAP/EB3SK79H16na/nrbcC99IW4CfGXuog9u2/6JW1b7TgpEbknZvm63idp9dCkTX2AHiAR+EP+IAeuNFTdrXwq5zK91g2qgbweRmAP2DseWfx2U/tpzbXJBq6qq/0XHPkacJJbfVZ+1svIjFty6nvAR7gUXgjHwB4I2OfqgoclyezAXiAR+GNfADgjYyNUudR6lNtCfAAj8Ib+QDAGxn7VFXguDyZAcADPApv5AMAb2RslDqPUp9qS4AHeBTeyAcA3sjYp6oCx+XJDAAe4FF4Ix8AeCNjo9R5lPpUWwI8wKPwRj4A8EbGPlUVOC5PZgDwAL+o8BkeBSVQ/T9QATzA/wd8tskeAB7g/3NunOG9M2j6pYtO59RpjTTs93+Ya/oEhTdW+OwTNtYA4FYG4A2B11TJDlMyu8Fc830B3gx4p0UXagBwKwPwRsC7LavkBnPN9wV4E+AdF06sAcCtDMAbAO+6NLIbzDXfF+ANgG99ge766vCyw+X/akeNU1LmtFtuNf0G8MmB1623AlyErdpT45iUaQM9wCcGXmukXXphxHODhtoTaa01t8AC8ImB1wi6cwFtcbza5QZalO8L8ImBr10AsQXUh86pdkUBwK0dAJ8UeD0Icwi60f+Lurpq9gAA8EmB15LFo6E+VL/alx2uiN8P4JMCHzWdL0GAtL7NVfhjQQbgEwKvySsKWJG3W1hP/RhAW/s/wCcEXmPmI4Ne2qZ2bg2YrbcX4BMCH22wTQF8vmUQTv+0HuATAv/6Ycz773Pg1c6tK+bW2g/wCYF/9eDOJlJ6tXNrwGy9vQCfEHgUvn+qvJVAAPAJgec3PMDvC0AAnxB4rtIDPMAnBHufUbkPD/D7fAOFTxoIGGkH9EvQA3xS4BlLD/AAnxTuJcPytBzAL/kFCp84CERN63lwZlwwAvjEwDPjzTiwltQ1wj6ATwy85o4LOacdC04OG2EI8ImBl6JEG4TDAzNjsw6ATw68oGde+rGQRUjlSxsA3gB4Vp4BeIA3AL0YWVvWlgN6+QEKbwQ+q8cCPcAbAV+Uvtf9edWjzGKaafB+bNABeDPgBZx+07e+kKfzqx4AHwv4vP8B3hD44gS6RXbp+/Q6H7feYkFe7K0twBsDLwfQgpMakXdumq/jdR4WiowLO8Cbwz6N/HqvB270lF0t/Cqn8iwbFRvyqZ1ReKBf/J2tSTR0VV/puebI04ST2uqz9rOIxHYgB3ggX4R86hi83ybQx+yGwgM/8Bv5AMAbGftY9Of/OVV9aleAB3gU3sgHAN7I2NNIz/v8ar5kY4AHeBTeyAcA3sjYSxGffV5KD/AAj8Ib+QDAGxkbNfdS8yV7AzzAo/BGPgDwRsZeivjs81J9gAd4FN7IBwDeyNiouZeaL9kb4AEehTfyAYA3MvZSxGefl+oDPMCj8EY+APBGxkbNvdR8yd4AD/AovJEPALyRsZciPvu8VB/gAR6FN/IBgK80NpM6eilh1swH4A8Az7TNQJ4NfICfAa+FFC66MMObp6TMsz7OBtGWvg/AT5yRpZdQ9C3Be0pbAZ7FFclAJkH/FIi2dIw98FrOuHZppeurW7tzXqqH5ZPJIkYGCGvgtWTSky9vnwXx2gCg+lTvSKNTt2/QsQVeStsb9hIcVC9K7wvdyIBrCfw/Lx91S+ML5POt0nu1Y6Txqdsv6FgC/+y7j7qm8XPYy2e1A+j8oBtpczvgdeutABdhq/aMdADq9go4VsC/ffN09/P9D0IBr/ZosA/geYE3yt5WwGsEXQRVn7dB7RrlANTrFWisgO91v30O9LHPahfgeYE3yt42wOtBmGPgjfy/2jfKCajXJ9jYAP/i+49DA6/2AZ4PeKNsbQN81HS+ZBWk9cDeIwhYAK/JKwpYkbdqZw+jU4dvcLEAXmPXI4Ne2sYYe18QewVhC+CjDbYpgM+3DMIB+NbgWwD/+mHM++9z4NXO1gbn/N5BxQL4Vw/ubCKlVzsB0hvI1va3AB6FB6LWIG3l/BbA8xse4LcCZOt2WgDPVXqAbw3SVs5vATz34QF+K0C2bqcF8OpERtoBfWuYtnB+G+AZSw/wWwCydRttgOdpOYBvDdMWzm8DvIwRNa3nwRmCUa9gYQU8M94AVi+wotZjBbzmjgs5px0LTjLCsNNyV1bAK+pGG4TDAzNkHT2zATvg1bnMSw9kPSGLVJcl8Kw8A/CRIOzZFkvg1cGsLQf0PUGLUpct8DKAxtj3XlCS1WMJNCPhtwZeHS+l73V/XvWwaizAA3ynWxL7Olq/6VtfyNP5WS0W2Pf5YK/99go/7WjdIrv0fXqdj1tvgD71s5HvAX6WXWjBSY3IOzfN1/E6DwtFAvtIwOd1A/wM+GkH6YEbPWVXC7/KqTzLRgH51I8ivQf4A8BPDaVJNHRVX+m55sjThJPa6rP2s4gEkE/9Jep7gK8EPqoBaReBZo0PADzA8+CKkQ8AvJGx1ygBZXNmDgAP8Ci8kQ8AvJGxUe2cqr3GrgAP8Ci8kQ8AvJGx1ygBZXNmAwAP8Ci8kQ8AvJGxUe2cqr3GrgAP8Ci8kQ8AvJGx1ygBZXNmAwAP8Ci8kQ8AvJGxUe2cqr3GrgAP8Ci8kQ8AvJGx1ygBZXNmAwAP8Ci8kQ8AvJGxUe2cqr3GrgAP8Ci8kQ8AvJGx1ygBZXNmAwAP8Ci8kQ8AvJGxUe2cqr3GrgAP8Ci8kQ8AvJGx1ygBZXNmAwAP8Ci8kQ8AvJGxUe2cqr3GrgAP8Ci8kQ8AvJGx1ygBZXNmAwAP8Ci8kQ8AvJGxUe2cqr3Grl2AVyW86AN8IIYPXF/d2tW8bujv8b2bd2sKU6auU+kn+imqDwB8ZWSMakDaRXBZ4wMAD/BVqeAap6Js3CAE8AAP8EY+APBGxkZ54ypvL9sAPMCj8EY+APBGxu6lItQTN5MAeIBH4Y18AOCNjI3yxlXeXrYBeIBH4Y184F+fcwcD0El1UgAAAABJRU5ErkJggg==;sketch=1;" vertex="1" parent="y3suhU42Z3Smm_mkL3TH-1">
          <mxGeometry x="683" y="-1006" width="27" height="27" as="geometry" />
        </mxCell>
      </root>
    </mxGraphModel>
  </diagram>
</mxfile>
